G04 #@! TF.GenerationSoftware,KiCad,Pcbnew,no-vcs-found-0f0cb64~58~ubuntu16.04.1*
G04 #@! TF.CreationDate,2017-03-29T15:35:21-04:00*
G04 #@! TF.ProjectId,step_dir_controller_3x2,737465705F6469725F636F6E74726F6C,1.0*
G04 #@! TF.FileFunction,Legend,Top*
G04 #@! TF.FilePolarity,Positive*
%FSLAX46Y46*%
G04 Gerber Fmt 4.6, Leading zero omitted, Abs format (unit mm)*
G04 Created by KiCad (PCBNEW no-vcs-found-0f0cb64~58~ubuntu16.04.1) date Wed Mar 29 15:35:21 2017*
%MOMM*%
%LPD*%
G01*
G04 APERTURE LIST*
%ADD10C,0.100000*%
%ADD11C,0.508000*%
%ADD12C,0.190500*%
%ADD13C,0.228600*%
%ADD14C,0.254000*%
%ADD15C,0.381000*%
%ADD16C,0.250000*%
%ADD17O,1.854200X2.540000*%
%ADD18R,1.854200X2.540000*%
%ADD19C,3.556000*%
%ADD20C,2.340000*%
%ADD21R,3.475000X3.475000*%
%ADD22R,1.016000X4.495800*%
G04 APERTURE END LIST*
D10*
D11*
X137214428Y-87980761D02*
X137311190Y-87884000D01*
X137504714Y-87787238D01*
X137988523Y-87787238D01*
X138182047Y-87884000D01*
X138278809Y-87980761D01*
X138375571Y-88174285D01*
X138375571Y-88367809D01*
X138278809Y-88658095D01*
X137117666Y-89819238D01*
X138375571Y-89819238D01*
X117420571Y-89819238D02*
X116259428Y-89819238D01*
X116840000Y-89819238D02*
X116840000Y-87787238D01*
X116646476Y-88077523D01*
X116452952Y-88271047D01*
X116259428Y-88367809D01*
X95788238Y-87787238D02*
X95981761Y-87787238D01*
X96175285Y-87884000D01*
X96272047Y-87980761D01*
X96368809Y-88174285D01*
X96465571Y-88561333D01*
X96465571Y-89045142D01*
X96368809Y-89432190D01*
X96272047Y-89625714D01*
X96175285Y-89722476D01*
X95981761Y-89819238D01*
X95788238Y-89819238D01*
X95594714Y-89722476D01*
X95497952Y-89625714D01*
X95401190Y-89432190D01*
X95304428Y-89045142D01*
X95304428Y-88561333D01*
X95401190Y-88174285D01*
X95497952Y-87980761D01*
X95594714Y-87884000D01*
X95788238Y-87787238D01*
D12*
X149914428Y-101854000D02*
X149841857Y-101817714D01*
X149733000Y-101817714D01*
X149624142Y-101854000D01*
X149551571Y-101926571D01*
X149515285Y-101999142D01*
X149479000Y-102144285D01*
X149479000Y-102253142D01*
X149515285Y-102398285D01*
X149551571Y-102470857D01*
X149624142Y-102543428D01*
X149733000Y-102579714D01*
X149805571Y-102579714D01*
X149914428Y-102543428D01*
X149950714Y-102507142D01*
X149950714Y-102253142D01*
X149805571Y-102253142D01*
X150277285Y-102579714D02*
X150277285Y-101817714D01*
X150712714Y-102579714D01*
X150712714Y-101817714D01*
X151075571Y-102579714D02*
X151075571Y-101817714D01*
X151257000Y-101817714D01*
X151365857Y-101854000D01*
X151438428Y-101926571D01*
X151474714Y-101999142D01*
X151511000Y-102144285D01*
X151511000Y-102253142D01*
X151474714Y-102398285D01*
X151438428Y-102470857D01*
X151365857Y-102543428D01*
X151257000Y-102579714D01*
X151075571Y-102579714D01*
X146503571Y-102579714D02*
X146249571Y-102216857D01*
X146068142Y-102579714D02*
X146068142Y-101817714D01*
X146358428Y-101817714D01*
X146431000Y-101854000D01*
X146467285Y-101890285D01*
X146503571Y-101962857D01*
X146503571Y-102071714D01*
X146467285Y-102144285D01*
X146431000Y-102180571D01*
X146358428Y-102216857D01*
X146068142Y-102216857D01*
X146830142Y-102180571D02*
X147084142Y-102180571D01*
X147193000Y-102579714D02*
X146830142Y-102579714D01*
X146830142Y-101817714D01*
X147193000Y-101817714D01*
X147773571Y-102180571D02*
X147519571Y-102180571D01*
X147519571Y-102579714D02*
X147519571Y-101817714D01*
X147882428Y-101817714D01*
X148608142Y-102579714D02*
X148354142Y-102216857D01*
X148172714Y-102579714D02*
X148172714Y-101817714D01*
X148463000Y-101817714D01*
X148535571Y-101854000D01*
X148571857Y-101890285D01*
X148608142Y-101962857D01*
X148608142Y-102071714D01*
X148571857Y-102144285D01*
X148535571Y-102180571D01*
X148463000Y-102216857D01*
X148172714Y-102216857D01*
X142929428Y-101854000D02*
X142856857Y-101817714D01*
X142748000Y-101817714D01*
X142639142Y-101854000D01*
X142566571Y-101926571D01*
X142530285Y-101999142D01*
X142494000Y-102144285D01*
X142494000Y-102253142D01*
X142530285Y-102398285D01*
X142566571Y-102470857D01*
X142639142Y-102543428D01*
X142748000Y-102579714D01*
X142820571Y-102579714D01*
X142929428Y-102543428D01*
X142965714Y-102507142D01*
X142965714Y-102253142D01*
X142820571Y-102253142D01*
X143292285Y-102579714D02*
X143292285Y-101817714D01*
X143727714Y-102579714D01*
X143727714Y-101817714D01*
X144090571Y-102579714D02*
X144090571Y-101817714D01*
X144272000Y-101817714D01*
X144380857Y-101854000D01*
X144453428Y-101926571D01*
X144489714Y-101999142D01*
X144526000Y-102144285D01*
X144526000Y-102253142D01*
X144489714Y-102398285D01*
X144453428Y-102470857D01*
X144380857Y-102543428D01*
X144272000Y-102579714D01*
X144090571Y-102579714D01*
X139899571Y-102579714D02*
X139645571Y-102216857D01*
X139464142Y-102579714D02*
X139464142Y-101817714D01*
X139754428Y-101817714D01*
X139827000Y-101854000D01*
X139863285Y-101890285D01*
X139899571Y-101962857D01*
X139899571Y-102071714D01*
X139863285Y-102144285D01*
X139827000Y-102180571D01*
X139754428Y-102216857D01*
X139464142Y-102216857D01*
X140226142Y-102180571D02*
X140480142Y-102180571D01*
X140589000Y-102579714D02*
X140226142Y-102579714D01*
X140226142Y-101817714D01*
X140589000Y-101817714D01*
X141169571Y-102180571D02*
X140915571Y-102180571D01*
X140915571Y-102579714D02*
X140915571Y-101817714D01*
X141278428Y-101817714D01*
X149914428Y-91694000D02*
X149841857Y-91657714D01*
X149733000Y-91657714D01*
X149624142Y-91694000D01*
X149551571Y-91766571D01*
X149515285Y-91839142D01*
X149479000Y-91984285D01*
X149479000Y-92093142D01*
X149515285Y-92238285D01*
X149551571Y-92310857D01*
X149624142Y-92383428D01*
X149733000Y-92419714D01*
X149805571Y-92419714D01*
X149914428Y-92383428D01*
X149950714Y-92347142D01*
X149950714Y-92093142D01*
X149805571Y-92093142D01*
X150277285Y-92419714D02*
X150277285Y-91657714D01*
X150712714Y-92419714D01*
X150712714Y-91657714D01*
X151075571Y-92419714D02*
X151075571Y-91657714D01*
X151257000Y-91657714D01*
X151365857Y-91694000D01*
X151438428Y-91766571D01*
X151474714Y-91839142D01*
X151511000Y-91984285D01*
X151511000Y-92093142D01*
X151474714Y-92238285D01*
X151438428Y-92310857D01*
X151365857Y-92383428D01*
X151257000Y-92419714D01*
X151075571Y-92419714D01*
X146503571Y-92419714D02*
X146249571Y-92056857D01*
X146068142Y-92419714D02*
X146068142Y-91657714D01*
X146358428Y-91657714D01*
X146431000Y-91694000D01*
X146467285Y-91730285D01*
X146503571Y-91802857D01*
X146503571Y-91911714D01*
X146467285Y-91984285D01*
X146431000Y-92020571D01*
X146358428Y-92056857D01*
X146068142Y-92056857D01*
X146830142Y-92020571D02*
X147084142Y-92020571D01*
X147193000Y-92419714D02*
X146830142Y-92419714D01*
X146830142Y-91657714D01*
X147193000Y-91657714D01*
X147773571Y-92020571D02*
X147519571Y-92020571D01*
X147519571Y-92419714D02*
X147519571Y-91657714D01*
X147882428Y-91657714D01*
X148608142Y-92419714D02*
X148354142Y-92056857D01*
X148172714Y-92419714D02*
X148172714Y-91657714D01*
X148463000Y-91657714D01*
X148535571Y-91694000D01*
X148571857Y-91730285D01*
X148608142Y-91802857D01*
X148608142Y-91911714D01*
X148571857Y-91984285D01*
X148535571Y-92020571D01*
X148463000Y-92056857D01*
X148172714Y-92056857D01*
X142929428Y-91694000D02*
X142856857Y-91657714D01*
X142748000Y-91657714D01*
X142639142Y-91694000D01*
X142566571Y-91766571D01*
X142530285Y-91839142D01*
X142494000Y-91984285D01*
X142494000Y-92093142D01*
X142530285Y-92238285D01*
X142566571Y-92310857D01*
X142639142Y-92383428D01*
X142748000Y-92419714D01*
X142820571Y-92419714D01*
X142929428Y-92383428D01*
X142965714Y-92347142D01*
X142965714Y-92093142D01*
X142820571Y-92093142D01*
X143292285Y-92419714D02*
X143292285Y-91657714D01*
X143727714Y-92419714D01*
X143727714Y-91657714D01*
X144090571Y-92419714D02*
X144090571Y-91657714D01*
X144272000Y-91657714D01*
X144380857Y-91694000D01*
X144453428Y-91766571D01*
X144489714Y-91839142D01*
X144526000Y-91984285D01*
X144526000Y-92093142D01*
X144489714Y-92238285D01*
X144453428Y-92310857D01*
X144380857Y-92383428D01*
X144272000Y-92419714D01*
X144090571Y-92419714D01*
X139899571Y-92419714D02*
X139645571Y-92056857D01*
X139464142Y-92419714D02*
X139464142Y-91657714D01*
X139754428Y-91657714D01*
X139827000Y-91694000D01*
X139863285Y-91730285D01*
X139899571Y-91802857D01*
X139899571Y-91911714D01*
X139863285Y-91984285D01*
X139827000Y-92020571D01*
X139754428Y-92056857D01*
X139464142Y-92056857D01*
X140226142Y-92020571D02*
X140480142Y-92020571D01*
X140589000Y-92419714D02*
X140226142Y-92419714D01*
X140226142Y-91657714D01*
X140589000Y-91657714D01*
X141169571Y-92020571D02*
X140915571Y-92020571D01*
X140915571Y-92419714D02*
X140915571Y-91657714D01*
X141278428Y-91657714D01*
X128959428Y-101854000D02*
X128886857Y-101817714D01*
X128778000Y-101817714D01*
X128669142Y-101854000D01*
X128596571Y-101926571D01*
X128560285Y-101999142D01*
X128524000Y-102144285D01*
X128524000Y-102253142D01*
X128560285Y-102398285D01*
X128596571Y-102470857D01*
X128669142Y-102543428D01*
X128778000Y-102579714D01*
X128850571Y-102579714D01*
X128959428Y-102543428D01*
X128995714Y-102507142D01*
X128995714Y-102253142D01*
X128850571Y-102253142D01*
X129322285Y-102579714D02*
X129322285Y-101817714D01*
X129757714Y-102579714D01*
X129757714Y-101817714D01*
X130120571Y-102579714D02*
X130120571Y-101817714D01*
X130302000Y-101817714D01*
X130410857Y-101854000D01*
X130483428Y-101926571D01*
X130519714Y-101999142D01*
X130556000Y-102144285D01*
X130556000Y-102253142D01*
X130519714Y-102398285D01*
X130483428Y-102470857D01*
X130410857Y-102543428D01*
X130302000Y-102579714D01*
X130120571Y-102579714D01*
X125548571Y-102579714D02*
X125294571Y-102216857D01*
X125113142Y-102579714D02*
X125113142Y-101817714D01*
X125403428Y-101817714D01*
X125476000Y-101854000D01*
X125512285Y-101890285D01*
X125548571Y-101962857D01*
X125548571Y-102071714D01*
X125512285Y-102144285D01*
X125476000Y-102180571D01*
X125403428Y-102216857D01*
X125113142Y-102216857D01*
X125875142Y-102180571D02*
X126129142Y-102180571D01*
X126238000Y-102579714D02*
X125875142Y-102579714D01*
X125875142Y-101817714D01*
X126238000Y-101817714D01*
X126818571Y-102180571D02*
X126564571Y-102180571D01*
X126564571Y-102579714D02*
X126564571Y-101817714D01*
X126927428Y-101817714D01*
X127653142Y-102579714D02*
X127399142Y-102216857D01*
X127217714Y-102579714D02*
X127217714Y-101817714D01*
X127508000Y-101817714D01*
X127580571Y-101854000D01*
X127616857Y-101890285D01*
X127653142Y-101962857D01*
X127653142Y-102071714D01*
X127616857Y-102144285D01*
X127580571Y-102180571D01*
X127508000Y-102216857D01*
X127217714Y-102216857D01*
X121974428Y-101854000D02*
X121901857Y-101817714D01*
X121793000Y-101817714D01*
X121684142Y-101854000D01*
X121611571Y-101926571D01*
X121575285Y-101999142D01*
X121539000Y-102144285D01*
X121539000Y-102253142D01*
X121575285Y-102398285D01*
X121611571Y-102470857D01*
X121684142Y-102543428D01*
X121793000Y-102579714D01*
X121865571Y-102579714D01*
X121974428Y-102543428D01*
X122010714Y-102507142D01*
X122010714Y-102253142D01*
X121865571Y-102253142D01*
X122337285Y-102579714D02*
X122337285Y-101817714D01*
X122772714Y-102579714D01*
X122772714Y-101817714D01*
X123135571Y-102579714D02*
X123135571Y-101817714D01*
X123317000Y-101817714D01*
X123425857Y-101854000D01*
X123498428Y-101926571D01*
X123534714Y-101999142D01*
X123571000Y-102144285D01*
X123571000Y-102253142D01*
X123534714Y-102398285D01*
X123498428Y-102470857D01*
X123425857Y-102543428D01*
X123317000Y-102579714D01*
X123135571Y-102579714D01*
X118944571Y-102579714D02*
X118690571Y-102216857D01*
X118509142Y-102579714D02*
X118509142Y-101817714D01*
X118799428Y-101817714D01*
X118872000Y-101854000D01*
X118908285Y-101890285D01*
X118944571Y-101962857D01*
X118944571Y-102071714D01*
X118908285Y-102144285D01*
X118872000Y-102180571D01*
X118799428Y-102216857D01*
X118509142Y-102216857D01*
X119271142Y-102180571D02*
X119525142Y-102180571D01*
X119634000Y-102579714D02*
X119271142Y-102579714D01*
X119271142Y-101817714D01*
X119634000Y-101817714D01*
X120214571Y-102180571D02*
X119960571Y-102180571D01*
X119960571Y-102579714D02*
X119960571Y-101817714D01*
X120323428Y-101817714D01*
X128959428Y-91694000D02*
X128886857Y-91657714D01*
X128778000Y-91657714D01*
X128669142Y-91694000D01*
X128596571Y-91766571D01*
X128560285Y-91839142D01*
X128524000Y-91984285D01*
X128524000Y-92093142D01*
X128560285Y-92238285D01*
X128596571Y-92310857D01*
X128669142Y-92383428D01*
X128778000Y-92419714D01*
X128850571Y-92419714D01*
X128959428Y-92383428D01*
X128995714Y-92347142D01*
X128995714Y-92093142D01*
X128850571Y-92093142D01*
X129322285Y-92419714D02*
X129322285Y-91657714D01*
X129757714Y-92419714D01*
X129757714Y-91657714D01*
X130120571Y-92419714D02*
X130120571Y-91657714D01*
X130302000Y-91657714D01*
X130410857Y-91694000D01*
X130483428Y-91766571D01*
X130519714Y-91839142D01*
X130556000Y-91984285D01*
X130556000Y-92093142D01*
X130519714Y-92238285D01*
X130483428Y-92310857D01*
X130410857Y-92383428D01*
X130302000Y-92419714D01*
X130120571Y-92419714D01*
X125548571Y-92419714D02*
X125294571Y-92056857D01*
X125113142Y-92419714D02*
X125113142Y-91657714D01*
X125403428Y-91657714D01*
X125476000Y-91694000D01*
X125512285Y-91730285D01*
X125548571Y-91802857D01*
X125548571Y-91911714D01*
X125512285Y-91984285D01*
X125476000Y-92020571D01*
X125403428Y-92056857D01*
X125113142Y-92056857D01*
X125875142Y-92020571D02*
X126129142Y-92020571D01*
X126238000Y-92419714D02*
X125875142Y-92419714D01*
X125875142Y-91657714D01*
X126238000Y-91657714D01*
X126818571Y-92020571D02*
X126564571Y-92020571D01*
X126564571Y-92419714D02*
X126564571Y-91657714D01*
X126927428Y-91657714D01*
X127653142Y-92419714D02*
X127399142Y-92056857D01*
X127217714Y-92419714D02*
X127217714Y-91657714D01*
X127508000Y-91657714D01*
X127580571Y-91694000D01*
X127616857Y-91730285D01*
X127653142Y-91802857D01*
X127653142Y-91911714D01*
X127616857Y-91984285D01*
X127580571Y-92020571D01*
X127508000Y-92056857D01*
X127217714Y-92056857D01*
X121974428Y-91694000D02*
X121901857Y-91657714D01*
X121793000Y-91657714D01*
X121684142Y-91694000D01*
X121611571Y-91766571D01*
X121575285Y-91839142D01*
X121539000Y-91984285D01*
X121539000Y-92093142D01*
X121575285Y-92238285D01*
X121611571Y-92310857D01*
X121684142Y-92383428D01*
X121793000Y-92419714D01*
X121865571Y-92419714D01*
X121974428Y-92383428D01*
X122010714Y-92347142D01*
X122010714Y-92093142D01*
X121865571Y-92093142D01*
X122337285Y-92419714D02*
X122337285Y-91657714D01*
X122772714Y-92419714D01*
X122772714Y-91657714D01*
X123135571Y-92419714D02*
X123135571Y-91657714D01*
X123317000Y-91657714D01*
X123425857Y-91694000D01*
X123498428Y-91766571D01*
X123534714Y-91839142D01*
X123571000Y-91984285D01*
X123571000Y-92093142D01*
X123534714Y-92238285D01*
X123498428Y-92310857D01*
X123425857Y-92383428D01*
X123317000Y-92419714D01*
X123135571Y-92419714D01*
X118944571Y-92419714D02*
X118690571Y-92056857D01*
X118509142Y-92419714D02*
X118509142Y-91657714D01*
X118799428Y-91657714D01*
X118872000Y-91694000D01*
X118908285Y-91730285D01*
X118944571Y-91802857D01*
X118944571Y-91911714D01*
X118908285Y-91984285D01*
X118872000Y-92020571D01*
X118799428Y-92056857D01*
X118509142Y-92056857D01*
X119271142Y-92020571D02*
X119525142Y-92020571D01*
X119634000Y-92419714D02*
X119271142Y-92419714D01*
X119271142Y-91657714D01*
X119634000Y-91657714D01*
X120214571Y-92020571D02*
X119960571Y-92020571D01*
X119960571Y-92419714D02*
X119960571Y-91657714D01*
X120323428Y-91657714D01*
X108004428Y-101854000D02*
X107931857Y-101817714D01*
X107823000Y-101817714D01*
X107714142Y-101854000D01*
X107641571Y-101926571D01*
X107605285Y-101999142D01*
X107569000Y-102144285D01*
X107569000Y-102253142D01*
X107605285Y-102398285D01*
X107641571Y-102470857D01*
X107714142Y-102543428D01*
X107823000Y-102579714D01*
X107895571Y-102579714D01*
X108004428Y-102543428D01*
X108040714Y-102507142D01*
X108040714Y-102253142D01*
X107895571Y-102253142D01*
X108367285Y-102579714D02*
X108367285Y-101817714D01*
X108802714Y-102579714D01*
X108802714Y-101817714D01*
X109165571Y-102579714D02*
X109165571Y-101817714D01*
X109347000Y-101817714D01*
X109455857Y-101854000D01*
X109528428Y-101926571D01*
X109564714Y-101999142D01*
X109601000Y-102144285D01*
X109601000Y-102253142D01*
X109564714Y-102398285D01*
X109528428Y-102470857D01*
X109455857Y-102543428D01*
X109347000Y-102579714D01*
X109165571Y-102579714D01*
X104593571Y-102579714D02*
X104339571Y-102216857D01*
X104158142Y-102579714D02*
X104158142Y-101817714D01*
X104448428Y-101817714D01*
X104521000Y-101854000D01*
X104557285Y-101890285D01*
X104593571Y-101962857D01*
X104593571Y-102071714D01*
X104557285Y-102144285D01*
X104521000Y-102180571D01*
X104448428Y-102216857D01*
X104158142Y-102216857D01*
X104920142Y-102180571D02*
X105174142Y-102180571D01*
X105283000Y-102579714D02*
X104920142Y-102579714D01*
X104920142Y-101817714D01*
X105283000Y-101817714D01*
X105863571Y-102180571D02*
X105609571Y-102180571D01*
X105609571Y-102579714D02*
X105609571Y-101817714D01*
X105972428Y-101817714D01*
X106698142Y-102579714D02*
X106444142Y-102216857D01*
X106262714Y-102579714D02*
X106262714Y-101817714D01*
X106553000Y-101817714D01*
X106625571Y-101854000D01*
X106661857Y-101890285D01*
X106698142Y-101962857D01*
X106698142Y-102071714D01*
X106661857Y-102144285D01*
X106625571Y-102180571D01*
X106553000Y-102216857D01*
X106262714Y-102216857D01*
X108004428Y-91694000D02*
X107931857Y-91657714D01*
X107823000Y-91657714D01*
X107714142Y-91694000D01*
X107641571Y-91766571D01*
X107605285Y-91839142D01*
X107569000Y-91984285D01*
X107569000Y-92093142D01*
X107605285Y-92238285D01*
X107641571Y-92310857D01*
X107714142Y-92383428D01*
X107823000Y-92419714D01*
X107895571Y-92419714D01*
X108004428Y-92383428D01*
X108040714Y-92347142D01*
X108040714Y-92093142D01*
X107895571Y-92093142D01*
X108367285Y-92419714D02*
X108367285Y-91657714D01*
X108802714Y-92419714D01*
X108802714Y-91657714D01*
X109165571Y-92419714D02*
X109165571Y-91657714D01*
X109347000Y-91657714D01*
X109455857Y-91694000D01*
X109528428Y-91766571D01*
X109564714Y-91839142D01*
X109601000Y-91984285D01*
X109601000Y-92093142D01*
X109564714Y-92238285D01*
X109528428Y-92310857D01*
X109455857Y-92383428D01*
X109347000Y-92419714D01*
X109165571Y-92419714D01*
X104593571Y-92419714D02*
X104339571Y-92056857D01*
X104158142Y-92419714D02*
X104158142Y-91657714D01*
X104448428Y-91657714D01*
X104521000Y-91694000D01*
X104557285Y-91730285D01*
X104593571Y-91802857D01*
X104593571Y-91911714D01*
X104557285Y-91984285D01*
X104521000Y-92020571D01*
X104448428Y-92056857D01*
X104158142Y-92056857D01*
X104920142Y-92020571D02*
X105174142Y-92020571D01*
X105283000Y-92419714D02*
X104920142Y-92419714D01*
X104920142Y-91657714D01*
X105283000Y-91657714D01*
X105863571Y-92020571D02*
X105609571Y-92020571D01*
X105609571Y-92419714D02*
X105609571Y-91657714D01*
X105972428Y-91657714D01*
X106698142Y-92419714D02*
X106444142Y-92056857D01*
X106262714Y-92419714D02*
X106262714Y-91657714D01*
X106553000Y-91657714D01*
X106625571Y-91694000D01*
X106661857Y-91730285D01*
X106698142Y-91802857D01*
X106698142Y-91911714D01*
X106661857Y-91984285D01*
X106625571Y-92020571D01*
X106553000Y-92056857D01*
X106262714Y-92056857D01*
X101019428Y-101854000D02*
X100946857Y-101817714D01*
X100838000Y-101817714D01*
X100729142Y-101854000D01*
X100656571Y-101926571D01*
X100620285Y-101999142D01*
X100584000Y-102144285D01*
X100584000Y-102253142D01*
X100620285Y-102398285D01*
X100656571Y-102470857D01*
X100729142Y-102543428D01*
X100838000Y-102579714D01*
X100910571Y-102579714D01*
X101019428Y-102543428D01*
X101055714Y-102507142D01*
X101055714Y-102253142D01*
X100910571Y-102253142D01*
X101382285Y-102579714D02*
X101382285Y-101817714D01*
X101817714Y-102579714D01*
X101817714Y-101817714D01*
X102180571Y-102579714D02*
X102180571Y-101817714D01*
X102362000Y-101817714D01*
X102470857Y-101854000D01*
X102543428Y-101926571D01*
X102579714Y-101999142D01*
X102616000Y-102144285D01*
X102616000Y-102253142D01*
X102579714Y-102398285D01*
X102543428Y-102470857D01*
X102470857Y-102543428D01*
X102362000Y-102579714D01*
X102180571Y-102579714D01*
X97989571Y-102579714D02*
X97735571Y-102216857D01*
X97554142Y-102579714D02*
X97554142Y-101817714D01*
X97844428Y-101817714D01*
X97917000Y-101854000D01*
X97953285Y-101890285D01*
X97989571Y-101962857D01*
X97989571Y-102071714D01*
X97953285Y-102144285D01*
X97917000Y-102180571D01*
X97844428Y-102216857D01*
X97554142Y-102216857D01*
X98316142Y-102180571D02*
X98570142Y-102180571D01*
X98679000Y-102579714D02*
X98316142Y-102579714D01*
X98316142Y-101817714D01*
X98679000Y-101817714D01*
X99259571Y-102180571D02*
X99005571Y-102180571D01*
X99005571Y-102579714D02*
X99005571Y-101817714D01*
X99368428Y-101817714D01*
X97989571Y-92419714D02*
X97735571Y-92056857D01*
X97554142Y-92419714D02*
X97554142Y-91657714D01*
X97844428Y-91657714D01*
X97917000Y-91694000D01*
X97953285Y-91730285D01*
X97989571Y-91802857D01*
X97989571Y-91911714D01*
X97953285Y-91984285D01*
X97917000Y-92020571D01*
X97844428Y-92056857D01*
X97554142Y-92056857D01*
X98316142Y-92020571D02*
X98570142Y-92020571D01*
X98679000Y-92419714D02*
X98316142Y-92419714D01*
X98316142Y-91657714D01*
X98679000Y-91657714D01*
X99259571Y-92020571D02*
X99005571Y-92020571D01*
X99005571Y-92419714D02*
X99005571Y-91657714D01*
X99368428Y-91657714D01*
X101019428Y-91694000D02*
X100946857Y-91657714D01*
X100838000Y-91657714D01*
X100729142Y-91694000D01*
X100656571Y-91766571D01*
X100620285Y-91839142D01*
X100584000Y-91984285D01*
X100584000Y-92093142D01*
X100620285Y-92238285D01*
X100656571Y-92310857D01*
X100729142Y-92383428D01*
X100838000Y-92419714D01*
X100910571Y-92419714D01*
X101019428Y-92383428D01*
X101055714Y-92347142D01*
X101055714Y-92093142D01*
X100910571Y-92093142D01*
X101382285Y-92419714D02*
X101382285Y-91657714D01*
X101817714Y-92419714D01*
X101817714Y-91657714D01*
X102180571Y-92419714D02*
X102180571Y-91657714D01*
X102362000Y-91657714D01*
X102470857Y-91694000D01*
X102543428Y-91766571D01*
X102579714Y-91839142D01*
X102616000Y-91984285D01*
X102616000Y-92093142D01*
X102579714Y-92238285D01*
X102543428Y-92310857D01*
X102470857Y-92383428D01*
X102362000Y-92419714D01*
X102180571Y-92419714D01*
X124137964Y-90297000D02*
X123375964Y-90297000D01*
X123375964Y-90115571D01*
X123412250Y-90006714D01*
X123484821Y-89934142D01*
X123557392Y-89897857D01*
X123702535Y-89861571D01*
X123811392Y-89861571D01*
X123956535Y-89897857D01*
X124029107Y-89934142D01*
X124101678Y-90006714D01*
X124137964Y-90115571D01*
X124137964Y-90297000D01*
X124137964Y-89535000D02*
X123375964Y-89535000D01*
X124137964Y-88736714D02*
X123775107Y-88990714D01*
X124137964Y-89172142D02*
X123375964Y-89172142D01*
X123375964Y-88881857D01*
X123412250Y-88809285D01*
X123448535Y-88773000D01*
X123521107Y-88736714D01*
X123629964Y-88736714D01*
X123702535Y-88773000D01*
X123738821Y-88809285D01*
X123775107Y-88881857D01*
X123775107Y-89172142D01*
X125181178Y-89825285D02*
X125181178Y-89244714D01*
X145092964Y-90297000D02*
X144330964Y-90297000D01*
X144330964Y-90115571D01*
X144367250Y-90006714D01*
X144439821Y-89934142D01*
X144512392Y-89897857D01*
X144657535Y-89861571D01*
X144766392Y-89861571D01*
X144911535Y-89897857D01*
X144984107Y-89934142D01*
X145056678Y-90006714D01*
X145092964Y-90115571D01*
X145092964Y-90297000D01*
X145092964Y-89535000D02*
X144330964Y-89535000D01*
X145092964Y-88736714D02*
X144730107Y-88990714D01*
X145092964Y-89172142D02*
X144330964Y-89172142D01*
X144330964Y-88881857D01*
X144367250Y-88809285D01*
X144403535Y-88773000D01*
X144476107Y-88736714D01*
X144584964Y-88736714D01*
X144657535Y-88773000D01*
X144693821Y-88809285D01*
X144730107Y-88881857D01*
X144730107Y-89172142D01*
X146136178Y-89825285D02*
X146136178Y-89244714D01*
X150136678Y-90768714D02*
X150172964Y-90659857D01*
X150172964Y-90478428D01*
X150136678Y-90405857D01*
X150100392Y-90369571D01*
X150027821Y-90333285D01*
X149955250Y-90333285D01*
X149882678Y-90369571D01*
X149846392Y-90405857D01*
X149810107Y-90478428D01*
X149773821Y-90623571D01*
X149737535Y-90696142D01*
X149701250Y-90732428D01*
X149628678Y-90768714D01*
X149556107Y-90768714D01*
X149483535Y-90732428D01*
X149447250Y-90696142D01*
X149410964Y-90623571D01*
X149410964Y-90442142D01*
X149447250Y-90333285D01*
X149410964Y-90115571D02*
X149410964Y-89680142D01*
X150172964Y-89897857D02*
X149410964Y-89897857D01*
X149773821Y-89426142D02*
X149773821Y-89172142D01*
X150172964Y-89063285D02*
X150172964Y-89426142D01*
X149410964Y-89426142D01*
X149410964Y-89063285D01*
X150172964Y-88736714D02*
X149410964Y-88736714D01*
X149410964Y-88446428D01*
X149447250Y-88373857D01*
X149483535Y-88337571D01*
X149556107Y-88301285D01*
X149664964Y-88301285D01*
X149737535Y-88337571D01*
X149773821Y-88373857D01*
X149810107Y-88446428D01*
X149810107Y-88736714D01*
X151216178Y-89825285D02*
X151216178Y-89244714D01*
X129181678Y-90768714D02*
X129217964Y-90659857D01*
X129217964Y-90478428D01*
X129181678Y-90405857D01*
X129145392Y-90369571D01*
X129072821Y-90333285D01*
X129000250Y-90333285D01*
X128927678Y-90369571D01*
X128891392Y-90405857D01*
X128855107Y-90478428D01*
X128818821Y-90623571D01*
X128782535Y-90696142D01*
X128746250Y-90732428D01*
X128673678Y-90768714D01*
X128601107Y-90768714D01*
X128528535Y-90732428D01*
X128492250Y-90696142D01*
X128455964Y-90623571D01*
X128455964Y-90442142D01*
X128492250Y-90333285D01*
X128455964Y-90115571D02*
X128455964Y-89680142D01*
X129217964Y-89897857D02*
X128455964Y-89897857D01*
X128818821Y-89426142D02*
X128818821Y-89172142D01*
X129217964Y-89063285D02*
X129217964Y-89426142D01*
X128455964Y-89426142D01*
X128455964Y-89063285D01*
X129217964Y-88736714D02*
X128455964Y-88736714D01*
X128455964Y-88446428D01*
X128492250Y-88373857D01*
X128528535Y-88337571D01*
X128601107Y-88301285D01*
X128709964Y-88301285D01*
X128782535Y-88337571D01*
X128818821Y-88373857D01*
X128855107Y-88446428D01*
X128855107Y-88736714D01*
X130261178Y-89825285D02*
X130261178Y-89244714D01*
X139613821Y-90097428D02*
X139613821Y-89843428D01*
X140012964Y-89734571D02*
X140012964Y-90097428D01*
X139250964Y-90097428D01*
X139250964Y-89734571D01*
X140012964Y-89408000D02*
X139250964Y-89408000D01*
X140012964Y-88972571D01*
X139250964Y-88972571D01*
X141056178Y-89825285D02*
X141056178Y-89244714D01*
X118658821Y-90097428D02*
X118658821Y-89843428D01*
X119057964Y-89734571D02*
X119057964Y-90097428D01*
X118295964Y-90097428D01*
X118295964Y-89734571D01*
X119057964Y-89408000D02*
X118295964Y-89408000D01*
X119057964Y-88972571D01*
X118295964Y-88972571D01*
X120101178Y-89825285D02*
X120101178Y-89244714D01*
X139613821Y-75492428D02*
X139613821Y-75238428D01*
X140012964Y-75129571D02*
X140012964Y-75492428D01*
X139250964Y-75492428D01*
X139250964Y-75129571D01*
X140012964Y-74803000D02*
X139250964Y-74803000D01*
X140012964Y-74367571D01*
X139250964Y-74367571D01*
X141056178Y-75220285D02*
X141056178Y-74639714D01*
X141346464Y-74930000D02*
X140765892Y-74930000D01*
X118658821Y-75492428D02*
X118658821Y-75238428D01*
X119057964Y-75129571D02*
X119057964Y-75492428D01*
X118295964Y-75492428D01*
X118295964Y-75129571D01*
X119057964Y-74803000D02*
X118295964Y-74803000D01*
X119057964Y-74367571D01*
X118295964Y-74367571D01*
X120101178Y-75220285D02*
X120101178Y-74639714D01*
X120391464Y-74930000D02*
X119810892Y-74930000D01*
X145092964Y-75692000D02*
X144330964Y-75692000D01*
X144330964Y-75510571D01*
X144367250Y-75401714D01*
X144439821Y-75329142D01*
X144512392Y-75292857D01*
X144657535Y-75256571D01*
X144766392Y-75256571D01*
X144911535Y-75292857D01*
X144984107Y-75329142D01*
X145056678Y-75401714D01*
X145092964Y-75510571D01*
X145092964Y-75692000D01*
X145092964Y-74930000D02*
X144330964Y-74930000D01*
X145092964Y-74131714D02*
X144730107Y-74385714D01*
X145092964Y-74567142D02*
X144330964Y-74567142D01*
X144330964Y-74276857D01*
X144367250Y-74204285D01*
X144403535Y-74168000D01*
X144476107Y-74131714D01*
X144584964Y-74131714D01*
X144657535Y-74168000D01*
X144693821Y-74204285D01*
X144730107Y-74276857D01*
X144730107Y-74567142D01*
X146136178Y-75220285D02*
X146136178Y-74639714D01*
X146426464Y-74930000D02*
X145845892Y-74930000D01*
X124137964Y-75692000D02*
X123375964Y-75692000D01*
X123375964Y-75510571D01*
X123412250Y-75401714D01*
X123484821Y-75329142D01*
X123557392Y-75292857D01*
X123702535Y-75256571D01*
X123811392Y-75256571D01*
X123956535Y-75292857D01*
X124029107Y-75329142D01*
X124101678Y-75401714D01*
X124137964Y-75510571D01*
X124137964Y-75692000D01*
X124137964Y-74930000D02*
X123375964Y-74930000D01*
X124137964Y-74131714D02*
X123775107Y-74385714D01*
X124137964Y-74567142D02*
X123375964Y-74567142D01*
X123375964Y-74276857D01*
X123412250Y-74204285D01*
X123448535Y-74168000D01*
X123521107Y-74131714D01*
X123629964Y-74131714D01*
X123702535Y-74168000D01*
X123738821Y-74204285D01*
X123775107Y-74276857D01*
X123775107Y-74567142D01*
X125181178Y-75220285D02*
X125181178Y-74639714D01*
X125471464Y-74930000D02*
X124890892Y-74930000D01*
X150136678Y-76163714D02*
X150172964Y-76054857D01*
X150172964Y-75873428D01*
X150136678Y-75800857D01*
X150100392Y-75764571D01*
X150027821Y-75728285D01*
X149955250Y-75728285D01*
X149882678Y-75764571D01*
X149846392Y-75800857D01*
X149810107Y-75873428D01*
X149773821Y-76018571D01*
X149737535Y-76091142D01*
X149701250Y-76127428D01*
X149628678Y-76163714D01*
X149556107Y-76163714D01*
X149483535Y-76127428D01*
X149447250Y-76091142D01*
X149410964Y-76018571D01*
X149410964Y-75837142D01*
X149447250Y-75728285D01*
X149410964Y-75510571D02*
X149410964Y-75075142D01*
X150172964Y-75292857D02*
X149410964Y-75292857D01*
X149773821Y-74821142D02*
X149773821Y-74567142D01*
X150172964Y-74458285D02*
X150172964Y-74821142D01*
X149410964Y-74821142D01*
X149410964Y-74458285D01*
X150172964Y-74131714D02*
X149410964Y-74131714D01*
X149410964Y-73841428D01*
X149447250Y-73768857D01*
X149483535Y-73732571D01*
X149556107Y-73696285D01*
X149664964Y-73696285D01*
X149737535Y-73732571D01*
X149773821Y-73768857D01*
X149810107Y-73841428D01*
X149810107Y-74131714D01*
X151216178Y-75220285D02*
X151216178Y-74639714D01*
X151506464Y-74930000D02*
X150925892Y-74930000D01*
X142494000Y-90115571D02*
X142457714Y-90188142D01*
X142457714Y-90297000D01*
X142494000Y-90405857D01*
X142566571Y-90478428D01*
X142639142Y-90514714D01*
X142784285Y-90551000D01*
X142893142Y-90551000D01*
X143038285Y-90514714D01*
X143110857Y-90478428D01*
X143183428Y-90405857D01*
X143219714Y-90297000D01*
X143219714Y-90224428D01*
X143183428Y-90115571D01*
X143147142Y-90079285D01*
X142893142Y-90079285D01*
X142893142Y-90224428D01*
X143219714Y-89752714D02*
X142457714Y-89752714D01*
X143219714Y-89317285D01*
X142457714Y-89317285D01*
X143219714Y-88954428D02*
X142457714Y-88954428D01*
X142457714Y-88773000D01*
X142494000Y-88664142D01*
X142566571Y-88591571D01*
X142639142Y-88555285D01*
X142784285Y-88519000D01*
X142893142Y-88519000D01*
X143038285Y-88555285D01*
X143110857Y-88591571D01*
X143183428Y-88664142D01*
X143219714Y-88773000D01*
X143219714Y-88954428D01*
X147574000Y-90115571D02*
X147537714Y-90188142D01*
X147537714Y-90297000D01*
X147574000Y-90405857D01*
X147646571Y-90478428D01*
X147719142Y-90514714D01*
X147864285Y-90551000D01*
X147973142Y-90551000D01*
X148118285Y-90514714D01*
X148190857Y-90478428D01*
X148263428Y-90405857D01*
X148299714Y-90297000D01*
X148299714Y-90224428D01*
X148263428Y-90115571D01*
X148227142Y-90079285D01*
X147973142Y-90079285D01*
X147973142Y-90224428D01*
X148299714Y-89752714D02*
X147537714Y-89752714D01*
X148299714Y-89317285D01*
X147537714Y-89317285D01*
X148299714Y-88954428D02*
X147537714Y-88954428D01*
X147537714Y-88773000D01*
X147574000Y-88664142D01*
X147646571Y-88591571D01*
X147719142Y-88555285D01*
X147864285Y-88519000D01*
X147973142Y-88519000D01*
X148118285Y-88555285D01*
X148190857Y-88591571D01*
X148263428Y-88664142D01*
X148299714Y-88773000D01*
X148299714Y-88954428D01*
X147574000Y-75510571D02*
X147537714Y-75583142D01*
X147537714Y-75692000D01*
X147574000Y-75800857D01*
X147646571Y-75873428D01*
X147719142Y-75909714D01*
X147864285Y-75946000D01*
X147973142Y-75946000D01*
X148118285Y-75909714D01*
X148190857Y-75873428D01*
X148263428Y-75800857D01*
X148299714Y-75692000D01*
X148299714Y-75619428D01*
X148263428Y-75510571D01*
X148227142Y-75474285D01*
X147973142Y-75474285D01*
X147973142Y-75619428D01*
X148299714Y-75147714D02*
X147537714Y-75147714D01*
X148299714Y-74712285D01*
X147537714Y-74712285D01*
X148299714Y-74349428D02*
X147537714Y-74349428D01*
X147537714Y-74168000D01*
X147574000Y-74059142D01*
X147646571Y-73986571D01*
X147719142Y-73950285D01*
X147864285Y-73914000D01*
X147973142Y-73914000D01*
X148118285Y-73950285D01*
X148190857Y-73986571D01*
X148263428Y-74059142D01*
X148299714Y-74168000D01*
X148299714Y-74349428D01*
X142494000Y-75510571D02*
X142457714Y-75583142D01*
X142457714Y-75692000D01*
X142494000Y-75800857D01*
X142566571Y-75873428D01*
X142639142Y-75909714D01*
X142784285Y-75946000D01*
X142893142Y-75946000D01*
X143038285Y-75909714D01*
X143110857Y-75873428D01*
X143183428Y-75800857D01*
X143219714Y-75692000D01*
X143219714Y-75619428D01*
X143183428Y-75510571D01*
X143147142Y-75474285D01*
X142893142Y-75474285D01*
X142893142Y-75619428D01*
X143219714Y-75147714D02*
X142457714Y-75147714D01*
X143219714Y-74712285D01*
X142457714Y-74712285D01*
X143219714Y-74349428D02*
X142457714Y-74349428D01*
X142457714Y-74168000D01*
X142494000Y-74059142D01*
X142566571Y-73986571D01*
X142639142Y-73950285D01*
X142784285Y-73914000D01*
X142893142Y-73914000D01*
X143038285Y-73950285D01*
X143110857Y-73986571D01*
X143183428Y-74059142D01*
X143219714Y-74168000D01*
X143219714Y-74349428D01*
X121539000Y-75510571D02*
X121502714Y-75583142D01*
X121502714Y-75692000D01*
X121539000Y-75800857D01*
X121611571Y-75873428D01*
X121684142Y-75909714D01*
X121829285Y-75946000D01*
X121938142Y-75946000D01*
X122083285Y-75909714D01*
X122155857Y-75873428D01*
X122228428Y-75800857D01*
X122264714Y-75692000D01*
X122264714Y-75619428D01*
X122228428Y-75510571D01*
X122192142Y-75474285D01*
X121938142Y-75474285D01*
X121938142Y-75619428D01*
X122264714Y-75147714D02*
X121502714Y-75147714D01*
X122264714Y-74712285D01*
X121502714Y-74712285D01*
X122264714Y-74349428D02*
X121502714Y-74349428D01*
X121502714Y-74168000D01*
X121539000Y-74059142D01*
X121611571Y-73986571D01*
X121684142Y-73950285D01*
X121829285Y-73914000D01*
X121938142Y-73914000D01*
X122083285Y-73950285D01*
X122155857Y-73986571D01*
X122228428Y-74059142D01*
X122264714Y-74168000D01*
X122264714Y-74349428D01*
X126619000Y-75510571D02*
X126582714Y-75583142D01*
X126582714Y-75692000D01*
X126619000Y-75800857D01*
X126691571Y-75873428D01*
X126764142Y-75909714D01*
X126909285Y-75946000D01*
X127018142Y-75946000D01*
X127163285Y-75909714D01*
X127235857Y-75873428D01*
X127308428Y-75800857D01*
X127344714Y-75692000D01*
X127344714Y-75619428D01*
X127308428Y-75510571D01*
X127272142Y-75474285D01*
X127018142Y-75474285D01*
X127018142Y-75619428D01*
X127344714Y-75147714D02*
X126582714Y-75147714D01*
X127344714Y-74712285D01*
X126582714Y-74712285D01*
X127344714Y-74349428D02*
X126582714Y-74349428D01*
X126582714Y-74168000D01*
X126619000Y-74059142D01*
X126691571Y-73986571D01*
X126764142Y-73950285D01*
X126909285Y-73914000D01*
X127018142Y-73914000D01*
X127163285Y-73950285D01*
X127235857Y-73986571D01*
X127308428Y-74059142D01*
X127344714Y-74168000D01*
X127344714Y-74349428D01*
X121539000Y-90115571D02*
X121502714Y-90188142D01*
X121502714Y-90297000D01*
X121539000Y-90405857D01*
X121611571Y-90478428D01*
X121684142Y-90514714D01*
X121829285Y-90551000D01*
X121938142Y-90551000D01*
X122083285Y-90514714D01*
X122155857Y-90478428D01*
X122228428Y-90405857D01*
X122264714Y-90297000D01*
X122264714Y-90224428D01*
X122228428Y-90115571D01*
X122192142Y-90079285D01*
X121938142Y-90079285D01*
X121938142Y-90224428D01*
X122264714Y-89752714D02*
X121502714Y-89752714D01*
X122264714Y-89317285D01*
X121502714Y-89317285D01*
X122264714Y-88954428D02*
X121502714Y-88954428D01*
X121502714Y-88773000D01*
X121539000Y-88664142D01*
X121611571Y-88591571D01*
X121684142Y-88555285D01*
X121829285Y-88519000D01*
X121938142Y-88519000D01*
X122083285Y-88555285D01*
X122155857Y-88591571D01*
X122228428Y-88664142D01*
X122264714Y-88773000D01*
X122264714Y-88954428D01*
X126619000Y-90115571D02*
X126582714Y-90188142D01*
X126582714Y-90297000D01*
X126619000Y-90405857D01*
X126691571Y-90478428D01*
X126764142Y-90514714D01*
X126909285Y-90551000D01*
X127018142Y-90551000D01*
X127163285Y-90514714D01*
X127235857Y-90478428D01*
X127308428Y-90405857D01*
X127344714Y-90297000D01*
X127344714Y-90224428D01*
X127308428Y-90115571D01*
X127272142Y-90079285D01*
X127018142Y-90079285D01*
X127018142Y-90224428D01*
X127344714Y-89752714D02*
X126582714Y-89752714D01*
X127344714Y-89317285D01*
X126582714Y-89317285D01*
X127344714Y-88954428D02*
X126582714Y-88954428D01*
X126582714Y-88773000D01*
X126619000Y-88664142D01*
X126691571Y-88591571D01*
X126764142Y-88555285D01*
X126909285Y-88519000D01*
X127018142Y-88519000D01*
X127163285Y-88555285D01*
X127235857Y-88591571D01*
X127308428Y-88664142D01*
X127344714Y-88773000D01*
X127344714Y-88954428D01*
X100584000Y-90115571D02*
X100547714Y-90188142D01*
X100547714Y-90297000D01*
X100584000Y-90405857D01*
X100656571Y-90478428D01*
X100729142Y-90514714D01*
X100874285Y-90551000D01*
X100983142Y-90551000D01*
X101128285Y-90514714D01*
X101200857Y-90478428D01*
X101273428Y-90405857D01*
X101309714Y-90297000D01*
X101309714Y-90224428D01*
X101273428Y-90115571D01*
X101237142Y-90079285D01*
X100983142Y-90079285D01*
X100983142Y-90224428D01*
X101309714Y-89752714D02*
X100547714Y-89752714D01*
X101309714Y-89317285D01*
X100547714Y-89317285D01*
X101309714Y-88954428D02*
X100547714Y-88954428D01*
X100547714Y-88773000D01*
X100584000Y-88664142D01*
X100656571Y-88591571D01*
X100729142Y-88555285D01*
X100874285Y-88519000D01*
X100983142Y-88519000D01*
X101128285Y-88555285D01*
X101200857Y-88591571D01*
X101273428Y-88664142D01*
X101309714Y-88773000D01*
X101309714Y-88954428D01*
X105664000Y-90115571D02*
X105627714Y-90188142D01*
X105627714Y-90297000D01*
X105664000Y-90405857D01*
X105736571Y-90478428D01*
X105809142Y-90514714D01*
X105954285Y-90551000D01*
X106063142Y-90551000D01*
X106208285Y-90514714D01*
X106280857Y-90478428D01*
X106353428Y-90405857D01*
X106389714Y-90297000D01*
X106389714Y-90224428D01*
X106353428Y-90115571D01*
X106317142Y-90079285D01*
X106063142Y-90079285D01*
X106063142Y-90224428D01*
X106389714Y-89752714D02*
X105627714Y-89752714D01*
X106389714Y-89317285D01*
X105627714Y-89317285D01*
X106389714Y-88954428D02*
X105627714Y-88954428D01*
X105627714Y-88773000D01*
X105664000Y-88664142D01*
X105736571Y-88591571D01*
X105809142Y-88555285D01*
X105954285Y-88519000D01*
X106063142Y-88519000D01*
X106208285Y-88555285D01*
X106280857Y-88591571D01*
X106353428Y-88664142D01*
X106389714Y-88773000D01*
X106389714Y-88954428D01*
X100584000Y-75510571D02*
X100547714Y-75583142D01*
X100547714Y-75692000D01*
X100584000Y-75800857D01*
X100656571Y-75873428D01*
X100729142Y-75909714D01*
X100874285Y-75946000D01*
X100983142Y-75946000D01*
X101128285Y-75909714D01*
X101200857Y-75873428D01*
X101273428Y-75800857D01*
X101309714Y-75692000D01*
X101309714Y-75619428D01*
X101273428Y-75510571D01*
X101237142Y-75474285D01*
X100983142Y-75474285D01*
X100983142Y-75619428D01*
X101309714Y-75147714D02*
X100547714Y-75147714D01*
X101309714Y-74712285D01*
X100547714Y-74712285D01*
X101309714Y-74349428D02*
X100547714Y-74349428D01*
X100547714Y-74168000D01*
X100584000Y-74059142D01*
X100656571Y-73986571D01*
X100729142Y-73950285D01*
X100874285Y-73914000D01*
X100983142Y-73914000D01*
X101128285Y-73950285D01*
X101200857Y-73986571D01*
X101273428Y-74059142D01*
X101309714Y-74168000D01*
X101309714Y-74349428D01*
X105664000Y-75510571D02*
X105627714Y-75583142D01*
X105627714Y-75692000D01*
X105664000Y-75800857D01*
X105736571Y-75873428D01*
X105809142Y-75909714D01*
X105954285Y-75946000D01*
X106063142Y-75946000D01*
X106208285Y-75909714D01*
X106280857Y-75873428D01*
X106353428Y-75800857D01*
X106389714Y-75692000D01*
X106389714Y-75619428D01*
X106353428Y-75510571D01*
X106317142Y-75474285D01*
X106063142Y-75474285D01*
X106063142Y-75619428D01*
X106389714Y-75147714D02*
X105627714Y-75147714D01*
X106389714Y-74712285D01*
X105627714Y-74712285D01*
X106389714Y-74349428D02*
X105627714Y-74349428D01*
X105627714Y-74168000D01*
X105664000Y-74059142D01*
X105736571Y-73986571D01*
X105809142Y-73950285D01*
X105954285Y-73914000D01*
X106063142Y-73914000D01*
X106208285Y-73950285D01*
X106280857Y-73986571D01*
X106353428Y-74059142D01*
X106389714Y-74168000D01*
X106389714Y-74349428D01*
X97703821Y-90097428D02*
X97703821Y-89843428D01*
X98102964Y-89734571D02*
X98102964Y-90097428D01*
X97340964Y-90097428D01*
X97340964Y-89734571D01*
X98102964Y-89408000D02*
X97340964Y-89408000D01*
X98102964Y-88972571D01*
X97340964Y-88972571D01*
X99146178Y-89825285D02*
X99146178Y-89244714D01*
X97703821Y-75492428D02*
X97703821Y-75238428D01*
X98102964Y-75129571D02*
X98102964Y-75492428D01*
X97340964Y-75492428D01*
X97340964Y-75129571D01*
X98102964Y-74803000D02*
X97340964Y-74803000D01*
X98102964Y-74367571D01*
X97340964Y-74367571D01*
X99146178Y-75220285D02*
X99146178Y-74639714D01*
X99436464Y-74930000D02*
X98855892Y-74930000D01*
X103182964Y-75692000D02*
X102420964Y-75692000D01*
X102420964Y-75510571D01*
X102457250Y-75401714D01*
X102529821Y-75329142D01*
X102602392Y-75292857D01*
X102747535Y-75256571D01*
X102856392Y-75256571D01*
X103001535Y-75292857D01*
X103074107Y-75329142D01*
X103146678Y-75401714D01*
X103182964Y-75510571D01*
X103182964Y-75692000D01*
X103182964Y-74930000D02*
X102420964Y-74930000D01*
X103182964Y-74131714D02*
X102820107Y-74385714D01*
X103182964Y-74567142D02*
X102420964Y-74567142D01*
X102420964Y-74276857D01*
X102457250Y-74204285D01*
X102493535Y-74168000D01*
X102566107Y-74131714D01*
X102674964Y-74131714D01*
X102747535Y-74168000D01*
X102783821Y-74204285D01*
X102820107Y-74276857D01*
X102820107Y-74567142D01*
X104226178Y-75220285D02*
X104226178Y-74639714D01*
X104516464Y-74930000D02*
X103935892Y-74930000D01*
X129181678Y-76163714D02*
X129217964Y-76054857D01*
X129217964Y-75873428D01*
X129181678Y-75800857D01*
X129145392Y-75764571D01*
X129072821Y-75728285D01*
X129000250Y-75728285D01*
X128927678Y-75764571D01*
X128891392Y-75800857D01*
X128855107Y-75873428D01*
X128818821Y-76018571D01*
X128782535Y-76091142D01*
X128746250Y-76127428D01*
X128673678Y-76163714D01*
X128601107Y-76163714D01*
X128528535Y-76127428D01*
X128492250Y-76091142D01*
X128455964Y-76018571D01*
X128455964Y-75837142D01*
X128492250Y-75728285D01*
X128455964Y-75510571D02*
X128455964Y-75075142D01*
X129217964Y-75292857D02*
X128455964Y-75292857D01*
X128818821Y-74821142D02*
X128818821Y-74567142D01*
X129217964Y-74458285D02*
X129217964Y-74821142D01*
X128455964Y-74821142D01*
X128455964Y-74458285D01*
X129217964Y-74131714D02*
X128455964Y-74131714D01*
X128455964Y-73841428D01*
X128492250Y-73768857D01*
X128528535Y-73732571D01*
X128601107Y-73696285D01*
X128709964Y-73696285D01*
X128782535Y-73732571D01*
X128818821Y-73768857D01*
X128855107Y-73841428D01*
X128855107Y-74131714D01*
X130261178Y-75220285D02*
X130261178Y-74639714D01*
X130551464Y-74930000D02*
X129970892Y-74930000D01*
X103182964Y-90297000D02*
X102420964Y-90297000D01*
X102420964Y-90115571D01*
X102457250Y-90006714D01*
X102529821Y-89934142D01*
X102602392Y-89897857D01*
X102747535Y-89861571D01*
X102856392Y-89861571D01*
X103001535Y-89897857D01*
X103074107Y-89934142D01*
X103146678Y-90006714D01*
X103182964Y-90115571D01*
X103182964Y-90297000D01*
X103182964Y-89535000D02*
X102420964Y-89535000D01*
X103182964Y-88736714D02*
X102820107Y-88990714D01*
X103182964Y-89172142D02*
X102420964Y-89172142D01*
X102420964Y-88881857D01*
X102457250Y-88809285D01*
X102493535Y-88773000D01*
X102566107Y-88736714D01*
X102674964Y-88736714D01*
X102747535Y-88773000D01*
X102783821Y-88809285D01*
X102820107Y-88881857D01*
X102820107Y-89172142D01*
X104226178Y-89825285D02*
X104226178Y-89244714D01*
X108226678Y-90768714D02*
X108262964Y-90659857D01*
X108262964Y-90478428D01*
X108226678Y-90405857D01*
X108190392Y-90369571D01*
X108117821Y-90333285D01*
X108045250Y-90333285D01*
X107972678Y-90369571D01*
X107936392Y-90405857D01*
X107900107Y-90478428D01*
X107863821Y-90623571D01*
X107827535Y-90696142D01*
X107791250Y-90732428D01*
X107718678Y-90768714D01*
X107646107Y-90768714D01*
X107573535Y-90732428D01*
X107537250Y-90696142D01*
X107500964Y-90623571D01*
X107500964Y-90442142D01*
X107537250Y-90333285D01*
X107500964Y-90115571D02*
X107500964Y-89680142D01*
X108262964Y-89897857D02*
X107500964Y-89897857D01*
X107863821Y-89426142D02*
X107863821Y-89172142D01*
X108262964Y-89063285D02*
X108262964Y-89426142D01*
X107500964Y-89426142D01*
X107500964Y-89063285D01*
X108262964Y-88736714D02*
X107500964Y-88736714D01*
X107500964Y-88446428D01*
X107537250Y-88373857D01*
X107573535Y-88337571D01*
X107646107Y-88301285D01*
X107754964Y-88301285D01*
X107827535Y-88337571D01*
X107863821Y-88373857D01*
X107900107Y-88446428D01*
X107900107Y-88736714D01*
X109306178Y-89825285D02*
X109306178Y-89244714D01*
X108226678Y-76163714D02*
X108262964Y-76054857D01*
X108262964Y-75873428D01*
X108226678Y-75800857D01*
X108190392Y-75764571D01*
X108117821Y-75728285D01*
X108045250Y-75728285D01*
X107972678Y-75764571D01*
X107936392Y-75800857D01*
X107900107Y-75873428D01*
X107863821Y-76018571D01*
X107827535Y-76091142D01*
X107791250Y-76127428D01*
X107718678Y-76163714D01*
X107646107Y-76163714D01*
X107573535Y-76127428D01*
X107537250Y-76091142D01*
X107500964Y-76018571D01*
X107500964Y-75837142D01*
X107537250Y-75728285D01*
X107500964Y-75510571D02*
X107500964Y-75075142D01*
X108262964Y-75292857D02*
X107500964Y-75292857D01*
X107863821Y-74821142D02*
X107863821Y-74567142D01*
X108262964Y-74458285D02*
X108262964Y-74821142D01*
X107500964Y-74821142D01*
X107500964Y-74458285D01*
X108262964Y-74131714D02*
X107500964Y-74131714D01*
X107500964Y-73841428D01*
X107537250Y-73768857D01*
X107573535Y-73732571D01*
X107646107Y-73696285D01*
X107754964Y-73696285D01*
X107827535Y-73732571D01*
X107863821Y-73768857D01*
X107900107Y-73841428D01*
X107900107Y-74131714D01*
X109306178Y-75220285D02*
X109306178Y-74639714D01*
X109596464Y-74930000D02*
X109015892Y-74930000D01*
D13*
X155575000Y-68580000D02*
X85725000Y-68580000D01*
X155575000Y-109220000D02*
X155575000Y-68580000D01*
X85725000Y-109220000D02*
X155575000Y-109220000D01*
X85725000Y-68580000D02*
X85725000Y-109220000D01*
D12*
X92437857Y-104599619D02*
X92437857Y-103583619D01*
X92873285Y-104599619D02*
X92873285Y-104067428D01*
X92824904Y-103970666D01*
X92728142Y-103922285D01*
X92583000Y-103922285D01*
X92486238Y-103970666D01*
X92437857Y-104019047D01*
X93211952Y-103922285D02*
X93599000Y-103922285D01*
X93357095Y-103583619D02*
X93357095Y-104454476D01*
X93405476Y-104551238D01*
X93502238Y-104599619D01*
X93599000Y-104599619D01*
X93792523Y-103922285D02*
X94179571Y-103922285D01*
X93937666Y-103583619D02*
X93937666Y-104454476D01*
X93986047Y-104551238D01*
X94082809Y-104599619D01*
X94179571Y-104599619D01*
X94518238Y-103922285D02*
X94518238Y-104938285D01*
X94518238Y-103970666D02*
X94615000Y-103922285D01*
X94808523Y-103922285D01*
X94905285Y-103970666D01*
X94953666Y-104019047D01*
X95002047Y-104115809D01*
X95002047Y-104406095D01*
X94953666Y-104502857D01*
X94905285Y-104551238D01*
X94808523Y-104599619D01*
X94615000Y-104599619D01*
X94518238Y-104551238D01*
X95389095Y-104551238D02*
X95485857Y-104599619D01*
X95679380Y-104599619D01*
X95776142Y-104551238D01*
X95824523Y-104454476D01*
X95824523Y-104406095D01*
X95776142Y-104309333D01*
X95679380Y-104260952D01*
X95534238Y-104260952D01*
X95437476Y-104212571D01*
X95389095Y-104115809D01*
X95389095Y-104067428D01*
X95437476Y-103970666D01*
X95534238Y-103922285D01*
X95679380Y-103922285D01*
X95776142Y-103970666D01*
X96259952Y-104502857D02*
X96308333Y-104551238D01*
X96259952Y-104599619D01*
X96211571Y-104551238D01*
X96259952Y-104502857D01*
X96259952Y-104599619D01*
X96259952Y-103970666D02*
X96308333Y-104019047D01*
X96259952Y-104067428D01*
X96211571Y-104019047D01*
X96259952Y-103970666D01*
X96259952Y-104067428D01*
X97469476Y-103535238D02*
X96598619Y-104841523D01*
X98533857Y-103535238D02*
X97663000Y-104841523D01*
X99307952Y-103922285D02*
X99307952Y-104744761D01*
X99259571Y-104841523D01*
X99211190Y-104889904D01*
X99114428Y-104938285D01*
X98969285Y-104938285D01*
X98872523Y-104889904D01*
X99307952Y-104551238D02*
X99211190Y-104599619D01*
X99017666Y-104599619D01*
X98920904Y-104551238D01*
X98872523Y-104502857D01*
X98824142Y-104406095D01*
X98824142Y-104115809D01*
X98872523Y-104019047D01*
X98920904Y-103970666D01*
X99017666Y-103922285D01*
X99211190Y-103922285D01*
X99307952Y-103970666D01*
X99791761Y-104599619D02*
X99791761Y-103922285D01*
X99791761Y-103583619D02*
X99743380Y-103632000D01*
X99791761Y-103680380D01*
X99840142Y-103632000D01*
X99791761Y-103583619D01*
X99791761Y-103680380D01*
X100130428Y-103922285D02*
X100517476Y-103922285D01*
X100275571Y-103583619D02*
X100275571Y-104454476D01*
X100323952Y-104551238D01*
X100420714Y-104599619D01*
X100517476Y-104599619D01*
X100856142Y-104599619D02*
X100856142Y-103583619D01*
X101291571Y-104599619D02*
X101291571Y-104067428D01*
X101243190Y-103970666D01*
X101146428Y-103922285D01*
X101001285Y-103922285D01*
X100904523Y-103970666D01*
X100856142Y-104019047D01*
X102210809Y-103922285D02*
X102210809Y-104599619D01*
X101775380Y-103922285D02*
X101775380Y-104454476D01*
X101823761Y-104551238D01*
X101920523Y-104599619D01*
X102065666Y-104599619D01*
X102162428Y-104551238D01*
X102210809Y-104502857D01*
X102694619Y-104599619D02*
X102694619Y-103583619D01*
X102694619Y-103970666D02*
X102791380Y-103922285D01*
X102984904Y-103922285D01*
X103081666Y-103970666D01*
X103130047Y-104019047D01*
X103178428Y-104115809D01*
X103178428Y-104406095D01*
X103130047Y-104502857D01*
X103081666Y-104551238D01*
X102984904Y-104599619D01*
X102791380Y-104599619D01*
X102694619Y-104551238D01*
X103613857Y-104502857D02*
X103662238Y-104551238D01*
X103613857Y-104599619D01*
X103565476Y-104551238D01*
X103613857Y-104502857D01*
X103613857Y-104599619D01*
X104533095Y-104551238D02*
X104436333Y-104599619D01*
X104242809Y-104599619D01*
X104146047Y-104551238D01*
X104097666Y-104502857D01*
X104049285Y-104406095D01*
X104049285Y-104115809D01*
X104097666Y-104019047D01*
X104146047Y-103970666D01*
X104242809Y-103922285D01*
X104436333Y-103922285D01*
X104533095Y-103970666D01*
X105113666Y-104599619D02*
X105016904Y-104551238D01*
X104968523Y-104502857D01*
X104920142Y-104406095D01*
X104920142Y-104115809D01*
X104968523Y-104019047D01*
X105016904Y-103970666D01*
X105113666Y-103922285D01*
X105258809Y-103922285D01*
X105355571Y-103970666D01*
X105403952Y-104019047D01*
X105452333Y-104115809D01*
X105452333Y-104406095D01*
X105403952Y-104502857D01*
X105355571Y-104551238D01*
X105258809Y-104599619D01*
X105113666Y-104599619D01*
X105887761Y-104599619D02*
X105887761Y-103922285D01*
X105887761Y-104019047D02*
X105936142Y-103970666D01*
X106032904Y-103922285D01*
X106178047Y-103922285D01*
X106274809Y-103970666D01*
X106323190Y-104067428D01*
X106323190Y-104599619D01*
X106323190Y-104067428D02*
X106371571Y-103970666D01*
X106468333Y-103922285D01*
X106613476Y-103922285D01*
X106710238Y-103970666D01*
X106758619Y-104067428D01*
X106758619Y-104599619D01*
X107968142Y-103535238D02*
X107097285Y-104841523D01*
X108306809Y-103922285D02*
X108306809Y-104793142D01*
X108258428Y-104889904D01*
X108161666Y-104938285D01*
X108113285Y-104938285D01*
X108306809Y-103583619D02*
X108258428Y-103632000D01*
X108306809Y-103680380D01*
X108355190Y-103632000D01*
X108306809Y-103583619D01*
X108306809Y-103680380D01*
X109226047Y-104599619D02*
X109226047Y-104067428D01*
X109177666Y-103970666D01*
X109080904Y-103922285D01*
X108887380Y-103922285D01*
X108790619Y-103970666D01*
X109226047Y-104551238D02*
X109129285Y-104599619D01*
X108887380Y-104599619D01*
X108790619Y-104551238D01*
X108742238Y-104454476D01*
X108742238Y-104357714D01*
X108790619Y-104260952D01*
X108887380Y-104212571D01*
X109129285Y-104212571D01*
X109226047Y-104164190D01*
X109709857Y-103922285D02*
X109709857Y-104599619D01*
X109709857Y-104019047D02*
X109758238Y-103970666D01*
X109855000Y-103922285D01*
X110000142Y-103922285D01*
X110096904Y-103970666D01*
X110145285Y-104067428D01*
X110145285Y-104599619D01*
X111016142Y-104551238D02*
X110919380Y-104599619D01*
X110725857Y-104599619D01*
X110629095Y-104551238D01*
X110580714Y-104454476D01*
X110580714Y-104067428D01*
X110629095Y-103970666D01*
X110725857Y-103922285D01*
X110919380Y-103922285D01*
X111016142Y-103970666D01*
X111064523Y-104067428D01*
X111064523Y-104164190D01*
X110580714Y-104260952D01*
X111645095Y-104599619D02*
X111548333Y-104551238D01*
X111499952Y-104454476D01*
X111499952Y-103583619D01*
X112032142Y-104599619D02*
X112032142Y-103922285D01*
X112032142Y-103583619D02*
X111983761Y-103632000D01*
X112032142Y-103680380D01*
X112080523Y-103632000D01*
X112032142Y-103583619D01*
X112032142Y-103680380D01*
X112951380Y-104599619D02*
X112951380Y-104067428D01*
X112903000Y-103970666D01*
X112806238Y-103922285D01*
X112612714Y-103922285D01*
X112515952Y-103970666D01*
X112951380Y-104551238D02*
X112854619Y-104599619D01*
X112612714Y-104599619D01*
X112515952Y-104551238D01*
X112467571Y-104454476D01*
X112467571Y-104357714D01*
X112515952Y-104260952D01*
X112612714Y-104212571D01*
X112854619Y-104212571D01*
X112951380Y-104164190D01*
X113435190Y-104212571D02*
X114209285Y-104212571D01*
X114693095Y-104599619D02*
X114693095Y-103922285D01*
X114693095Y-104019047D02*
X114741476Y-103970666D01*
X114838238Y-103922285D01*
X114983380Y-103922285D01*
X115080142Y-103970666D01*
X115128523Y-104067428D01*
X115128523Y-104599619D01*
X115128523Y-104067428D02*
X115176904Y-103970666D01*
X115273666Y-103922285D01*
X115418809Y-103922285D01*
X115515571Y-103970666D01*
X115563952Y-104067428D01*
X115563952Y-104599619D01*
X116192904Y-104599619D02*
X116096142Y-104551238D01*
X116047761Y-104502857D01*
X115999380Y-104406095D01*
X115999380Y-104115809D01*
X116047761Y-104019047D01*
X116096142Y-103970666D01*
X116192904Y-103922285D01*
X116338047Y-103922285D01*
X116434809Y-103970666D01*
X116483190Y-104019047D01*
X116531571Y-104115809D01*
X116531571Y-104406095D01*
X116483190Y-104502857D01*
X116434809Y-104551238D01*
X116338047Y-104599619D01*
X116192904Y-104599619D01*
X117402428Y-104599619D02*
X117402428Y-103583619D01*
X117402428Y-104551238D02*
X117305666Y-104599619D01*
X117112142Y-104599619D01*
X117015380Y-104551238D01*
X116967000Y-104502857D01*
X116918619Y-104406095D01*
X116918619Y-104115809D01*
X116967000Y-104019047D01*
X117015380Y-103970666D01*
X117112142Y-103922285D01*
X117305666Y-103922285D01*
X117402428Y-103970666D01*
X118321666Y-103922285D02*
X118321666Y-104599619D01*
X117886238Y-103922285D02*
X117886238Y-104454476D01*
X117934619Y-104551238D01*
X118031380Y-104599619D01*
X118176523Y-104599619D01*
X118273285Y-104551238D01*
X118321666Y-104502857D01*
X118950619Y-104599619D02*
X118853857Y-104551238D01*
X118805476Y-104454476D01*
X118805476Y-103583619D01*
X119773095Y-104599619D02*
X119773095Y-104067428D01*
X119724714Y-103970666D01*
X119627952Y-103922285D01*
X119434428Y-103922285D01*
X119337666Y-103970666D01*
X119773095Y-104551238D02*
X119676333Y-104599619D01*
X119434428Y-104599619D01*
X119337666Y-104551238D01*
X119289285Y-104454476D01*
X119289285Y-104357714D01*
X119337666Y-104260952D01*
X119434428Y-104212571D01*
X119676333Y-104212571D01*
X119773095Y-104164190D01*
X120256904Y-104599619D02*
X120256904Y-103922285D01*
X120256904Y-104115809D02*
X120305285Y-104019047D01*
X120353666Y-103970666D01*
X120450428Y-103922285D01*
X120547190Y-103922285D01*
X120885857Y-104212571D02*
X121659952Y-104212571D01*
X122579190Y-104599619D02*
X122579190Y-103583619D01*
X122579190Y-104551238D02*
X122482428Y-104599619D01*
X122288904Y-104599619D01*
X122192142Y-104551238D01*
X122143761Y-104502857D01*
X122095380Y-104406095D01*
X122095380Y-104115809D01*
X122143761Y-104019047D01*
X122192142Y-103970666D01*
X122288904Y-103922285D01*
X122482428Y-103922285D01*
X122579190Y-103970666D01*
X123450047Y-104551238D02*
X123353285Y-104599619D01*
X123159761Y-104599619D01*
X123063000Y-104551238D01*
X123014619Y-104454476D01*
X123014619Y-104067428D01*
X123063000Y-103970666D01*
X123159761Y-103922285D01*
X123353285Y-103922285D01*
X123450047Y-103970666D01*
X123498428Y-104067428D01*
X123498428Y-104164190D01*
X123014619Y-104260952D01*
X123837095Y-103922285D02*
X124079000Y-104599619D01*
X124320904Y-103922285D01*
X124707952Y-104599619D02*
X124707952Y-103922285D01*
X124707952Y-103583619D02*
X124659571Y-103632000D01*
X124707952Y-103680380D01*
X124756333Y-103632000D01*
X124707952Y-103583619D01*
X124707952Y-103680380D01*
X125627190Y-104551238D02*
X125530428Y-104599619D01*
X125336904Y-104599619D01*
X125240142Y-104551238D01*
X125191761Y-104502857D01*
X125143380Y-104406095D01*
X125143380Y-104115809D01*
X125191761Y-104019047D01*
X125240142Y-103970666D01*
X125336904Y-103922285D01*
X125530428Y-103922285D01*
X125627190Y-103970666D01*
X126449666Y-104551238D02*
X126352904Y-104599619D01*
X126159380Y-104599619D01*
X126062619Y-104551238D01*
X126014238Y-104454476D01*
X126014238Y-104067428D01*
X126062619Y-103970666D01*
X126159380Y-103922285D01*
X126352904Y-103922285D01*
X126449666Y-103970666D01*
X126498047Y-104067428D01*
X126498047Y-104164190D01*
X126014238Y-104260952D01*
X126885095Y-104551238D02*
X126981857Y-104599619D01*
X127175380Y-104599619D01*
X127272142Y-104551238D01*
X127320523Y-104454476D01*
X127320523Y-104406095D01*
X127272142Y-104309333D01*
X127175380Y-104260952D01*
X127030238Y-104260952D01*
X126933476Y-104212571D01*
X126885095Y-104115809D01*
X126885095Y-104067428D01*
X126933476Y-103970666D01*
X127030238Y-103922285D01*
X127175380Y-103922285D01*
X127272142Y-103970666D01*
D14*
X86311619Y-97294095D02*
X87037333Y-97294095D01*
X87182476Y-97342476D01*
X87279238Y-97439238D01*
X87327619Y-97584380D01*
X87327619Y-97681142D01*
X87327619Y-96374857D02*
X86795428Y-96374857D01*
X86698666Y-96423238D01*
X86650285Y-96520000D01*
X86650285Y-96713523D01*
X86698666Y-96810285D01*
X87279238Y-96374857D02*
X87327619Y-96471619D01*
X87327619Y-96713523D01*
X87279238Y-96810285D01*
X87182476Y-96858666D01*
X87085714Y-96858666D01*
X86988952Y-96810285D01*
X86940571Y-96713523D01*
X86940571Y-96471619D01*
X86892190Y-96374857D01*
X86650285Y-95891047D02*
X87327619Y-95891047D01*
X86747047Y-95891047D02*
X86698666Y-95842666D01*
X86650285Y-95745904D01*
X86650285Y-95600761D01*
X86698666Y-95504000D01*
X86795428Y-95455619D01*
X87327619Y-95455619D01*
X87279238Y-94584761D02*
X87327619Y-94681523D01*
X87327619Y-94875047D01*
X87279238Y-94971809D01*
X87182476Y-95020190D01*
X86795428Y-95020190D01*
X86698666Y-94971809D01*
X86650285Y-94875047D01*
X86650285Y-94681523D01*
X86698666Y-94584761D01*
X86795428Y-94536380D01*
X86892190Y-94536380D01*
X86988952Y-95020190D01*
X87327619Y-93955809D02*
X87279238Y-94052571D01*
X87182476Y-94100952D01*
X86311619Y-94100952D01*
X87327619Y-93568761D02*
X86650285Y-93568761D01*
X86311619Y-93568761D02*
X86360000Y-93617142D01*
X86408380Y-93568761D01*
X86360000Y-93520380D01*
X86311619Y-93568761D01*
X86408380Y-93568761D01*
X87327619Y-92649523D02*
X86795428Y-92649523D01*
X86698666Y-92697904D01*
X86650285Y-92794666D01*
X86650285Y-92988190D01*
X86698666Y-93084952D01*
X87279238Y-92649523D02*
X87327619Y-92746285D01*
X87327619Y-92988190D01*
X87279238Y-93084952D01*
X87182476Y-93133333D01*
X87085714Y-93133333D01*
X86988952Y-93084952D01*
X86940571Y-92988190D01*
X86940571Y-92746285D01*
X86892190Y-92649523D01*
X87327619Y-91391619D02*
X86311619Y-91391619D01*
X87037333Y-91052952D01*
X86311619Y-90714285D01*
X87327619Y-90714285D01*
X87327619Y-90085333D02*
X87279238Y-90182095D01*
X87230857Y-90230476D01*
X87134095Y-90278857D01*
X86843809Y-90278857D01*
X86747047Y-90230476D01*
X86698666Y-90182095D01*
X86650285Y-90085333D01*
X86650285Y-89940190D01*
X86698666Y-89843428D01*
X86747047Y-89795047D01*
X86843809Y-89746666D01*
X87134095Y-89746666D01*
X87230857Y-89795047D01*
X87279238Y-89843428D01*
X87327619Y-89940190D01*
X87327619Y-90085333D01*
X87327619Y-88875809D02*
X86311619Y-88875809D01*
X87279238Y-88875809D02*
X87327619Y-88972571D01*
X87327619Y-89166095D01*
X87279238Y-89262857D01*
X87230857Y-89311238D01*
X87134095Y-89359619D01*
X86843809Y-89359619D01*
X86747047Y-89311238D01*
X86698666Y-89262857D01*
X86650285Y-89166095D01*
X86650285Y-88972571D01*
X86698666Y-88875809D01*
X86650285Y-87956571D02*
X87327619Y-87956571D01*
X86650285Y-88392000D02*
X87182476Y-88392000D01*
X87279238Y-88343619D01*
X87327619Y-88246857D01*
X87327619Y-88101714D01*
X87279238Y-88004952D01*
X87230857Y-87956571D01*
X87327619Y-87327619D02*
X87279238Y-87424380D01*
X87182476Y-87472761D01*
X86311619Y-87472761D01*
X87327619Y-86505142D02*
X86795428Y-86505142D01*
X86698666Y-86553523D01*
X86650285Y-86650285D01*
X86650285Y-86843809D01*
X86698666Y-86940571D01*
X87279238Y-86505142D02*
X87327619Y-86601904D01*
X87327619Y-86843809D01*
X87279238Y-86940571D01*
X87182476Y-86988952D01*
X87085714Y-86988952D01*
X86988952Y-86940571D01*
X86940571Y-86843809D01*
X86940571Y-86601904D01*
X86892190Y-86505142D01*
X87327619Y-86021333D02*
X86650285Y-86021333D01*
X86843809Y-86021333D02*
X86747047Y-85972952D01*
X86698666Y-85924571D01*
X86650285Y-85827809D01*
X86650285Y-85731047D01*
X87327619Y-84618285D02*
X86311619Y-84618285D01*
X86311619Y-84376380D01*
X86360000Y-84231238D01*
X86456761Y-84134476D01*
X86553523Y-84086095D01*
X86747047Y-84037714D01*
X86892190Y-84037714D01*
X87085714Y-84086095D01*
X87182476Y-84134476D01*
X87279238Y-84231238D01*
X87327619Y-84376380D01*
X87327619Y-84618285D01*
X87279238Y-83215238D02*
X87327619Y-83312000D01*
X87327619Y-83505523D01*
X87279238Y-83602285D01*
X87182476Y-83650666D01*
X86795428Y-83650666D01*
X86698666Y-83602285D01*
X86650285Y-83505523D01*
X86650285Y-83312000D01*
X86698666Y-83215238D01*
X86795428Y-83166857D01*
X86892190Y-83166857D01*
X86988952Y-83650666D01*
X86650285Y-82828190D02*
X87327619Y-82586285D01*
X86650285Y-82344380D01*
X87327619Y-81957333D02*
X86650285Y-81957333D01*
X86311619Y-81957333D02*
X86360000Y-82005714D01*
X86408380Y-81957333D01*
X86360000Y-81908952D01*
X86311619Y-81957333D01*
X86408380Y-81957333D01*
X87279238Y-81038095D02*
X87327619Y-81134857D01*
X87327619Y-81328380D01*
X87279238Y-81425142D01*
X87230857Y-81473523D01*
X87134095Y-81521904D01*
X86843809Y-81521904D01*
X86747047Y-81473523D01*
X86698666Y-81425142D01*
X86650285Y-81328380D01*
X86650285Y-81134857D01*
X86698666Y-81038095D01*
X87279238Y-80215619D02*
X87327619Y-80312380D01*
X87327619Y-80505904D01*
X87279238Y-80602666D01*
X87182476Y-80651047D01*
X86795428Y-80651047D01*
X86698666Y-80602666D01*
X86650285Y-80505904D01*
X86650285Y-80312380D01*
X86698666Y-80215619D01*
X86795428Y-80167238D01*
X86892190Y-80167238D01*
X86988952Y-80651047D01*
X89057238Y-95794285D02*
X89105619Y-95697523D01*
X89105619Y-95504000D01*
X89057238Y-95407238D01*
X88960476Y-95358857D01*
X88912095Y-95358857D01*
X88815333Y-95407238D01*
X88766952Y-95504000D01*
X88766952Y-95649142D01*
X88718571Y-95745904D01*
X88621809Y-95794285D01*
X88573428Y-95794285D01*
X88476666Y-95745904D01*
X88428285Y-95649142D01*
X88428285Y-95504000D01*
X88476666Y-95407238D01*
X88428285Y-95068571D02*
X88428285Y-94681523D01*
X88089619Y-94923428D02*
X88960476Y-94923428D01*
X89057238Y-94875047D01*
X89105619Y-94778285D01*
X89105619Y-94681523D01*
X89057238Y-93955809D02*
X89105619Y-94052571D01*
X89105619Y-94246095D01*
X89057238Y-94342857D01*
X88960476Y-94391238D01*
X88573428Y-94391238D01*
X88476666Y-94342857D01*
X88428285Y-94246095D01*
X88428285Y-94052571D01*
X88476666Y-93955809D01*
X88573428Y-93907428D01*
X88670190Y-93907428D01*
X88766952Y-94391238D01*
X88428285Y-93472000D02*
X89444285Y-93472000D01*
X88476666Y-93472000D02*
X88428285Y-93375238D01*
X88428285Y-93181714D01*
X88476666Y-93084952D01*
X88525047Y-93036571D01*
X88621809Y-92988190D01*
X88912095Y-92988190D01*
X89008857Y-93036571D01*
X89057238Y-93084952D01*
X89105619Y-93181714D01*
X89105619Y-93375238D01*
X89057238Y-93472000D01*
X89202380Y-92794666D02*
X89202380Y-92020571D01*
X89105619Y-91343238D02*
X88089619Y-91343238D01*
X89057238Y-91343238D02*
X89105619Y-91440000D01*
X89105619Y-91633523D01*
X89057238Y-91730285D01*
X89008857Y-91778666D01*
X88912095Y-91827047D01*
X88621809Y-91827047D01*
X88525047Y-91778666D01*
X88476666Y-91730285D01*
X88428285Y-91633523D01*
X88428285Y-91440000D01*
X88476666Y-91343238D01*
X89105619Y-90859428D02*
X88428285Y-90859428D01*
X88089619Y-90859428D02*
X88138000Y-90907809D01*
X88186380Y-90859428D01*
X88138000Y-90811047D01*
X88089619Y-90859428D01*
X88186380Y-90859428D01*
X89105619Y-90375619D02*
X88428285Y-90375619D01*
X88621809Y-90375619D02*
X88525047Y-90327238D01*
X88476666Y-90278857D01*
X88428285Y-90182095D01*
X88428285Y-90085333D01*
X89202380Y-89988571D02*
X89202380Y-89214476D01*
X89057238Y-88537142D02*
X89105619Y-88633904D01*
X89105619Y-88827428D01*
X89057238Y-88924190D01*
X89008857Y-88972571D01*
X88912095Y-89020952D01*
X88621809Y-89020952D01*
X88525047Y-88972571D01*
X88476666Y-88924190D01*
X88428285Y-88827428D01*
X88428285Y-88633904D01*
X88476666Y-88537142D01*
X89105619Y-87956571D02*
X89057238Y-88053333D01*
X89008857Y-88101714D01*
X88912095Y-88150095D01*
X88621809Y-88150095D01*
X88525047Y-88101714D01*
X88476666Y-88053333D01*
X88428285Y-87956571D01*
X88428285Y-87811428D01*
X88476666Y-87714666D01*
X88525047Y-87666285D01*
X88621809Y-87617904D01*
X88912095Y-87617904D01*
X89008857Y-87666285D01*
X89057238Y-87714666D01*
X89105619Y-87811428D01*
X89105619Y-87956571D01*
X88428285Y-87182476D02*
X89105619Y-87182476D01*
X88525047Y-87182476D02*
X88476666Y-87134095D01*
X88428285Y-87037333D01*
X88428285Y-86892190D01*
X88476666Y-86795428D01*
X88573428Y-86747047D01*
X89105619Y-86747047D01*
X88428285Y-86408380D02*
X88428285Y-86021333D01*
X88089619Y-86263238D02*
X88960476Y-86263238D01*
X89057238Y-86214857D01*
X89105619Y-86118095D01*
X89105619Y-86021333D01*
X89105619Y-85682666D02*
X88428285Y-85682666D01*
X88621809Y-85682666D02*
X88525047Y-85634285D01*
X88476666Y-85585904D01*
X88428285Y-85489142D01*
X88428285Y-85392380D01*
X89105619Y-84908571D02*
X89057238Y-85005333D01*
X89008857Y-85053714D01*
X88912095Y-85102095D01*
X88621809Y-85102095D01*
X88525047Y-85053714D01*
X88476666Y-85005333D01*
X88428285Y-84908571D01*
X88428285Y-84763428D01*
X88476666Y-84666666D01*
X88525047Y-84618285D01*
X88621809Y-84569904D01*
X88912095Y-84569904D01*
X89008857Y-84618285D01*
X89057238Y-84666666D01*
X89105619Y-84763428D01*
X89105619Y-84908571D01*
X89105619Y-83989333D02*
X89057238Y-84086095D01*
X88960476Y-84134476D01*
X88089619Y-84134476D01*
X89105619Y-83457142D02*
X89057238Y-83553904D01*
X88960476Y-83602285D01*
X88089619Y-83602285D01*
X89057238Y-82683047D02*
X89105619Y-82779809D01*
X89105619Y-82973333D01*
X89057238Y-83070095D01*
X88960476Y-83118476D01*
X88573428Y-83118476D01*
X88476666Y-83070095D01*
X88428285Y-82973333D01*
X88428285Y-82779809D01*
X88476666Y-82683047D01*
X88573428Y-82634666D01*
X88670190Y-82634666D01*
X88766952Y-83118476D01*
X89105619Y-82199238D02*
X88428285Y-82199238D01*
X88621809Y-82199238D02*
X88525047Y-82150857D01*
X88476666Y-82102476D01*
X88428285Y-82005714D01*
X88428285Y-81908952D01*
X90206285Y-95939428D02*
X91222285Y-95939428D01*
X90254666Y-95939428D02*
X90206285Y-95842666D01*
X90206285Y-95649142D01*
X90254666Y-95552380D01*
X90303047Y-95504000D01*
X90399809Y-95455619D01*
X90690095Y-95455619D01*
X90786857Y-95504000D01*
X90835238Y-95552380D01*
X90883619Y-95649142D01*
X90883619Y-95842666D01*
X90835238Y-95939428D01*
X90883619Y-94584761D02*
X90351428Y-94584761D01*
X90254666Y-94633142D01*
X90206285Y-94729904D01*
X90206285Y-94923428D01*
X90254666Y-95020190D01*
X90835238Y-94584761D02*
X90883619Y-94681523D01*
X90883619Y-94923428D01*
X90835238Y-95020190D01*
X90738476Y-95068571D01*
X90641714Y-95068571D01*
X90544952Y-95020190D01*
X90496571Y-94923428D01*
X90496571Y-94681523D01*
X90448190Y-94584761D01*
X90883619Y-94100952D02*
X90206285Y-94100952D01*
X90399809Y-94100952D02*
X90303047Y-94052571D01*
X90254666Y-94004190D01*
X90206285Y-93907428D01*
X90206285Y-93810666D01*
X90206285Y-93617142D02*
X90206285Y-93230095D01*
X89867619Y-93472000D02*
X90738476Y-93472000D01*
X90835238Y-93423619D01*
X90883619Y-93326857D01*
X90883619Y-93230095D01*
X90980380Y-93133333D02*
X90980380Y-92359238D01*
X90206285Y-92117333D02*
X90883619Y-92117333D01*
X90303047Y-92117333D02*
X90254666Y-92068952D01*
X90206285Y-91972190D01*
X90206285Y-91827047D01*
X90254666Y-91730285D01*
X90351428Y-91681904D01*
X90883619Y-91681904D01*
X90206285Y-90762666D02*
X90883619Y-90762666D01*
X90206285Y-91198095D02*
X90738476Y-91198095D01*
X90835238Y-91149714D01*
X90883619Y-91052952D01*
X90883619Y-90907809D01*
X90835238Y-90811047D01*
X90786857Y-90762666D01*
X90883619Y-90278857D02*
X90206285Y-90278857D01*
X90303047Y-90278857D02*
X90254666Y-90230476D01*
X90206285Y-90133714D01*
X90206285Y-89988571D01*
X90254666Y-89891809D01*
X90351428Y-89843428D01*
X90883619Y-89843428D01*
X90351428Y-89843428D02*
X90254666Y-89795047D01*
X90206285Y-89698285D01*
X90206285Y-89553142D01*
X90254666Y-89456380D01*
X90351428Y-89408000D01*
X90883619Y-89408000D01*
X90883619Y-88924190D02*
X89867619Y-88924190D01*
X90254666Y-88924190D02*
X90206285Y-88827428D01*
X90206285Y-88633904D01*
X90254666Y-88537142D01*
X90303047Y-88488761D01*
X90399809Y-88440380D01*
X90690095Y-88440380D01*
X90786857Y-88488761D01*
X90835238Y-88537142D01*
X90883619Y-88633904D01*
X90883619Y-88827428D01*
X90835238Y-88924190D01*
X90835238Y-87617904D02*
X90883619Y-87714666D01*
X90883619Y-87908190D01*
X90835238Y-88004952D01*
X90738476Y-88053333D01*
X90351428Y-88053333D01*
X90254666Y-88004952D01*
X90206285Y-87908190D01*
X90206285Y-87714666D01*
X90254666Y-87617904D01*
X90351428Y-87569523D01*
X90448190Y-87569523D01*
X90544952Y-88053333D01*
X90883619Y-87134095D02*
X90206285Y-87134095D01*
X90399809Y-87134095D02*
X90303047Y-87085714D01*
X90254666Y-87037333D01*
X90206285Y-86940571D01*
X90206285Y-86843809D01*
X90786857Y-86505142D02*
X90835238Y-86456761D01*
X90883619Y-86505142D01*
X90835238Y-86553523D01*
X90786857Y-86505142D01*
X90883619Y-86505142D01*
X90254666Y-86505142D02*
X90303047Y-86456761D01*
X90351428Y-86505142D01*
X90303047Y-86553523D01*
X90254666Y-86505142D01*
X90351428Y-86505142D01*
X90883619Y-84715047D02*
X90883619Y-85295619D01*
X90883619Y-85005333D02*
X89867619Y-85005333D01*
X90012761Y-85102095D01*
X90109523Y-85198857D01*
X90157904Y-85295619D01*
X89964380Y-84328000D02*
X89916000Y-84279619D01*
X89867619Y-84182857D01*
X89867619Y-83940952D01*
X89916000Y-83844190D01*
X89964380Y-83795809D01*
X90061142Y-83747428D01*
X90157904Y-83747428D01*
X90303047Y-83795809D01*
X90883619Y-84376380D01*
X90883619Y-83747428D01*
X90206285Y-82876571D02*
X90883619Y-82876571D01*
X89819238Y-83118476D02*
X90544952Y-83360380D01*
X90544952Y-82731428D01*
X90883619Y-81812190D02*
X90883619Y-82392761D01*
X90883619Y-82102476D02*
X89867619Y-82102476D01*
X90012761Y-82199238D01*
X90109523Y-82295999D01*
X90157904Y-82392761D01*
X91645619Y-96786095D02*
X91645619Y-96689333D01*
X91694000Y-96592571D01*
X91742380Y-96544190D01*
X91839142Y-96495809D01*
X92032666Y-96447428D01*
X92274571Y-96447428D01*
X92468095Y-96495809D01*
X92564857Y-96544190D01*
X92613238Y-96592571D01*
X92661619Y-96689333D01*
X92661619Y-96786095D01*
X92613238Y-96882857D01*
X92564857Y-96931238D01*
X92468095Y-96979619D01*
X92274571Y-97028000D01*
X92032666Y-97028000D01*
X91839142Y-96979619D01*
X91742380Y-96931238D01*
X91694000Y-96882857D01*
X91645619Y-96786095D01*
X91645619Y-96108761D02*
X91645619Y-95479809D01*
X92032666Y-95818476D01*
X92032666Y-95673333D01*
X92081047Y-95576571D01*
X92129428Y-95528190D01*
X92226190Y-95479809D01*
X92468095Y-95479809D01*
X92564857Y-95528190D01*
X92613238Y-95576571D01*
X92661619Y-95673333D01*
X92661619Y-95963619D01*
X92613238Y-96060380D01*
X92564857Y-96108761D01*
X91597238Y-94318666D02*
X92903523Y-95189523D01*
X91742380Y-94028380D02*
X91694000Y-93980000D01*
X91645619Y-93883238D01*
X91645619Y-93641333D01*
X91694000Y-93544571D01*
X91742380Y-93496190D01*
X91839142Y-93447809D01*
X91935904Y-93447809D01*
X92081047Y-93496190D01*
X92661619Y-94076761D01*
X92661619Y-93447809D01*
X91645619Y-92818857D02*
X91645619Y-92722095D01*
X91694000Y-92625333D01*
X91742380Y-92576952D01*
X91839142Y-92528571D01*
X92032666Y-92480190D01*
X92274571Y-92480190D01*
X92468095Y-92528571D01*
X92564857Y-92576952D01*
X92613238Y-92625333D01*
X92661619Y-92722095D01*
X92661619Y-92818857D01*
X92613238Y-92915619D01*
X92564857Y-92964000D01*
X92468095Y-93012380D01*
X92274571Y-93060761D01*
X92032666Y-93060761D01*
X91839142Y-93012380D01*
X91742380Y-92964000D01*
X91694000Y-92915619D01*
X91645619Y-92818857D01*
X92661619Y-91512571D02*
X92661619Y-92093142D01*
X92661619Y-91802857D02*
X91645619Y-91802857D01*
X91790761Y-91899619D01*
X91887523Y-91996380D01*
X91935904Y-92093142D01*
X91645619Y-91173904D02*
X91645619Y-90496571D01*
X92661619Y-90932000D01*
X91984285Y-89432190D02*
X92661619Y-89190285D01*
X91984285Y-88948380D01*
X92613238Y-88174285D02*
X92661619Y-88271047D01*
X92661619Y-88464571D01*
X92613238Y-88561333D01*
X92516476Y-88609714D01*
X92129428Y-88609714D01*
X92032666Y-88561333D01*
X91984285Y-88464571D01*
X91984285Y-88271047D01*
X92032666Y-88174285D01*
X92129428Y-88125904D01*
X92226190Y-88125904D01*
X92322952Y-88609714D01*
X92661619Y-87690476D02*
X91984285Y-87690476D01*
X92177809Y-87690476D02*
X92081047Y-87642095D01*
X92032666Y-87593714D01*
X91984285Y-87496952D01*
X91984285Y-87400190D01*
X92661619Y-85755238D02*
X92661619Y-86335809D01*
X92661619Y-86045523D02*
X91645619Y-86045523D01*
X91790761Y-86142285D01*
X91887523Y-86239047D01*
X91935904Y-86335809D01*
X92564857Y-85319809D02*
X92613238Y-85271428D01*
X92661619Y-85319809D01*
X92613238Y-85368190D01*
X92564857Y-85319809D01*
X92661619Y-85319809D01*
X91645619Y-84642476D02*
X91645619Y-84545714D01*
X91694000Y-84448952D01*
X91742380Y-84400571D01*
X91839142Y-84352190D01*
X92032666Y-84303809D01*
X92274571Y-84303809D01*
X92468095Y-84352190D01*
X92564857Y-84400571D01*
X92613238Y-84448952D01*
X92661619Y-84545714D01*
X92661619Y-84642476D01*
X92613238Y-84739238D01*
X92564857Y-84787619D01*
X92468095Y-84836000D01*
X92274571Y-84884380D01*
X92032666Y-84884380D01*
X91839142Y-84836000D01*
X91742380Y-84787619D01*
X91694000Y-84739238D01*
X91645619Y-84642476D01*
X91645619Y-83191047D02*
X91645619Y-82562095D01*
X92032666Y-82900761D01*
X92032666Y-82755619D01*
X92081047Y-82658857D01*
X92129428Y-82610476D01*
X92226190Y-82562095D01*
X92468095Y-82562095D01*
X92564857Y-82610476D01*
X92613238Y-82658857D01*
X92661619Y-82755619D01*
X92661619Y-83045904D01*
X92613238Y-83142666D01*
X92564857Y-83191047D01*
X92661619Y-82223428D02*
X91984285Y-81691238D01*
X91984285Y-82223428D02*
X92661619Y-81691238D01*
X91742380Y-81352571D02*
X91694000Y-81304190D01*
X91645619Y-81207428D01*
X91645619Y-80965523D01*
X91694000Y-80868761D01*
X91742380Y-80820380D01*
X91839142Y-80772000D01*
X91935904Y-80772000D01*
X92081047Y-80820380D01*
X92661619Y-81400952D01*
X92661619Y-80772000D01*
D13*
X92075000Y-76200000D02*
G75*
G03X92075000Y-76200000I-2540000J0D01*
G01*
X92075000Y-101600000D02*
G75*
G03X92075000Y-101600000I-2540000J0D01*
G01*
X132715000Y-106680000D02*
G75*
G03X132715000Y-106680000I-2540000J0D01*
G01*
X132715000Y-71120000D02*
G75*
G03X132715000Y-71120000I-2540000J0D01*
G01*
D15*
X95805000Y-101425000D02*
X111205000Y-101425000D01*
X95805000Y-101425000D02*
X95805000Y-94175000D01*
X95805000Y-94175000D02*
X111205000Y-94175000D01*
X111205000Y-101425000D02*
X111205000Y-94175000D01*
X103255000Y-100925000D02*
X103255000Y-95925000D01*
X103755000Y-100925000D02*
X103755000Y-95925000D01*
X99755000Y-100925000D02*
X99755000Y-95925000D01*
X100255000Y-100925000D02*
X100255000Y-95925000D01*
X106755000Y-100925000D02*
X106755000Y-95925000D01*
X107255000Y-100925000D02*
X107255000Y-95925000D01*
X96755000Y-100925000D02*
X96755000Y-95925000D01*
X110255000Y-100925000D02*
X110255000Y-95925000D01*
X99755000Y-100925000D02*
G75*
G03X96755000Y-100925000I-1500000J-1500000D01*
G01*
X103255000Y-100925000D02*
G75*
G03X100255000Y-100925000I-1500000J-1500000D01*
G01*
X106755000Y-100925000D02*
G75*
G03X103755000Y-100925000I-1500000J-1500000D01*
G01*
X110255000Y-100925000D02*
G75*
G03X107255000Y-100925000I-1500000J-1500000D01*
G01*
X110255000Y-94675000D02*
X107255000Y-94675000D01*
X106755000Y-94675000D02*
X103755000Y-94675000D01*
X103255000Y-94675000D02*
X100255000Y-94675000D01*
X99755000Y-94675000D02*
X96755000Y-94675000D01*
X110255000Y-95925000D02*
X109505000Y-95925000D01*
X107255000Y-95925000D02*
X108005000Y-95925000D01*
X110255000Y-95425000D02*
X110255000Y-94675000D01*
X109505000Y-95425000D02*
X110255000Y-95425000D01*
X109505000Y-95925000D02*
X109505000Y-95425000D01*
X107255000Y-95425000D02*
X107255000Y-94675000D01*
X108005000Y-95425000D02*
X107255000Y-95425000D01*
X108005000Y-95925000D02*
X108005000Y-95425000D01*
X106755000Y-95425000D02*
X106755000Y-94675000D01*
X106005000Y-95425000D02*
X106755000Y-95425000D01*
X106005000Y-95925000D02*
X106005000Y-95425000D01*
X106755000Y-95925000D02*
X106005000Y-95925000D01*
X103755000Y-95425000D02*
X103755000Y-94675000D01*
X104505000Y-95425000D02*
X103755000Y-95425000D01*
X104505000Y-95925000D02*
X104505000Y-95425000D01*
X103755000Y-95925000D02*
X104505000Y-95925000D01*
X103255000Y-95425000D02*
X103255000Y-94675000D01*
X102505000Y-95425000D02*
X103255000Y-95425000D01*
X102505000Y-95925000D02*
X102505000Y-95425000D01*
X103255000Y-95925000D02*
X102505000Y-95925000D01*
X100255000Y-95425000D02*
X100255000Y-94675000D01*
X101005000Y-95425000D02*
X100255000Y-95425000D01*
X101005000Y-95925000D02*
X101005000Y-95425000D01*
X100255000Y-95925000D02*
X101005000Y-95925000D01*
X99755000Y-95425000D02*
X99755000Y-94675000D01*
X99005000Y-95425000D02*
X99755000Y-95425000D01*
X99005000Y-95925000D02*
X99005000Y-95425000D01*
X99755000Y-95925000D02*
X99005000Y-95925000D01*
X96755000Y-95425000D02*
X96755000Y-94675000D01*
X97505000Y-95425000D02*
X96755000Y-95425000D01*
X97505000Y-95925000D02*
X97505000Y-95425000D01*
X96755000Y-95925000D02*
X97505000Y-95925000D01*
X117710000Y-95925000D02*
X118460000Y-95925000D01*
X118460000Y-95925000D02*
X118460000Y-95425000D01*
X118460000Y-95425000D02*
X117710000Y-95425000D01*
X117710000Y-95425000D02*
X117710000Y-94675000D01*
X120710000Y-95925000D02*
X119960000Y-95925000D01*
X119960000Y-95925000D02*
X119960000Y-95425000D01*
X119960000Y-95425000D02*
X120710000Y-95425000D01*
X120710000Y-95425000D02*
X120710000Y-94675000D01*
X121210000Y-95925000D02*
X121960000Y-95925000D01*
X121960000Y-95925000D02*
X121960000Y-95425000D01*
X121960000Y-95425000D02*
X121210000Y-95425000D01*
X121210000Y-95425000D02*
X121210000Y-94675000D01*
X124210000Y-95925000D02*
X123460000Y-95925000D01*
X123460000Y-95925000D02*
X123460000Y-95425000D01*
X123460000Y-95425000D02*
X124210000Y-95425000D01*
X124210000Y-95425000D02*
X124210000Y-94675000D01*
X124710000Y-95925000D02*
X125460000Y-95925000D01*
X125460000Y-95925000D02*
X125460000Y-95425000D01*
X125460000Y-95425000D02*
X124710000Y-95425000D01*
X124710000Y-95425000D02*
X124710000Y-94675000D01*
X127710000Y-95925000D02*
X126960000Y-95925000D01*
X126960000Y-95925000D02*
X126960000Y-95425000D01*
X126960000Y-95425000D02*
X127710000Y-95425000D01*
X127710000Y-95425000D02*
X127710000Y-94675000D01*
X128960000Y-95925000D02*
X128960000Y-95425000D01*
X128960000Y-95425000D02*
X128210000Y-95425000D01*
X128210000Y-95425000D02*
X128210000Y-94675000D01*
X130460000Y-95925000D02*
X130460000Y-95425000D01*
X130460000Y-95425000D02*
X131210000Y-95425000D01*
X131210000Y-95425000D02*
X131210000Y-94675000D01*
X128210000Y-95925000D02*
X128960000Y-95925000D01*
X131210000Y-95925000D02*
X130460000Y-95925000D01*
X120710000Y-94675000D02*
X117710000Y-94675000D01*
X124210000Y-94675000D02*
X121210000Y-94675000D01*
X127710000Y-94675000D02*
X124710000Y-94675000D01*
X131210000Y-94675000D02*
X128210000Y-94675000D01*
X131210000Y-100925000D02*
G75*
G03X128210000Y-100925000I-1500000J-1500000D01*
G01*
X127710000Y-100925000D02*
G75*
G03X124710000Y-100925000I-1500000J-1500000D01*
G01*
X124210000Y-100925000D02*
G75*
G03X121210000Y-100925000I-1500000J-1500000D01*
G01*
X120710000Y-100925000D02*
G75*
G03X117710000Y-100925000I-1500000J-1500000D01*
G01*
X131210000Y-100925000D02*
X131210000Y-95925000D01*
X117710000Y-100925000D02*
X117710000Y-95925000D01*
X128210000Y-100925000D02*
X128210000Y-95925000D01*
X127710000Y-100925000D02*
X127710000Y-95925000D01*
X121210000Y-100925000D02*
X121210000Y-95925000D01*
X120710000Y-100925000D02*
X120710000Y-95925000D01*
X124710000Y-100925000D02*
X124710000Y-95925000D01*
X124210000Y-100925000D02*
X124210000Y-95925000D01*
X132160000Y-101425000D02*
X132160000Y-94175000D01*
X116760000Y-94175000D02*
X132160000Y-94175000D01*
X116760000Y-101425000D02*
X116760000Y-94175000D01*
X116760000Y-101425000D02*
X132160000Y-101425000D01*
X137715000Y-101425000D02*
X153115000Y-101425000D01*
X137715000Y-101425000D02*
X137715000Y-94175000D01*
X137715000Y-94175000D02*
X153115000Y-94175000D01*
X153115000Y-101425000D02*
X153115000Y-94175000D01*
X145165000Y-100925000D02*
X145165000Y-95925000D01*
X145665000Y-100925000D02*
X145665000Y-95925000D01*
X141665000Y-100925000D02*
X141665000Y-95925000D01*
X142165000Y-100925000D02*
X142165000Y-95925000D01*
X148665000Y-100925000D02*
X148665000Y-95925000D01*
X149165000Y-100925000D02*
X149165000Y-95925000D01*
X138665000Y-100925000D02*
X138665000Y-95925000D01*
X152165000Y-100925000D02*
X152165000Y-95925000D01*
X141665000Y-100925000D02*
G75*
G03X138665000Y-100925000I-1500000J-1500000D01*
G01*
X145165000Y-100925000D02*
G75*
G03X142165000Y-100925000I-1500000J-1500000D01*
G01*
X148665000Y-100925000D02*
G75*
G03X145665000Y-100925000I-1500000J-1500000D01*
G01*
X152165000Y-100925000D02*
G75*
G03X149165000Y-100925000I-1500000J-1500000D01*
G01*
X152165000Y-94675000D02*
X149165000Y-94675000D01*
X148665000Y-94675000D02*
X145665000Y-94675000D01*
X145165000Y-94675000D02*
X142165000Y-94675000D01*
X141665000Y-94675000D02*
X138665000Y-94675000D01*
X152165000Y-95925000D02*
X151415000Y-95925000D01*
X149165000Y-95925000D02*
X149915000Y-95925000D01*
X152165000Y-95425000D02*
X152165000Y-94675000D01*
X151415000Y-95425000D02*
X152165000Y-95425000D01*
X151415000Y-95925000D02*
X151415000Y-95425000D01*
X149165000Y-95425000D02*
X149165000Y-94675000D01*
X149915000Y-95425000D02*
X149165000Y-95425000D01*
X149915000Y-95925000D02*
X149915000Y-95425000D01*
X148665000Y-95425000D02*
X148665000Y-94675000D01*
X147915000Y-95425000D02*
X148665000Y-95425000D01*
X147915000Y-95925000D02*
X147915000Y-95425000D01*
X148665000Y-95925000D02*
X147915000Y-95925000D01*
X145665000Y-95425000D02*
X145665000Y-94675000D01*
X146415000Y-95425000D02*
X145665000Y-95425000D01*
X146415000Y-95925000D02*
X146415000Y-95425000D01*
X145665000Y-95925000D02*
X146415000Y-95925000D01*
X145165000Y-95425000D02*
X145165000Y-94675000D01*
X144415000Y-95425000D02*
X145165000Y-95425000D01*
X144415000Y-95925000D02*
X144415000Y-95425000D01*
X145165000Y-95925000D02*
X144415000Y-95925000D01*
X142165000Y-95425000D02*
X142165000Y-94675000D01*
X142915000Y-95425000D02*
X142165000Y-95425000D01*
X142915000Y-95925000D02*
X142915000Y-95425000D01*
X142165000Y-95925000D02*
X142915000Y-95925000D01*
X141665000Y-95425000D02*
X141665000Y-94675000D01*
X140915000Y-95425000D02*
X141665000Y-95425000D01*
X140915000Y-95925000D02*
X140915000Y-95425000D01*
X141665000Y-95925000D02*
X140915000Y-95925000D01*
X138665000Y-95425000D02*
X138665000Y-94675000D01*
X139415000Y-95425000D02*
X138665000Y-95425000D01*
X139415000Y-95925000D02*
X139415000Y-95425000D01*
X138665000Y-95925000D02*
X139415000Y-95925000D01*
D16*
X111030000Y-92170000D02*
X111030000Y-88170000D01*
X111030000Y-88170000D02*
X115030000Y-88170000D01*
X115030000Y-88170000D02*
X115030000Y-92170000D01*
X115030000Y-92170000D02*
X111030000Y-92170000D01*
D15*
X93345000Y-87122000D02*
X113665000Y-87122000D01*
X93345000Y-77978000D02*
X113665000Y-77978000D01*
X93345000Y-77978000D02*
X93345000Y-87122000D01*
X113665000Y-77978000D02*
X113665000Y-87122000D01*
X108585000Y-77978000D02*
X109855000Y-76708000D01*
X109855000Y-76708000D02*
X107315000Y-76708000D01*
X107315000Y-76708000D02*
X108585000Y-77978000D01*
X128270000Y-76708000D02*
X129540000Y-77978000D01*
X130810000Y-76708000D02*
X128270000Y-76708000D01*
X129540000Y-77978000D02*
X130810000Y-76708000D01*
X134620000Y-77978000D02*
X134620000Y-87122000D01*
X114300000Y-77978000D02*
X114300000Y-87122000D01*
X114300000Y-77978000D02*
X134620000Y-77978000D01*
X114300000Y-87122000D02*
X134620000Y-87122000D01*
X135255000Y-87122000D02*
X155575000Y-87122000D01*
X135255000Y-77978000D02*
X155575000Y-77978000D01*
X135255000Y-77978000D02*
X135255000Y-87122000D01*
X155575000Y-77978000D02*
X155575000Y-87122000D01*
X150495000Y-77978000D02*
X151765000Y-76708000D01*
X151765000Y-76708000D02*
X149225000Y-76708000D01*
X149225000Y-76708000D02*
X150495000Y-77978000D01*
D14*
X94058619Y-98564095D02*
X94058619Y-97983523D01*
X95074619Y-98273809D02*
X94058619Y-98273809D01*
X95074619Y-97112666D02*
X95074619Y-97693238D01*
X95074619Y-97402952D02*
X94058619Y-97402952D01*
X94203761Y-97499714D01*
X94300523Y-97596476D01*
X94348904Y-97693238D01*
X115013619Y-98564095D02*
X115013619Y-97983523D01*
X116029619Y-98273809D02*
X115013619Y-98273809D01*
X115110380Y-97693238D02*
X115062000Y-97644857D01*
X115013619Y-97548095D01*
X115013619Y-97306190D01*
X115062000Y-97209428D01*
X115110380Y-97161047D01*
X115207142Y-97112666D01*
X115303904Y-97112666D01*
X115449047Y-97161047D01*
X116029619Y-97741619D01*
X116029619Y-97112666D01*
X135968619Y-98564095D02*
X135968619Y-97983523D01*
X136984619Y-98273809D02*
X135968619Y-98273809D01*
X135968619Y-97741619D02*
X135968619Y-97112666D01*
X136355666Y-97451333D01*
X136355666Y-97306190D01*
X136404047Y-97209428D01*
X136452428Y-97161047D01*
X136549190Y-97112666D01*
X136791095Y-97112666D01*
X136887857Y-97161047D01*
X136936238Y-97209428D01*
X136984619Y-97306190D01*
X136984619Y-97596476D01*
X136936238Y-97693238D01*
X136887857Y-97741619D01*
X93230095Y-77294619D02*
X93230095Y-76278619D01*
X93617142Y-76278619D01*
X93713904Y-76327000D01*
X93762285Y-76375380D01*
X93810666Y-76472142D01*
X93810666Y-76617285D01*
X93762285Y-76714047D01*
X93713904Y-76762428D01*
X93617142Y-76810809D01*
X93230095Y-76810809D01*
X94778285Y-77294619D02*
X94197714Y-77294619D01*
X94488000Y-77294619D02*
X94488000Y-76278619D01*
X94391238Y-76423761D01*
X94294476Y-76520523D01*
X94197714Y-76568904D01*
X114185095Y-77294619D02*
X114185095Y-76278619D01*
X114572142Y-76278619D01*
X114668904Y-76327000D01*
X114717285Y-76375380D01*
X114765666Y-76472142D01*
X114765666Y-76617285D01*
X114717285Y-76714047D01*
X114668904Y-76762428D01*
X114572142Y-76810809D01*
X114185095Y-76810809D01*
X115152714Y-76375380D02*
X115201095Y-76327000D01*
X115297857Y-76278619D01*
X115539761Y-76278619D01*
X115636523Y-76327000D01*
X115684904Y-76375380D01*
X115733285Y-76472142D01*
X115733285Y-76568904D01*
X115684904Y-76714047D01*
X115104333Y-77294619D01*
X115733285Y-77294619D01*
X135140095Y-77294619D02*
X135140095Y-76278619D01*
X135527142Y-76278619D01*
X135623904Y-76327000D01*
X135672285Y-76375380D01*
X135720666Y-76472142D01*
X135720666Y-76617285D01*
X135672285Y-76714047D01*
X135623904Y-76762428D01*
X135527142Y-76810809D01*
X135140095Y-76810809D01*
X136059333Y-76278619D02*
X136688285Y-76278619D01*
X136349619Y-76665666D01*
X136494761Y-76665666D01*
X136591523Y-76714047D01*
X136639904Y-76762428D01*
X136688285Y-76859190D01*
X136688285Y-77101095D01*
X136639904Y-77197857D01*
X136591523Y-77246238D01*
X136494761Y-77294619D01*
X136204476Y-77294619D01*
X136107714Y-77246238D01*
X136059333Y-77197857D01*
%LPC*%
D17*
X90805000Y-71120000D03*
X93345000Y-71120000D03*
D18*
X88265000Y-71120000D03*
D17*
X95885000Y-71120000D03*
X98425000Y-71120000D03*
X100965000Y-71120000D03*
X103505000Y-71120000D03*
X106045000Y-71120000D03*
X108585000Y-71120000D03*
X111125000Y-71120000D03*
X113665000Y-71120000D03*
X116205000Y-71120000D03*
X118745000Y-71120000D03*
X121285000Y-71120000D03*
X123825000Y-71120000D03*
X126365000Y-71120000D03*
X126365000Y-106680000D03*
X123825000Y-106680000D03*
X121285000Y-106680000D03*
X118745000Y-106680000D03*
X116205000Y-106680000D03*
X113665000Y-106680000D03*
X111125000Y-106680000D03*
X108585000Y-106680000D03*
X106045000Y-106680000D03*
X103505000Y-106680000D03*
X100965000Y-106680000D03*
X98425000Y-106680000D03*
X95885000Y-106680000D03*
X93345000Y-106680000D03*
X90805000Y-106680000D03*
X88265000Y-106680000D03*
D19*
X89535000Y-76200000D03*
X89535000Y-101600000D03*
X130175000Y-106680000D03*
X130175000Y-71120000D03*
D20*
X105255000Y-98425000D03*
X101755000Y-98425000D03*
X98255000Y-98425000D03*
X108755000Y-98425000D03*
X129710000Y-98425000D03*
X119210000Y-98425000D03*
X122710000Y-98425000D03*
X126210000Y-98425000D03*
X147165000Y-98425000D03*
X143665000Y-98425000D03*
X140165000Y-98425000D03*
X150665000Y-98425000D03*
D21*
X113030000Y-90170000D03*
D22*
X108585000Y-79552800D03*
X108585000Y-85547200D03*
X106045000Y-79552800D03*
X106045000Y-85547200D03*
X103505000Y-79552800D03*
X103505000Y-85547200D03*
X100965000Y-79552800D03*
X100965000Y-85547200D03*
X98425000Y-79552800D03*
X98425000Y-85547200D03*
X119380000Y-85547200D03*
X119380000Y-79552800D03*
X121920000Y-85547200D03*
X121920000Y-79552800D03*
X124460000Y-85547200D03*
X124460000Y-79552800D03*
X127000000Y-85547200D03*
X127000000Y-79552800D03*
X129540000Y-85547200D03*
X129540000Y-79552800D03*
X150495000Y-79552800D03*
X150495000Y-85547200D03*
X147955000Y-79552800D03*
X147955000Y-85547200D03*
X145415000Y-79552800D03*
X145415000Y-85547200D03*
X142875000Y-79552800D03*
X142875000Y-85547200D03*
X140335000Y-79552800D03*
X140335000Y-85547200D03*
M02*
