G04 #@! TF.GenerationSoftware,KiCad,Pcbnew,no-vcs-found-0f0cb64~58~ubuntu16.04.1*
G04 #@! TF.CreationDate,2017-03-29T15:35:21-04:00*
G04 #@! TF.ProjectId,step_dir_controller_3x2,737465705F6469725F636F6E74726F6C,1.0*
G04 #@! TF.FileFunction,Legend,Bot*
G04 #@! TF.FilePolarity,Positive*
%FSLAX46Y46*%
G04 Gerber Fmt 4.6, Leading zero omitted, Abs format (unit mm)*
G04 Created by KiCad (PCBNEW no-vcs-found-0f0cb64~58~ubuntu16.04.1) date Wed Mar 29 15:35:21 2017*
%MOMM*%
%LPD*%
G01*
G04 APERTURE LIST*
%ADD10C,0.100000*%
%ADD11C,0.228600*%
%ADD12C,0.381000*%
%ADD13C,0.127000*%
%ADD14C,0.250000*%
%ADD15C,0.254000*%
%ADD16C,0.125000*%
%ADD17O,1.854200X2.540000*%
%ADD18R,1.854200X2.540000*%
%ADD19C,3.556000*%
%ADD20R,2.540000X1.270000*%
%ADD21R,1.270000X2.540000*%
%ADD22R,1.800000X2.000000*%
%ADD23C,2.340000*%
%ADD24R,2.075000X0.325000*%
%ADD25R,0.325000X2.075000*%
%ADD26R,3.475000X3.475000*%
%ADD27R,0.740000X1.690000*%
%ADD28R,0.762000X1.534160*%
G04 APERTURE END LIST*
D10*
D11*
X155575000Y-68580000D02*
X85725000Y-68580000D01*
X155575000Y-109220000D02*
X155575000Y-68580000D01*
X85725000Y-109220000D02*
X155575000Y-109220000D01*
X85725000Y-68580000D02*
X85725000Y-109220000D01*
D12*
X86995000Y-105410000D02*
X86995000Y-107950000D01*
X86995000Y-107950000D02*
X127635000Y-107950000D01*
X127635000Y-107950000D02*
X127635000Y-105410000D01*
X127635000Y-105410000D02*
X86995000Y-105410000D01*
X86995000Y-69850000D02*
X86995000Y-72390000D01*
X86995000Y-72390000D02*
X127635000Y-72390000D01*
X127635000Y-72390000D02*
X127635000Y-69850000D01*
X127635000Y-69850000D02*
X86995000Y-69850000D01*
D13*
X88773000Y-92456000D02*
X88773000Y-90932000D01*
X91567000Y-92456000D02*
X88773000Y-92456000D01*
X91567000Y-90932000D02*
X91567000Y-92456000D01*
X91567000Y-87884000D02*
X91567000Y-89408000D01*
X88773000Y-87884000D02*
X91567000Y-87884000D01*
X88773000Y-89408000D02*
X88773000Y-87884000D01*
X119253000Y-92456000D02*
X119253000Y-90932000D01*
X122047000Y-92456000D02*
X119253000Y-92456000D01*
X122047000Y-90932000D02*
X122047000Y-92456000D01*
X122047000Y-87884000D02*
X122047000Y-89408000D01*
X119253000Y-87884000D02*
X122047000Y-87884000D01*
X119253000Y-89408000D02*
X119253000Y-87884000D01*
X93218000Y-82296000D02*
X93218000Y-80772000D01*
X96012000Y-82296000D02*
X93218000Y-82296000D01*
X96012000Y-80772000D02*
X96012000Y-82296000D01*
X96012000Y-77724000D02*
X96012000Y-79248000D01*
X93218000Y-77724000D02*
X96012000Y-77724000D01*
X93218000Y-79248000D02*
X93218000Y-77724000D01*
X104267000Y-100838000D02*
X105791000Y-100838000D01*
X105791000Y-100838000D02*
X105791000Y-103632000D01*
X105791000Y-103632000D02*
X104267000Y-103632000D01*
X102743000Y-103632000D02*
X101219000Y-103632000D01*
X101219000Y-103632000D02*
X101219000Y-100838000D01*
X101219000Y-100838000D02*
X102743000Y-100838000D01*
X114173000Y-79248000D02*
X114173000Y-77724000D01*
X114173000Y-77724000D02*
X116967000Y-77724000D01*
X116967000Y-77724000D02*
X116967000Y-79248000D01*
X116967000Y-80772000D02*
X116967000Y-82296000D01*
X116967000Y-82296000D02*
X114173000Y-82296000D01*
X114173000Y-82296000D02*
X114173000Y-80772000D01*
X125222000Y-100838000D02*
X126746000Y-100838000D01*
X126746000Y-100838000D02*
X126746000Y-103632000D01*
X126746000Y-103632000D02*
X125222000Y-103632000D01*
X123698000Y-103632000D02*
X122174000Y-103632000D01*
X122174000Y-103632000D02*
X122174000Y-100838000D01*
X122174000Y-100838000D02*
X123698000Y-100838000D01*
X135128000Y-82296000D02*
X135128000Y-80772000D01*
X137922000Y-82296000D02*
X135128000Y-82296000D01*
X137922000Y-80772000D02*
X137922000Y-82296000D01*
X137922000Y-77724000D02*
X137922000Y-79248000D01*
X135128000Y-77724000D02*
X137922000Y-77724000D01*
X135128000Y-79248000D02*
X135128000Y-77724000D01*
X146177000Y-100838000D02*
X147701000Y-100838000D01*
X147701000Y-100838000D02*
X147701000Y-103632000D01*
X147701000Y-103632000D02*
X146177000Y-103632000D01*
X144653000Y-103632000D02*
X143129000Y-103632000D01*
X143129000Y-103632000D02*
X143129000Y-100838000D01*
X143129000Y-100838000D02*
X144653000Y-100838000D01*
D12*
X100655000Y-92670000D02*
X93655000Y-92670000D01*
X100655000Y-87670000D02*
X100655000Y-92670000D01*
X93655000Y-87670000D02*
X100655000Y-87670000D01*
X93655000Y-92670000D02*
X93655000Y-87670000D01*
X96508553Y-88420000D02*
G75*
G03X96508553Y-88420000I-353553J0D01*
G01*
D14*
X111030000Y-92670000D02*
X110530000Y-92170000D01*
X110530000Y-88170000D02*
X110530000Y-87670000D01*
X110530000Y-87670000D02*
X111030000Y-87670000D01*
X115530000Y-88170000D02*
X115530000Y-87670000D01*
X115530000Y-87670000D02*
X115030000Y-87670000D01*
X115030000Y-92670000D02*
X115530000Y-92670000D01*
X115530000Y-92670000D02*
X115530000Y-92170000D01*
X110780000Y-92670000D02*
G75*
G03X110780000Y-92670000I-250000J0D01*
G01*
D12*
X107350000Y-80850000D02*
G75*
G03X107350000Y-80850000I-635000J0D01*
G01*
X107870000Y-81960000D02*
X97870000Y-81960000D01*
X97870000Y-81960000D02*
X97870000Y-78060000D01*
X97870000Y-78060000D02*
X107870000Y-78060000D01*
X107870000Y-78060000D02*
X107870000Y-81960000D01*
X102489000Y-94615000D02*
X104521000Y-94615000D01*
D11*
X101727000Y-93091000D02*
X101727000Y-93599000D01*
X101473000Y-93345000D02*
X101981000Y-93345000D01*
D12*
X128305000Y-80850000D02*
G75*
G03X128305000Y-80850000I-635000J0D01*
G01*
X128825000Y-81960000D02*
X118825000Y-81960000D01*
X118825000Y-81960000D02*
X118825000Y-78060000D01*
X118825000Y-78060000D02*
X128825000Y-78060000D01*
X128825000Y-78060000D02*
X128825000Y-81960000D01*
X123444000Y-94615000D02*
X125476000Y-94615000D01*
D11*
X122682000Y-93091000D02*
X122682000Y-93599000D01*
X122428000Y-93345000D02*
X122936000Y-93345000D01*
D12*
X149780000Y-78060000D02*
X149780000Y-81960000D01*
X139780000Y-78060000D02*
X149780000Y-78060000D01*
X139780000Y-81960000D02*
X139780000Y-78060000D01*
X149780000Y-81960000D02*
X139780000Y-81960000D01*
X149260000Y-80850000D02*
G75*
G03X149260000Y-80850000I-635000J0D01*
G01*
D11*
X143383000Y-93345000D02*
X143891000Y-93345000D01*
X143637000Y-93091000D02*
X143637000Y-93599000D01*
D12*
X144399000Y-94615000D02*
X146431000Y-94615000D01*
D15*
X88246857Y-90000666D02*
X88295238Y-89952285D01*
X88343619Y-89807142D01*
X88343619Y-89710380D01*
X88295238Y-89565238D01*
X88198476Y-89468476D01*
X88101714Y-89420095D01*
X87908190Y-89371714D01*
X87763047Y-89371714D01*
X87569523Y-89420095D01*
X87472761Y-89468476D01*
X87376000Y-89565238D01*
X87327619Y-89710380D01*
X87327619Y-89807142D01*
X87376000Y-89952285D01*
X87424380Y-90000666D01*
X88343619Y-90968285D02*
X88343619Y-90387714D01*
X88343619Y-90678000D02*
X87327619Y-90678000D01*
X87472761Y-90581238D01*
X87569523Y-90484476D01*
X87617904Y-90387714D01*
X91899619Y-88500857D02*
X91899619Y-88597619D01*
X91948000Y-88694380D01*
X91996380Y-88742761D01*
X92093142Y-88791142D01*
X92286666Y-88839523D01*
X92528571Y-88839523D01*
X92722095Y-88791142D01*
X92818857Y-88742761D01*
X92867238Y-88694380D01*
X92915619Y-88597619D01*
X92915619Y-88500857D01*
X92867238Y-88404095D01*
X92818857Y-88355714D01*
X92722095Y-88307333D01*
X92528571Y-88258952D01*
X92286666Y-88258952D01*
X92093142Y-88307333D01*
X91996380Y-88355714D01*
X91948000Y-88404095D01*
X91899619Y-88500857D01*
X92818857Y-89274952D02*
X92867238Y-89323333D01*
X92915619Y-89274952D01*
X92867238Y-89226571D01*
X92818857Y-89274952D01*
X92915619Y-89274952D01*
X92915619Y-90290952D02*
X92915619Y-89710380D01*
X92915619Y-90000666D02*
X91899619Y-90000666D01*
X92044761Y-89903904D01*
X92141523Y-89807142D01*
X92189904Y-89710380D01*
X92238285Y-91161809D02*
X92915619Y-91161809D01*
X92238285Y-90726380D02*
X92770476Y-90726380D01*
X92867238Y-90774761D01*
X92915619Y-90871523D01*
X92915619Y-91016666D01*
X92867238Y-91113428D01*
X92818857Y-91161809D01*
X92383428Y-91984285D02*
X92383428Y-91645619D01*
X92915619Y-91645619D02*
X91899619Y-91645619D01*
X91899619Y-92129428D01*
X118726857Y-90000666D02*
X118775238Y-89952285D01*
X118823619Y-89807142D01*
X118823619Y-89710380D01*
X118775238Y-89565238D01*
X118678476Y-89468476D01*
X118581714Y-89420095D01*
X118388190Y-89371714D01*
X118243047Y-89371714D01*
X118049523Y-89420095D01*
X117952761Y-89468476D01*
X117856000Y-89565238D01*
X117807619Y-89710380D01*
X117807619Y-89807142D01*
X117856000Y-89952285D01*
X117904380Y-90000666D01*
X117904380Y-90387714D02*
X117856000Y-90436095D01*
X117807619Y-90532857D01*
X117807619Y-90774761D01*
X117856000Y-90871523D01*
X117904380Y-90919904D01*
X118001142Y-90968285D01*
X118097904Y-90968285D01*
X118243047Y-90919904D01*
X118823619Y-90339333D01*
X118823619Y-90968285D01*
X122379619Y-88500857D02*
X122379619Y-88597619D01*
X122428000Y-88694380D01*
X122476380Y-88742761D01*
X122573142Y-88791142D01*
X122766666Y-88839523D01*
X123008571Y-88839523D01*
X123202095Y-88791142D01*
X123298857Y-88742761D01*
X123347238Y-88694380D01*
X123395619Y-88597619D01*
X123395619Y-88500857D01*
X123347238Y-88404095D01*
X123298857Y-88355714D01*
X123202095Y-88307333D01*
X123008571Y-88258952D01*
X122766666Y-88258952D01*
X122573142Y-88307333D01*
X122476380Y-88355714D01*
X122428000Y-88404095D01*
X122379619Y-88500857D01*
X123298857Y-89274952D02*
X123347238Y-89323333D01*
X123395619Y-89274952D01*
X123347238Y-89226571D01*
X123298857Y-89274952D01*
X123395619Y-89274952D01*
X123395619Y-90290952D02*
X123395619Y-89710380D01*
X123395619Y-90000666D02*
X122379619Y-90000666D01*
X122524761Y-89903904D01*
X122621523Y-89807142D01*
X122669904Y-89710380D01*
X122718285Y-91161809D02*
X123395619Y-91161809D01*
X122718285Y-90726380D02*
X123250476Y-90726380D01*
X123347238Y-90774761D01*
X123395619Y-90871523D01*
X123395619Y-91016666D01*
X123347238Y-91113428D01*
X123298857Y-91161809D01*
X122863428Y-91984285D02*
X122863428Y-91645619D01*
X123395619Y-91645619D02*
X122379619Y-91645619D01*
X122379619Y-92129428D01*
X92691857Y-79840666D02*
X92740238Y-79792285D01*
X92788619Y-79647142D01*
X92788619Y-79550380D01*
X92740238Y-79405238D01*
X92643476Y-79308476D01*
X92546714Y-79260095D01*
X92353190Y-79211714D01*
X92208047Y-79211714D01*
X92014523Y-79260095D01*
X91917761Y-79308476D01*
X91821000Y-79405238D01*
X91772619Y-79550380D01*
X91772619Y-79647142D01*
X91821000Y-79792285D01*
X91869380Y-79840666D01*
X91772619Y-80179333D02*
X91772619Y-80808285D01*
X92159666Y-80469619D01*
X92159666Y-80614761D01*
X92208047Y-80711523D01*
X92256428Y-80759904D01*
X92353190Y-80808285D01*
X92595095Y-80808285D01*
X92691857Y-80759904D01*
X92740238Y-80711523D01*
X92788619Y-80614761D01*
X92788619Y-80324476D01*
X92740238Y-80227714D01*
X92691857Y-80179333D01*
X96344619Y-78340857D02*
X96344619Y-78437619D01*
X96393000Y-78534380D01*
X96441380Y-78582761D01*
X96538142Y-78631142D01*
X96731666Y-78679523D01*
X96973571Y-78679523D01*
X97167095Y-78631142D01*
X97263857Y-78582761D01*
X97312238Y-78534380D01*
X97360619Y-78437619D01*
X97360619Y-78340857D01*
X97312238Y-78244095D01*
X97263857Y-78195714D01*
X97167095Y-78147333D01*
X96973571Y-78098952D01*
X96731666Y-78098952D01*
X96538142Y-78147333D01*
X96441380Y-78195714D01*
X96393000Y-78244095D01*
X96344619Y-78340857D01*
X97263857Y-79114952D02*
X97312238Y-79163333D01*
X97360619Y-79114952D01*
X97312238Y-79066571D01*
X97263857Y-79114952D01*
X97360619Y-79114952D01*
X97360619Y-80130952D02*
X97360619Y-79550380D01*
X97360619Y-79840666D02*
X96344619Y-79840666D01*
X96489761Y-79743904D01*
X96586523Y-79647142D01*
X96634904Y-79550380D01*
X96683285Y-81001809D02*
X97360619Y-81001809D01*
X96683285Y-80566380D02*
X97215476Y-80566380D01*
X97312238Y-80614761D01*
X97360619Y-80711523D01*
X97360619Y-80856666D01*
X97312238Y-80953428D01*
X97263857Y-81001809D01*
X96828428Y-81824285D02*
X96828428Y-81485619D01*
X97360619Y-81485619D02*
X96344619Y-81485619D01*
X96344619Y-81969428D01*
X103674333Y-100311857D02*
X103722714Y-100360238D01*
X103867857Y-100408619D01*
X103964619Y-100408619D01*
X104109761Y-100360238D01*
X104206523Y-100263476D01*
X104254904Y-100166714D01*
X104303285Y-99973190D01*
X104303285Y-99828047D01*
X104254904Y-99634523D01*
X104206523Y-99537761D01*
X104109761Y-99441000D01*
X103964619Y-99392619D01*
X103867857Y-99392619D01*
X103722714Y-99441000D01*
X103674333Y-99489380D01*
X102803476Y-99731285D02*
X102803476Y-100408619D01*
X103045380Y-99344238D02*
X103287285Y-100069952D01*
X102658333Y-100069952D01*
X105174142Y-103964619D02*
X105077380Y-103964619D01*
X104980619Y-104013000D01*
X104932238Y-104061380D01*
X104883857Y-104158142D01*
X104835476Y-104351666D01*
X104835476Y-104593571D01*
X104883857Y-104787095D01*
X104932238Y-104883857D01*
X104980619Y-104932238D01*
X105077380Y-104980619D01*
X105174142Y-104980619D01*
X105270904Y-104932238D01*
X105319285Y-104883857D01*
X105367666Y-104787095D01*
X105416047Y-104593571D01*
X105416047Y-104351666D01*
X105367666Y-104158142D01*
X105319285Y-104061380D01*
X105270904Y-104013000D01*
X105174142Y-103964619D01*
X104400047Y-104883857D02*
X104351666Y-104932238D01*
X104400047Y-104980619D01*
X104448428Y-104932238D01*
X104400047Y-104883857D01*
X104400047Y-104980619D01*
X103384047Y-104980619D02*
X103964619Y-104980619D01*
X103674333Y-104980619D02*
X103674333Y-103964619D01*
X103771095Y-104109761D01*
X103867857Y-104206523D01*
X103964619Y-104254904D01*
X102513190Y-104303285D02*
X102513190Y-104980619D01*
X102948619Y-104303285D02*
X102948619Y-104835476D01*
X102900238Y-104932238D01*
X102803476Y-104980619D01*
X102658333Y-104980619D01*
X102561571Y-104932238D01*
X102513190Y-104883857D01*
X101690714Y-104448428D02*
X102029380Y-104448428D01*
X102029380Y-104980619D02*
X102029380Y-103964619D01*
X101545571Y-103964619D01*
X113646857Y-79840666D02*
X113695238Y-79792285D01*
X113743619Y-79647142D01*
X113743619Y-79550380D01*
X113695238Y-79405238D01*
X113598476Y-79308476D01*
X113501714Y-79260095D01*
X113308190Y-79211714D01*
X113163047Y-79211714D01*
X112969523Y-79260095D01*
X112872761Y-79308476D01*
X112776000Y-79405238D01*
X112727619Y-79550380D01*
X112727619Y-79647142D01*
X112776000Y-79792285D01*
X112824380Y-79840666D01*
X112727619Y-80759904D02*
X112727619Y-80276095D01*
X113211428Y-80227714D01*
X113163047Y-80276095D01*
X113114666Y-80372857D01*
X113114666Y-80614761D01*
X113163047Y-80711523D01*
X113211428Y-80759904D01*
X113308190Y-80808285D01*
X113550095Y-80808285D01*
X113646857Y-80759904D01*
X113695238Y-80711523D01*
X113743619Y-80614761D01*
X113743619Y-80372857D01*
X113695238Y-80276095D01*
X113646857Y-80227714D01*
X117299619Y-78340857D02*
X117299619Y-78437619D01*
X117348000Y-78534380D01*
X117396380Y-78582761D01*
X117493142Y-78631142D01*
X117686666Y-78679523D01*
X117928571Y-78679523D01*
X118122095Y-78631142D01*
X118218857Y-78582761D01*
X118267238Y-78534380D01*
X118315619Y-78437619D01*
X118315619Y-78340857D01*
X118267238Y-78244095D01*
X118218857Y-78195714D01*
X118122095Y-78147333D01*
X117928571Y-78098952D01*
X117686666Y-78098952D01*
X117493142Y-78147333D01*
X117396380Y-78195714D01*
X117348000Y-78244095D01*
X117299619Y-78340857D01*
X118218857Y-79114952D02*
X118267238Y-79163333D01*
X118315619Y-79114952D01*
X118267238Y-79066571D01*
X118218857Y-79114952D01*
X118315619Y-79114952D01*
X118315619Y-80130952D02*
X118315619Y-79550380D01*
X118315619Y-79840666D02*
X117299619Y-79840666D01*
X117444761Y-79743904D01*
X117541523Y-79647142D01*
X117589904Y-79550380D01*
X117638285Y-81001809D02*
X118315619Y-81001809D01*
X117638285Y-80566380D02*
X118170476Y-80566380D01*
X118267238Y-80614761D01*
X118315619Y-80711523D01*
X118315619Y-80856666D01*
X118267238Y-80953428D01*
X118218857Y-81001809D01*
X117783428Y-81824285D02*
X117783428Y-81485619D01*
X118315619Y-81485619D02*
X117299619Y-81485619D01*
X117299619Y-81969428D01*
X124629333Y-100311857D02*
X124677714Y-100360238D01*
X124822857Y-100408619D01*
X124919619Y-100408619D01*
X125064761Y-100360238D01*
X125161523Y-100263476D01*
X125209904Y-100166714D01*
X125258285Y-99973190D01*
X125258285Y-99828047D01*
X125209904Y-99634523D01*
X125161523Y-99537761D01*
X125064761Y-99441000D01*
X124919619Y-99392619D01*
X124822857Y-99392619D01*
X124677714Y-99441000D01*
X124629333Y-99489380D01*
X123758476Y-99392619D02*
X123952000Y-99392619D01*
X124048761Y-99441000D01*
X124097142Y-99489380D01*
X124193904Y-99634523D01*
X124242285Y-99828047D01*
X124242285Y-100215095D01*
X124193904Y-100311857D01*
X124145523Y-100360238D01*
X124048761Y-100408619D01*
X123855238Y-100408619D01*
X123758476Y-100360238D01*
X123710095Y-100311857D01*
X123661714Y-100215095D01*
X123661714Y-99973190D01*
X123710095Y-99876428D01*
X123758476Y-99828047D01*
X123855238Y-99779666D01*
X124048761Y-99779666D01*
X124145523Y-99828047D01*
X124193904Y-99876428D01*
X124242285Y-99973190D01*
X126129142Y-103964619D02*
X126032380Y-103964619D01*
X125935619Y-104013000D01*
X125887238Y-104061380D01*
X125838857Y-104158142D01*
X125790476Y-104351666D01*
X125790476Y-104593571D01*
X125838857Y-104787095D01*
X125887238Y-104883857D01*
X125935619Y-104932238D01*
X126032380Y-104980619D01*
X126129142Y-104980619D01*
X126225904Y-104932238D01*
X126274285Y-104883857D01*
X126322666Y-104787095D01*
X126371047Y-104593571D01*
X126371047Y-104351666D01*
X126322666Y-104158142D01*
X126274285Y-104061380D01*
X126225904Y-104013000D01*
X126129142Y-103964619D01*
X125355047Y-104883857D02*
X125306666Y-104932238D01*
X125355047Y-104980619D01*
X125403428Y-104932238D01*
X125355047Y-104883857D01*
X125355047Y-104980619D01*
X124339047Y-104980619D02*
X124919619Y-104980619D01*
X124629333Y-104980619D02*
X124629333Y-103964619D01*
X124726095Y-104109761D01*
X124822857Y-104206523D01*
X124919619Y-104254904D01*
X123468190Y-104303285D02*
X123468190Y-104980619D01*
X123903619Y-104303285D02*
X123903619Y-104835476D01*
X123855238Y-104932238D01*
X123758476Y-104980619D01*
X123613333Y-104980619D01*
X123516571Y-104932238D01*
X123468190Y-104883857D01*
X122645714Y-104448428D02*
X122984380Y-104448428D01*
X122984380Y-104980619D02*
X122984380Y-103964619D01*
X122500571Y-103964619D01*
X134601857Y-79840666D02*
X134650238Y-79792285D01*
X134698619Y-79647142D01*
X134698619Y-79550380D01*
X134650238Y-79405238D01*
X134553476Y-79308476D01*
X134456714Y-79260095D01*
X134263190Y-79211714D01*
X134118047Y-79211714D01*
X133924523Y-79260095D01*
X133827761Y-79308476D01*
X133731000Y-79405238D01*
X133682619Y-79550380D01*
X133682619Y-79647142D01*
X133731000Y-79792285D01*
X133779380Y-79840666D01*
X133682619Y-80179333D02*
X133682619Y-80856666D01*
X134698619Y-80421238D01*
X138254619Y-78340857D02*
X138254619Y-78437619D01*
X138303000Y-78534380D01*
X138351380Y-78582761D01*
X138448142Y-78631142D01*
X138641666Y-78679523D01*
X138883571Y-78679523D01*
X139077095Y-78631142D01*
X139173857Y-78582761D01*
X139222238Y-78534380D01*
X139270619Y-78437619D01*
X139270619Y-78340857D01*
X139222238Y-78244095D01*
X139173857Y-78195714D01*
X139077095Y-78147333D01*
X138883571Y-78098952D01*
X138641666Y-78098952D01*
X138448142Y-78147333D01*
X138351380Y-78195714D01*
X138303000Y-78244095D01*
X138254619Y-78340857D01*
X139173857Y-79114952D02*
X139222238Y-79163333D01*
X139270619Y-79114952D01*
X139222238Y-79066571D01*
X139173857Y-79114952D01*
X139270619Y-79114952D01*
X139270619Y-80130952D02*
X139270619Y-79550380D01*
X139270619Y-79840666D02*
X138254619Y-79840666D01*
X138399761Y-79743904D01*
X138496523Y-79647142D01*
X138544904Y-79550380D01*
X138593285Y-81001809D02*
X139270619Y-81001809D01*
X138593285Y-80566380D02*
X139125476Y-80566380D01*
X139222238Y-80614761D01*
X139270619Y-80711523D01*
X139270619Y-80856666D01*
X139222238Y-80953428D01*
X139173857Y-81001809D01*
X138738428Y-81824285D02*
X138738428Y-81485619D01*
X139270619Y-81485619D02*
X138254619Y-81485619D01*
X138254619Y-81969428D01*
X145584333Y-100311857D02*
X145632714Y-100360238D01*
X145777857Y-100408619D01*
X145874619Y-100408619D01*
X146019761Y-100360238D01*
X146116523Y-100263476D01*
X146164904Y-100166714D01*
X146213285Y-99973190D01*
X146213285Y-99828047D01*
X146164904Y-99634523D01*
X146116523Y-99537761D01*
X146019761Y-99441000D01*
X145874619Y-99392619D01*
X145777857Y-99392619D01*
X145632714Y-99441000D01*
X145584333Y-99489380D01*
X145003761Y-99828047D02*
X145100523Y-99779666D01*
X145148904Y-99731285D01*
X145197285Y-99634523D01*
X145197285Y-99586142D01*
X145148904Y-99489380D01*
X145100523Y-99441000D01*
X145003761Y-99392619D01*
X144810238Y-99392619D01*
X144713476Y-99441000D01*
X144665095Y-99489380D01*
X144616714Y-99586142D01*
X144616714Y-99634523D01*
X144665095Y-99731285D01*
X144713476Y-99779666D01*
X144810238Y-99828047D01*
X145003761Y-99828047D01*
X145100523Y-99876428D01*
X145148904Y-99924809D01*
X145197285Y-100021571D01*
X145197285Y-100215095D01*
X145148904Y-100311857D01*
X145100523Y-100360238D01*
X145003761Y-100408619D01*
X144810238Y-100408619D01*
X144713476Y-100360238D01*
X144665095Y-100311857D01*
X144616714Y-100215095D01*
X144616714Y-100021571D01*
X144665095Y-99924809D01*
X144713476Y-99876428D01*
X144810238Y-99828047D01*
X147084142Y-103964619D02*
X146987380Y-103964619D01*
X146890619Y-104013000D01*
X146842238Y-104061380D01*
X146793857Y-104158142D01*
X146745476Y-104351666D01*
X146745476Y-104593571D01*
X146793857Y-104787095D01*
X146842238Y-104883857D01*
X146890619Y-104932238D01*
X146987380Y-104980619D01*
X147084142Y-104980619D01*
X147180904Y-104932238D01*
X147229285Y-104883857D01*
X147277666Y-104787095D01*
X147326047Y-104593571D01*
X147326047Y-104351666D01*
X147277666Y-104158142D01*
X147229285Y-104061380D01*
X147180904Y-104013000D01*
X147084142Y-103964619D01*
X146310047Y-104883857D02*
X146261666Y-104932238D01*
X146310047Y-104980619D01*
X146358428Y-104932238D01*
X146310047Y-104883857D01*
X146310047Y-104980619D01*
X145294047Y-104980619D02*
X145874619Y-104980619D01*
X145584333Y-104980619D02*
X145584333Y-103964619D01*
X145681095Y-104109761D01*
X145777857Y-104206523D01*
X145874619Y-104254904D01*
X144423190Y-104303285D02*
X144423190Y-104980619D01*
X144858619Y-104303285D02*
X144858619Y-104835476D01*
X144810238Y-104932238D01*
X144713476Y-104980619D01*
X144568333Y-104980619D01*
X144471571Y-104932238D01*
X144423190Y-104883857D01*
X143600714Y-104448428D02*
X143939380Y-104448428D01*
X143939380Y-104980619D02*
X143939380Y-103964619D01*
X143455571Y-103964619D01*
X98243571Y-94282857D02*
X98291952Y-94331238D01*
X98437095Y-94379619D01*
X98533857Y-94379619D01*
X98679000Y-94331238D01*
X98775761Y-94234476D01*
X98824142Y-94137714D01*
X98872523Y-93944190D01*
X98872523Y-93799047D01*
X98824142Y-93605523D01*
X98775761Y-93508761D01*
X98679000Y-93412000D01*
X98533857Y-93363619D01*
X98437095Y-93363619D01*
X98291952Y-93412000D01*
X98243571Y-93460380D01*
X97324333Y-94379619D02*
X97808142Y-94379619D01*
X97808142Y-93363619D01*
X96985666Y-94379619D02*
X96985666Y-93363619D01*
X96405095Y-94379619D02*
X96840523Y-93799047D01*
X96405095Y-93363619D02*
X96985666Y-93944190D01*
X95437476Y-94379619D02*
X96018047Y-94379619D01*
X95727761Y-94379619D02*
X95727761Y-93363619D01*
X95824523Y-93508761D01*
X95921285Y-93605523D01*
X96018047Y-93653904D01*
D16*
X98547857Y-90348571D02*
X98571666Y-90372380D01*
X98643095Y-90396190D01*
X98690714Y-90396190D01*
X98762142Y-90372380D01*
X98809761Y-90324761D01*
X98833571Y-90277142D01*
X98857380Y-90181904D01*
X98857380Y-90110476D01*
X98833571Y-90015238D01*
X98809761Y-89967619D01*
X98762142Y-89920000D01*
X98690714Y-89896190D01*
X98643095Y-89896190D01*
X98571666Y-89920000D01*
X98547857Y-89943809D01*
X98405000Y-89896190D02*
X98119285Y-89896190D01*
X98262142Y-90396190D02*
X98262142Y-89896190D01*
X97976428Y-90372380D02*
X97905000Y-90396190D01*
X97785952Y-90396190D01*
X97738333Y-90372380D01*
X97714523Y-90348571D01*
X97690714Y-90300952D01*
X97690714Y-90253333D01*
X97714523Y-90205714D01*
X97738333Y-90181904D01*
X97785952Y-90158095D01*
X97881190Y-90134285D01*
X97928809Y-90110476D01*
X97952619Y-90086666D01*
X97976428Y-90039047D01*
X97976428Y-89991428D01*
X97952619Y-89943809D01*
X97928809Y-89920000D01*
X97881190Y-89896190D01*
X97762142Y-89896190D01*
X97690714Y-89920000D01*
X97405000Y-89896190D02*
X97405000Y-90015238D01*
X97524047Y-89967619D02*
X97405000Y-90015238D01*
X97285952Y-89967619D01*
X97476428Y-90110476D02*
X97405000Y-90015238D01*
X97333571Y-90110476D01*
X97024047Y-89896190D02*
X97024047Y-90015238D01*
X97143095Y-89967619D02*
X97024047Y-90015238D01*
X96905000Y-89967619D01*
X97095476Y-90110476D02*
X97024047Y-90015238D01*
X96952619Y-90110476D01*
X96428809Y-90348571D02*
X96452619Y-90372380D01*
X96524047Y-90396190D01*
X96571666Y-90396190D01*
X96643095Y-90372380D01*
X96690714Y-90324761D01*
X96714523Y-90277142D01*
X96738333Y-90181904D01*
X96738333Y-90110476D01*
X96714523Y-90015238D01*
X96690714Y-89967619D01*
X96643095Y-89920000D01*
X96571666Y-89896190D01*
X96524047Y-89896190D01*
X96452619Y-89920000D01*
X96428809Y-89943809D01*
X96047857Y-90134285D02*
X95976428Y-90158095D01*
X95952619Y-90181904D01*
X95928809Y-90229523D01*
X95928809Y-90300952D01*
X95952619Y-90348571D01*
X95976428Y-90372380D01*
X96024047Y-90396190D01*
X96214523Y-90396190D01*
X96214523Y-89896190D01*
X96047857Y-89896190D01*
X96000238Y-89920000D01*
X95976428Y-89943809D01*
X95952619Y-89991428D01*
X95952619Y-90039047D01*
X95976428Y-90086666D01*
X96000238Y-90110476D01*
X96047857Y-90134285D01*
X96214523Y-90134285D01*
X95762142Y-89896190D02*
X95452619Y-89896190D01*
X95619285Y-90086666D01*
X95547857Y-90086666D01*
X95500238Y-90110476D01*
X95476428Y-90134285D01*
X95452619Y-90181904D01*
X95452619Y-90300952D01*
X95476428Y-90348571D01*
X95500238Y-90372380D01*
X95547857Y-90396190D01*
X95690714Y-90396190D01*
X95738333Y-90372380D01*
X95762142Y-90348571D01*
D15*
X113804095Y-84613619D02*
X113804095Y-85436095D01*
X113755714Y-85532857D01*
X113707333Y-85581238D01*
X113610571Y-85629619D01*
X113417047Y-85629619D01*
X113320285Y-85581238D01*
X113271904Y-85532857D01*
X113223523Y-85436095D01*
X113223523Y-84613619D01*
X112207523Y-85629619D02*
X112788095Y-85629619D01*
X112497809Y-85629619D02*
X112497809Y-84613619D01*
X112594571Y-84758761D01*
X112691333Y-84855523D01*
X112788095Y-84903904D01*
X108248619Y-79235904D02*
X109071095Y-79235904D01*
X109167857Y-79284285D01*
X109216238Y-79332666D01*
X109264619Y-79429428D01*
X109264619Y-79622952D01*
X109216238Y-79719714D01*
X109167857Y-79768095D01*
X109071095Y-79816476D01*
X108248619Y-79816476D01*
X108345380Y-80251904D02*
X108297000Y-80300285D01*
X108248619Y-80397047D01*
X108248619Y-80638952D01*
X108297000Y-80735714D01*
X108345380Y-80784095D01*
X108442142Y-80832476D01*
X108538904Y-80832476D01*
X108684047Y-80784095D01*
X109264619Y-80203523D01*
X109264619Y-80832476D01*
X106141761Y-79550380D02*
X106093380Y-79502000D01*
X105996619Y-79453619D01*
X105754714Y-79453619D01*
X105657952Y-79502000D01*
X105609571Y-79550380D01*
X105561190Y-79647142D01*
X105561190Y-79743904D01*
X105609571Y-79889047D01*
X106190142Y-80469619D01*
X105561190Y-80469619D01*
X104690333Y-79453619D02*
X104883857Y-79453619D01*
X104980619Y-79502000D01*
X105029000Y-79550380D01*
X105125761Y-79695523D01*
X105174142Y-79889047D01*
X105174142Y-80276095D01*
X105125761Y-80372857D01*
X105077380Y-80421238D01*
X104980619Y-80469619D01*
X104787095Y-80469619D01*
X104690333Y-80421238D01*
X104641952Y-80372857D01*
X104593571Y-80276095D01*
X104593571Y-80034190D01*
X104641952Y-79937428D01*
X104690333Y-79889047D01*
X104787095Y-79840666D01*
X104980619Y-79840666D01*
X105077380Y-79889047D01*
X105125761Y-79937428D01*
X105174142Y-80034190D01*
X103674333Y-80469619D02*
X104158142Y-80469619D01*
X104158142Y-79453619D01*
X103384047Y-80421238D02*
X103238904Y-80469619D01*
X102997000Y-80469619D01*
X102900238Y-80421238D01*
X102851857Y-80372857D01*
X102803476Y-80276095D01*
X102803476Y-80179333D01*
X102851857Y-80082571D01*
X102900238Y-80034190D01*
X102997000Y-79985809D01*
X103190523Y-79937428D01*
X103287285Y-79889047D01*
X103335666Y-79840666D01*
X103384047Y-79743904D01*
X103384047Y-79647142D01*
X103335666Y-79550380D01*
X103287285Y-79502000D01*
X103190523Y-79453619D01*
X102948619Y-79453619D01*
X102803476Y-79502000D01*
X102464809Y-79453619D02*
X101835857Y-79453619D01*
X102174523Y-79840666D01*
X102029380Y-79840666D01*
X101932619Y-79889047D01*
X101884238Y-79937428D01*
X101835857Y-80034190D01*
X101835857Y-80276095D01*
X101884238Y-80372857D01*
X101932619Y-80421238D01*
X102029380Y-80469619D01*
X102319666Y-80469619D01*
X102416428Y-80421238D01*
X102464809Y-80372857D01*
X100868238Y-80469619D02*
X101448809Y-80469619D01*
X101158523Y-80469619D02*
X101158523Y-79453619D01*
X101255285Y-79598761D01*
X101352047Y-79695523D01*
X101448809Y-79743904D01*
D13*
X101448809Y-95497952D02*
X101860047Y-95497952D01*
X101908428Y-95522142D01*
X101932619Y-95546333D01*
X101956809Y-95594714D01*
X101956809Y-95691476D01*
X101932619Y-95739857D01*
X101908428Y-95764047D01*
X101860047Y-95788238D01*
X101448809Y-95788238D01*
X101448809Y-95981761D02*
X101448809Y-96296238D01*
X101642333Y-96126904D01*
X101642333Y-96199476D01*
X101666523Y-96247857D01*
X101690714Y-96272047D01*
X101739095Y-96296238D01*
X101860047Y-96296238D01*
X101908428Y-96272047D01*
X101932619Y-96247857D01*
X101956809Y-96199476D01*
X101956809Y-96054333D01*
X101932619Y-96005952D01*
X101908428Y-95981761D01*
X105512809Y-93018428D02*
X105004809Y-93018428D01*
X105367666Y-93187761D01*
X105004809Y-93357095D01*
X105512809Y-93357095D01*
X105367666Y-93574809D02*
X105367666Y-93816714D01*
X105512809Y-93526428D02*
X105004809Y-93695761D01*
X105512809Y-93865095D01*
X105004809Y-93986047D02*
X105512809Y-94324714D01*
X105004809Y-94324714D02*
X105512809Y-93986047D01*
X105004809Y-94735952D02*
X105004809Y-94639190D01*
X105029000Y-94590809D01*
X105053190Y-94566619D01*
X105125761Y-94518238D01*
X105222523Y-94494047D01*
X105416047Y-94494047D01*
X105464428Y-94518238D01*
X105488619Y-94542428D01*
X105512809Y-94590809D01*
X105512809Y-94687571D01*
X105488619Y-94735952D01*
X105464428Y-94760142D01*
X105416047Y-94784333D01*
X105295095Y-94784333D01*
X105246714Y-94760142D01*
X105222523Y-94735952D01*
X105198333Y-94687571D01*
X105198333Y-94590809D01*
X105222523Y-94542428D01*
X105246714Y-94518238D01*
X105295095Y-94494047D01*
X105222523Y-95074619D02*
X105198333Y-95026238D01*
X105174142Y-95002047D01*
X105125761Y-94977857D01*
X105101571Y-94977857D01*
X105053190Y-95002047D01*
X105029000Y-95026238D01*
X105004809Y-95074619D01*
X105004809Y-95171380D01*
X105029000Y-95219761D01*
X105053190Y-95243952D01*
X105101571Y-95268142D01*
X105125761Y-95268142D01*
X105174142Y-95243952D01*
X105198333Y-95219761D01*
X105222523Y-95171380D01*
X105222523Y-95074619D01*
X105246714Y-95026238D01*
X105270904Y-95002047D01*
X105319285Y-94977857D01*
X105416047Y-94977857D01*
X105464428Y-95002047D01*
X105488619Y-95026238D01*
X105512809Y-95074619D01*
X105512809Y-95171380D01*
X105488619Y-95219761D01*
X105464428Y-95243952D01*
X105416047Y-95268142D01*
X105319285Y-95268142D01*
X105270904Y-95243952D01*
X105246714Y-95219761D01*
X105222523Y-95171380D01*
X105512809Y-95751952D02*
X105512809Y-95461666D01*
X105512809Y-95606809D02*
X105004809Y-95606809D01*
X105077380Y-95558428D01*
X105125761Y-95510047D01*
X105149952Y-95461666D01*
X105004809Y-95921285D02*
X105004809Y-96259952D01*
X105512809Y-96042238D01*
D15*
X129203619Y-79235904D02*
X130026095Y-79235904D01*
X130122857Y-79284285D01*
X130171238Y-79332666D01*
X130219619Y-79429428D01*
X130219619Y-79622952D01*
X130171238Y-79719714D01*
X130122857Y-79768095D01*
X130026095Y-79816476D01*
X129203619Y-79816476D01*
X129542285Y-80735714D02*
X130219619Y-80735714D01*
X129155238Y-80493809D02*
X129880952Y-80251904D01*
X129880952Y-80880857D01*
X127096761Y-79550380D02*
X127048380Y-79502000D01*
X126951619Y-79453619D01*
X126709714Y-79453619D01*
X126612952Y-79502000D01*
X126564571Y-79550380D01*
X126516190Y-79647142D01*
X126516190Y-79743904D01*
X126564571Y-79889047D01*
X127145142Y-80469619D01*
X126516190Y-80469619D01*
X125645333Y-79453619D02*
X125838857Y-79453619D01*
X125935619Y-79502000D01*
X125984000Y-79550380D01*
X126080761Y-79695523D01*
X126129142Y-79889047D01*
X126129142Y-80276095D01*
X126080761Y-80372857D01*
X126032380Y-80421238D01*
X125935619Y-80469619D01*
X125742095Y-80469619D01*
X125645333Y-80421238D01*
X125596952Y-80372857D01*
X125548571Y-80276095D01*
X125548571Y-80034190D01*
X125596952Y-79937428D01*
X125645333Y-79889047D01*
X125742095Y-79840666D01*
X125935619Y-79840666D01*
X126032380Y-79889047D01*
X126080761Y-79937428D01*
X126129142Y-80034190D01*
X124629333Y-80469619D02*
X125113142Y-80469619D01*
X125113142Y-79453619D01*
X124339047Y-80421238D02*
X124193904Y-80469619D01*
X123952000Y-80469619D01*
X123855238Y-80421238D01*
X123806857Y-80372857D01*
X123758476Y-80276095D01*
X123758476Y-80179333D01*
X123806857Y-80082571D01*
X123855238Y-80034190D01*
X123952000Y-79985809D01*
X124145523Y-79937428D01*
X124242285Y-79889047D01*
X124290666Y-79840666D01*
X124339047Y-79743904D01*
X124339047Y-79647142D01*
X124290666Y-79550380D01*
X124242285Y-79502000D01*
X124145523Y-79453619D01*
X123903619Y-79453619D01*
X123758476Y-79502000D01*
X123419809Y-79453619D02*
X122790857Y-79453619D01*
X123129523Y-79840666D01*
X122984380Y-79840666D01*
X122887619Y-79889047D01*
X122839238Y-79937428D01*
X122790857Y-80034190D01*
X122790857Y-80276095D01*
X122839238Y-80372857D01*
X122887619Y-80421238D01*
X122984380Y-80469619D01*
X123274666Y-80469619D01*
X123371428Y-80421238D01*
X123419809Y-80372857D01*
X121823238Y-80469619D02*
X122403809Y-80469619D01*
X122113523Y-80469619D02*
X122113523Y-79453619D01*
X122210285Y-79598761D01*
X122307047Y-79695523D01*
X122403809Y-79743904D01*
D13*
X122403809Y-95497952D02*
X122815047Y-95497952D01*
X122863428Y-95522142D01*
X122887619Y-95546333D01*
X122911809Y-95594714D01*
X122911809Y-95691476D01*
X122887619Y-95739857D01*
X122863428Y-95764047D01*
X122815047Y-95788238D01*
X122403809Y-95788238D01*
X122403809Y-96272047D02*
X122403809Y-96030142D01*
X122645714Y-96005952D01*
X122621523Y-96030142D01*
X122597333Y-96078523D01*
X122597333Y-96199476D01*
X122621523Y-96247857D01*
X122645714Y-96272047D01*
X122694095Y-96296238D01*
X122815047Y-96296238D01*
X122863428Y-96272047D01*
X122887619Y-96247857D01*
X122911809Y-96199476D01*
X122911809Y-96078523D01*
X122887619Y-96030142D01*
X122863428Y-96005952D01*
X126467809Y-93018428D02*
X125959809Y-93018428D01*
X126322666Y-93187761D01*
X125959809Y-93357095D01*
X126467809Y-93357095D01*
X126322666Y-93574809D02*
X126322666Y-93816714D01*
X126467809Y-93526428D02*
X125959809Y-93695761D01*
X126467809Y-93865095D01*
X125959809Y-93986047D02*
X126467809Y-94324714D01*
X125959809Y-94324714D02*
X126467809Y-93986047D01*
X125959809Y-94735952D02*
X125959809Y-94639190D01*
X125984000Y-94590809D01*
X126008190Y-94566619D01*
X126080761Y-94518238D01*
X126177523Y-94494047D01*
X126371047Y-94494047D01*
X126419428Y-94518238D01*
X126443619Y-94542428D01*
X126467809Y-94590809D01*
X126467809Y-94687571D01*
X126443619Y-94735952D01*
X126419428Y-94760142D01*
X126371047Y-94784333D01*
X126250095Y-94784333D01*
X126201714Y-94760142D01*
X126177523Y-94735952D01*
X126153333Y-94687571D01*
X126153333Y-94590809D01*
X126177523Y-94542428D01*
X126201714Y-94518238D01*
X126250095Y-94494047D01*
X126177523Y-95074619D02*
X126153333Y-95026238D01*
X126129142Y-95002047D01*
X126080761Y-94977857D01*
X126056571Y-94977857D01*
X126008190Y-95002047D01*
X125984000Y-95026238D01*
X125959809Y-95074619D01*
X125959809Y-95171380D01*
X125984000Y-95219761D01*
X126008190Y-95243952D01*
X126056571Y-95268142D01*
X126080761Y-95268142D01*
X126129142Y-95243952D01*
X126153333Y-95219761D01*
X126177523Y-95171380D01*
X126177523Y-95074619D01*
X126201714Y-95026238D01*
X126225904Y-95002047D01*
X126274285Y-94977857D01*
X126371047Y-94977857D01*
X126419428Y-95002047D01*
X126443619Y-95026238D01*
X126467809Y-95074619D01*
X126467809Y-95171380D01*
X126443619Y-95219761D01*
X126419428Y-95243952D01*
X126371047Y-95268142D01*
X126274285Y-95268142D01*
X126225904Y-95243952D01*
X126201714Y-95219761D01*
X126177523Y-95171380D01*
X126467809Y-95751952D02*
X126467809Y-95461666D01*
X126467809Y-95606809D02*
X125959809Y-95606809D01*
X126032380Y-95558428D01*
X126080761Y-95510047D01*
X126104952Y-95461666D01*
X125959809Y-95921285D02*
X125959809Y-96259952D01*
X126467809Y-96042238D01*
D15*
X150158619Y-79235904D02*
X150981095Y-79235904D01*
X151077857Y-79284285D01*
X151126238Y-79332666D01*
X151174619Y-79429428D01*
X151174619Y-79622952D01*
X151126238Y-79719714D01*
X151077857Y-79768095D01*
X150981095Y-79816476D01*
X150158619Y-79816476D01*
X150158619Y-80735714D02*
X150158619Y-80542190D01*
X150207000Y-80445428D01*
X150255380Y-80397047D01*
X150400523Y-80300285D01*
X150594047Y-80251904D01*
X150981095Y-80251904D01*
X151077857Y-80300285D01*
X151126238Y-80348666D01*
X151174619Y-80445428D01*
X151174619Y-80638952D01*
X151126238Y-80735714D01*
X151077857Y-80784095D01*
X150981095Y-80832476D01*
X150739190Y-80832476D01*
X150642428Y-80784095D01*
X150594047Y-80735714D01*
X150545666Y-80638952D01*
X150545666Y-80445428D01*
X150594047Y-80348666D01*
X150642428Y-80300285D01*
X150739190Y-80251904D01*
X148051761Y-79550380D02*
X148003380Y-79502000D01*
X147906619Y-79453619D01*
X147664714Y-79453619D01*
X147567952Y-79502000D01*
X147519571Y-79550380D01*
X147471190Y-79647142D01*
X147471190Y-79743904D01*
X147519571Y-79889047D01*
X148100142Y-80469619D01*
X147471190Y-80469619D01*
X146600333Y-79453619D02*
X146793857Y-79453619D01*
X146890619Y-79502000D01*
X146939000Y-79550380D01*
X147035761Y-79695523D01*
X147084142Y-79889047D01*
X147084142Y-80276095D01*
X147035761Y-80372857D01*
X146987380Y-80421238D01*
X146890619Y-80469619D01*
X146697095Y-80469619D01*
X146600333Y-80421238D01*
X146551952Y-80372857D01*
X146503571Y-80276095D01*
X146503571Y-80034190D01*
X146551952Y-79937428D01*
X146600333Y-79889047D01*
X146697095Y-79840666D01*
X146890619Y-79840666D01*
X146987380Y-79889047D01*
X147035761Y-79937428D01*
X147084142Y-80034190D01*
X145584333Y-80469619D02*
X146068142Y-80469619D01*
X146068142Y-79453619D01*
X145294047Y-80421238D02*
X145148904Y-80469619D01*
X144907000Y-80469619D01*
X144810238Y-80421238D01*
X144761857Y-80372857D01*
X144713476Y-80276095D01*
X144713476Y-80179333D01*
X144761857Y-80082571D01*
X144810238Y-80034190D01*
X144907000Y-79985809D01*
X145100523Y-79937428D01*
X145197285Y-79889047D01*
X145245666Y-79840666D01*
X145294047Y-79743904D01*
X145294047Y-79647142D01*
X145245666Y-79550380D01*
X145197285Y-79502000D01*
X145100523Y-79453619D01*
X144858619Y-79453619D01*
X144713476Y-79502000D01*
X144374809Y-79453619D02*
X143745857Y-79453619D01*
X144084523Y-79840666D01*
X143939380Y-79840666D01*
X143842619Y-79889047D01*
X143794238Y-79937428D01*
X143745857Y-80034190D01*
X143745857Y-80276095D01*
X143794238Y-80372857D01*
X143842619Y-80421238D01*
X143939380Y-80469619D01*
X144229666Y-80469619D01*
X144326428Y-80421238D01*
X144374809Y-80372857D01*
X142778238Y-80469619D02*
X143358809Y-80469619D01*
X143068523Y-80469619D02*
X143068523Y-79453619D01*
X143165285Y-79598761D01*
X143262047Y-79695523D01*
X143358809Y-79743904D01*
D13*
X143358809Y-95497952D02*
X143770047Y-95497952D01*
X143818428Y-95522142D01*
X143842619Y-95546333D01*
X143866809Y-95594714D01*
X143866809Y-95691476D01*
X143842619Y-95739857D01*
X143818428Y-95764047D01*
X143770047Y-95788238D01*
X143358809Y-95788238D01*
X143358809Y-95981761D02*
X143358809Y-96320428D01*
X143866809Y-96102714D01*
X147422809Y-93018428D02*
X146914809Y-93018428D01*
X147277666Y-93187761D01*
X146914809Y-93357095D01*
X147422809Y-93357095D01*
X147277666Y-93574809D02*
X147277666Y-93816714D01*
X147422809Y-93526428D02*
X146914809Y-93695761D01*
X147422809Y-93865095D01*
X146914809Y-93986047D02*
X147422809Y-94324714D01*
X146914809Y-94324714D02*
X147422809Y-93986047D01*
X146914809Y-94735952D02*
X146914809Y-94639190D01*
X146939000Y-94590809D01*
X146963190Y-94566619D01*
X147035761Y-94518238D01*
X147132523Y-94494047D01*
X147326047Y-94494047D01*
X147374428Y-94518238D01*
X147398619Y-94542428D01*
X147422809Y-94590809D01*
X147422809Y-94687571D01*
X147398619Y-94735952D01*
X147374428Y-94760142D01*
X147326047Y-94784333D01*
X147205095Y-94784333D01*
X147156714Y-94760142D01*
X147132523Y-94735952D01*
X147108333Y-94687571D01*
X147108333Y-94590809D01*
X147132523Y-94542428D01*
X147156714Y-94518238D01*
X147205095Y-94494047D01*
X147132523Y-95074619D02*
X147108333Y-95026238D01*
X147084142Y-95002047D01*
X147035761Y-94977857D01*
X147011571Y-94977857D01*
X146963190Y-95002047D01*
X146939000Y-95026238D01*
X146914809Y-95074619D01*
X146914809Y-95171380D01*
X146939000Y-95219761D01*
X146963190Y-95243952D01*
X147011571Y-95268142D01*
X147035761Y-95268142D01*
X147084142Y-95243952D01*
X147108333Y-95219761D01*
X147132523Y-95171380D01*
X147132523Y-95074619D01*
X147156714Y-95026238D01*
X147180904Y-95002047D01*
X147229285Y-94977857D01*
X147326047Y-94977857D01*
X147374428Y-95002047D01*
X147398619Y-95026238D01*
X147422809Y-95074619D01*
X147422809Y-95171380D01*
X147398619Y-95219761D01*
X147374428Y-95243952D01*
X147326047Y-95268142D01*
X147229285Y-95268142D01*
X147180904Y-95243952D01*
X147156714Y-95219761D01*
X147132523Y-95171380D01*
X147422809Y-95751952D02*
X147422809Y-95461666D01*
X147422809Y-95606809D02*
X146914809Y-95606809D01*
X146987380Y-95558428D01*
X147035761Y-95510047D01*
X147059952Y-95461666D01*
X146914809Y-95921285D02*
X146914809Y-96259952D01*
X147422809Y-96042238D01*
%LPC*%
D17*
X90805000Y-71120000D03*
X93345000Y-71120000D03*
D18*
X88265000Y-71120000D03*
D17*
X95885000Y-71120000D03*
X98425000Y-71120000D03*
X100965000Y-71120000D03*
X103505000Y-71120000D03*
X106045000Y-71120000D03*
X108585000Y-71120000D03*
X111125000Y-71120000D03*
X113665000Y-71120000D03*
X116205000Y-71120000D03*
X118745000Y-71120000D03*
X121285000Y-71120000D03*
X123825000Y-71120000D03*
X126365000Y-71120000D03*
X126365000Y-106680000D03*
X123825000Y-106680000D03*
X121285000Y-106680000D03*
X118745000Y-106680000D03*
X116205000Y-106680000D03*
X113665000Y-106680000D03*
X111125000Y-106680000D03*
X108585000Y-106680000D03*
X106045000Y-106680000D03*
X103505000Y-106680000D03*
X100965000Y-106680000D03*
X98425000Y-106680000D03*
X95885000Y-106680000D03*
X93345000Y-106680000D03*
X90805000Y-106680000D03*
X88265000Y-106680000D03*
D19*
X89535000Y-76200000D03*
X89535000Y-101600000D03*
X130175000Y-106680000D03*
X130175000Y-71120000D03*
D20*
X90170000Y-91694000D03*
X90170000Y-88646000D03*
X120650000Y-91694000D03*
X120650000Y-88646000D03*
X94615000Y-81534000D03*
X94615000Y-78486000D03*
D21*
X105029000Y-102235000D03*
X101981000Y-102235000D03*
D20*
X115570000Y-78486000D03*
X115570000Y-81534000D03*
D21*
X125984000Y-102235000D03*
X122936000Y-102235000D03*
D20*
X136525000Y-81534000D03*
X136525000Y-78486000D03*
D21*
X146939000Y-102235000D03*
X143891000Y-102235000D03*
D22*
X94615000Y-92270000D03*
X99695000Y-92270000D03*
X99695000Y-88070000D03*
X94615000Y-88070000D03*
D23*
X105255000Y-98425000D03*
X101755000Y-98425000D03*
X98255000Y-98425000D03*
X108755000Y-98425000D03*
X129710000Y-98425000D03*
X119210000Y-98425000D03*
X122710000Y-98425000D03*
X126210000Y-98425000D03*
X147165000Y-98425000D03*
X143665000Y-98425000D03*
X140165000Y-98425000D03*
X150665000Y-98425000D03*
D24*
X116030000Y-91920000D03*
X116030000Y-91420000D03*
X116030000Y-90920000D03*
X116030000Y-90420000D03*
X116030000Y-89920000D03*
X116030000Y-89420000D03*
X116030000Y-88920000D03*
X116030000Y-88420000D03*
X110030000Y-88420000D03*
X110030000Y-88920000D03*
X110030000Y-89420000D03*
X110030000Y-89920000D03*
X110030000Y-90420000D03*
X110030000Y-90920000D03*
X110030000Y-91420000D03*
X110030000Y-91920000D03*
D25*
X114780000Y-87170000D03*
X114280000Y-87170000D03*
X113780000Y-87170000D03*
X113280000Y-87170000D03*
X112780000Y-87170000D03*
X112280000Y-87170000D03*
X111780000Y-87170000D03*
X111280000Y-87170000D03*
X111280000Y-93170000D03*
X111780000Y-93170000D03*
X112280000Y-93170000D03*
X112780000Y-93170000D03*
X113280000Y-93170000D03*
X113780000Y-93170000D03*
X114280000Y-93170000D03*
X114780000Y-93170000D03*
D26*
X113030000Y-90170000D03*
D27*
X107315000Y-82710000D03*
X106045000Y-82710000D03*
X104775000Y-82710000D03*
X103505000Y-82710000D03*
X102235000Y-82710000D03*
X100965000Y-82710000D03*
X99695000Y-82710000D03*
X98425000Y-82710000D03*
X98425000Y-77310000D03*
X99695000Y-77310000D03*
X100965000Y-77310000D03*
X102235000Y-77310000D03*
X103505000Y-77310000D03*
X104775000Y-77310000D03*
X106045000Y-77310000D03*
X107315000Y-77310000D03*
D28*
X102555040Y-93416120D03*
X103505000Y-93416120D03*
X104454960Y-93416120D03*
X104454960Y-95813880D03*
X103505000Y-95813880D03*
X102555040Y-95813880D03*
D27*
X128270000Y-82710000D03*
X127000000Y-82710000D03*
X125730000Y-82710000D03*
X124460000Y-82710000D03*
X123190000Y-82710000D03*
X121920000Y-82710000D03*
X120650000Y-82710000D03*
X119380000Y-82710000D03*
X119380000Y-77310000D03*
X120650000Y-77310000D03*
X121920000Y-77310000D03*
X123190000Y-77310000D03*
X124460000Y-77310000D03*
X125730000Y-77310000D03*
X127000000Y-77310000D03*
X128270000Y-77310000D03*
D28*
X123510040Y-93416120D03*
X124460000Y-93416120D03*
X125409960Y-93416120D03*
X125409960Y-95813880D03*
X124460000Y-95813880D03*
X123510040Y-95813880D03*
D27*
X149225000Y-77310000D03*
X147955000Y-77310000D03*
X146685000Y-77310000D03*
X145415000Y-77310000D03*
X144145000Y-77310000D03*
X142875000Y-77310000D03*
X141605000Y-77310000D03*
X140335000Y-77310000D03*
X140335000Y-82710000D03*
X141605000Y-82710000D03*
X142875000Y-82710000D03*
X144145000Y-82710000D03*
X145415000Y-82710000D03*
X146685000Y-82710000D03*
X147955000Y-82710000D03*
X149225000Y-82710000D03*
D28*
X144465040Y-95813880D03*
X145415000Y-95813880D03*
X146364960Y-95813880D03*
X146364960Y-93416120D03*
X145415000Y-93416120D03*
X144465040Y-93416120D03*
M02*
