G04 #@! TF.GenerationSoftware,KiCad,Pcbnew,no-vcs-found-0f0cb64~58~ubuntu16.04.1*
G04 #@! TF.CreationDate,2017-03-29T15:35:21-04:00*
G04 #@! TF.ProjectId,step_dir_controller_3x2,737465705F6469725F636F6E74726F6C,1.0*
G04 #@! TF.FileFunction,Soldermask,Top*
G04 #@! TF.FilePolarity,Negative*
%FSLAX46Y46*%
G04 Gerber Fmt 4.6, Leading zero omitted, Abs format (unit mm)*
G04 Created by KiCad (PCBNEW no-vcs-found-0f0cb64~58~ubuntu16.04.1) date Wed Mar 29 15:35:21 2017*
%MOMM*%
%LPD*%
G01*
G04 APERTURE LIST*
%ADD10C,0.100000*%
%ADD11C,0.228600*%
%ADD12O,1.854200X2.540000*%
%ADD13R,1.854200X2.540000*%
%ADD14C,3.556000*%
%ADD15C,2.340000*%
%ADD16R,3.475000X3.475000*%
%ADD17R,1.016000X4.495800*%
G04 APERTURE END LIST*
D10*
D11*
X155575000Y-68580000D02*
X85725000Y-68580000D01*
X155575000Y-109220000D02*
X155575000Y-68580000D01*
X85725000Y-109220000D02*
X155575000Y-109220000D01*
X85725000Y-68580000D02*
X85725000Y-109220000D01*
D12*
X90805000Y-71120000D03*
X93345000Y-71120000D03*
D13*
X88265000Y-71120000D03*
D12*
X95885000Y-71120000D03*
X98425000Y-71120000D03*
X100965000Y-71120000D03*
X103505000Y-71120000D03*
X106045000Y-71120000D03*
X108585000Y-71120000D03*
X111125000Y-71120000D03*
X113665000Y-71120000D03*
X116205000Y-71120000D03*
X118745000Y-71120000D03*
X121285000Y-71120000D03*
X123825000Y-71120000D03*
X126365000Y-71120000D03*
X126365000Y-106680000D03*
X123825000Y-106680000D03*
X121285000Y-106680000D03*
X118745000Y-106680000D03*
X116205000Y-106680000D03*
X113665000Y-106680000D03*
X111125000Y-106680000D03*
X108585000Y-106680000D03*
X106045000Y-106680000D03*
X103505000Y-106680000D03*
X100965000Y-106680000D03*
X98425000Y-106680000D03*
X95885000Y-106680000D03*
X93345000Y-106680000D03*
X90805000Y-106680000D03*
X88265000Y-106680000D03*
D14*
X89535000Y-76200000D03*
X89535000Y-101600000D03*
X130175000Y-106680000D03*
X130175000Y-71120000D03*
D15*
X105255000Y-98425000D03*
X101755000Y-98425000D03*
X98255000Y-98425000D03*
X108755000Y-98425000D03*
X129710000Y-98425000D03*
X119210000Y-98425000D03*
X122710000Y-98425000D03*
X126210000Y-98425000D03*
X147165000Y-98425000D03*
X143665000Y-98425000D03*
X140165000Y-98425000D03*
X150665000Y-98425000D03*
D16*
X113030000Y-90170000D03*
D17*
X108585000Y-79552800D03*
X108585000Y-85547200D03*
X106045000Y-79552800D03*
X106045000Y-85547200D03*
X103505000Y-79552800D03*
X103505000Y-85547200D03*
X100965000Y-79552800D03*
X100965000Y-85547200D03*
X98425000Y-79552800D03*
X98425000Y-85547200D03*
X119380000Y-85547200D03*
X119380000Y-79552800D03*
X121920000Y-85547200D03*
X121920000Y-79552800D03*
X124460000Y-85547200D03*
X124460000Y-79552800D03*
X127000000Y-85547200D03*
X127000000Y-79552800D03*
X129540000Y-85547200D03*
X129540000Y-79552800D03*
X150495000Y-79552800D03*
X150495000Y-85547200D03*
X147955000Y-79552800D03*
X147955000Y-85547200D03*
X145415000Y-79552800D03*
X145415000Y-85547200D03*
X142875000Y-79552800D03*
X142875000Y-85547200D03*
X140335000Y-79552800D03*
X140335000Y-85547200D03*
M02*
