G04 #@! TF.GenerationSoftware,KiCad,Pcbnew,no-vcs-found-0f0cb64~58~ubuntu16.04.1*
G04 #@! TF.CreationDate,2017-03-29T15:35:21-04:00*
G04 #@! TF.ProjectId,step_dir_controller_3x2,737465705F6469725F636F6E74726F6C,1.0*
G04 #@! TF.FileFunction,Soldermask,Bot*
G04 #@! TF.FilePolarity,Negative*
%FSLAX46Y46*%
G04 Gerber Fmt 4.6, Leading zero omitted, Abs format (unit mm)*
G04 Created by KiCad (PCBNEW no-vcs-found-0f0cb64~58~ubuntu16.04.1) date Wed Mar 29 15:35:21 2017*
%MOMM*%
%LPD*%
G01*
G04 APERTURE LIST*
%ADD10C,0.100000*%
%ADD11C,0.228600*%
%ADD12O,1.854200X2.540000*%
%ADD13R,1.854200X2.540000*%
%ADD14C,3.556000*%
%ADD15R,2.540000X1.270000*%
%ADD16R,1.270000X2.540000*%
%ADD17R,1.800000X2.000000*%
%ADD18C,2.340000*%
%ADD19R,2.075000X0.325000*%
%ADD20R,0.325000X2.075000*%
%ADD21R,3.475000X3.475000*%
%ADD22R,0.740000X1.690000*%
%ADD23R,0.762000X1.534160*%
G04 APERTURE END LIST*
D10*
D11*
X155575000Y-68580000D02*
X85725000Y-68580000D01*
X155575000Y-109220000D02*
X155575000Y-68580000D01*
X85725000Y-109220000D02*
X155575000Y-109220000D01*
X85725000Y-68580000D02*
X85725000Y-109220000D01*
D12*
X90805000Y-71120000D03*
X93345000Y-71120000D03*
D13*
X88265000Y-71120000D03*
D12*
X95885000Y-71120000D03*
X98425000Y-71120000D03*
X100965000Y-71120000D03*
X103505000Y-71120000D03*
X106045000Y-71120000D03*
X108585000Y-71120000D03*
X111125000Y-71120000D03*
X113665000Y-71120000D03*
X116205000Y-71120000D03*
X118745000Y-71120000D03*
X121285000Y-71120000D03*
X123825000Y-71120000D03*
X126365000Y-71120000D03*
X126365000Y-106680000D03*
X123825000Y-106680000D03*
X121285000Y-106680000D03*
X118745000Y-106680000D03*
X116205000Y-106680000D03*
X113665000Y-106680000D03*
X111125000Y-106680000D03*
X108585000Y-106680000D03*
X106045000Y-106680000D03*
X103505000Y-106680000D03*
X100965000Y-106680000D03*
X98425000Y-106680000D03*
X95885000Y-106680000D03*
X93345000Y-106680000D03*
X90805000Y-106680000D03*
X88265000Y-106680000D03*
D14*
X89535000Y-76200000D03*
X89535000Y-101600000D03*
X130175000Y-106680000D03*
X130175000Y-71120000D03*
D15*
X90170000Y-91694000D03*
X90170000Y-88646000D03*
X120650000Y-91694000D03*
X120650000Y-88646000D03*
X94615000Y-81534000D03*
X94615000Y-78486000D03*
D16*
X105029000Y-102235000D03*
X101981000Y-102235000D03*
D15*
X115570000Y-78486000D03*
X115570000Y-81534000D03*
D16*
X125984000Y-102235000D03*
X122936000Y-102235000D03*
D15*
X136525000Y-81534000D03*
X136525000Y-78486000D03*
D16*
X146939000Y-102235000D03*
X143891000Y-102235000D03*
D17*
X94615000Y-92270000D03*
X99695000Y-92270000D03*
X99695000Y-88070000D03*
X94615000Y-88070000D03*
D18*
X105255000Y-98425000D03*
X101755000Y-98425000D03*
X98255000Y-98425000D03*
X108755000Y-98425000D03*
X129710000Y-98425000D03*
X119210000Y-98425000D03*
X122710000Y-98425000D03*
X126210000Y-98425000D03*
X147165000Y-98425000D03*
X143665000Y-98425000D03*
X140165000Y-98425000D03*
X150665000Y-98425000D03*
D19*
X116030000Y-91920000D03*
X116030000Y-91420000D03*
X116030000Y-90920000D03*
X116030000Y-90420000D03*
X116030000Y-89920000D03*
X116030000Y-89420000D03*
X116030000Y-88920000D03*
X116030000Y-88420000D03*
X110030000Y-88420000D03*
X110030000Y-88920000D03*
X110030000Y-89420000D03*
X110030000Y-89920000D03*
X110030000Y-90420000D03*
X110030000Y-90920000D03*
X110030000Y-91420000D03*
X110030000Y-91920000D03*
D20*
X114780000Y-87170000D03*
X114280000Y-87170000D03*
X113780000Y-87170000D03*
X113280000Y-87170000D03*
X112780000Y-87170000D03*
X112280000Y-87170000D03*
X111780000Y-87170000D03*
X111280000Y-87170000D03*
X111280000Y-93170000D03*
X111780000Y-93170000D03*
X112280000Y-93170000D03*
X112780000Y-93170000D03*
X113280000Y-93170000D03*
X113780000Y-93170000D03*
X114280000Y-93170000D03*
X114780000Y-93170000D03*
D21*
X113030000Y-90170000D03*
D22*
X107315000Y-82710000D03*
X106045000Y-82710000D03*
X104775000Y-82710000D03*
X103505000Y-82710000D03*
X102235000Y-82710000D03*
X100965000Y-82710000D03*
X99695000Y-82710000D03*
X98425000Y-82710000D03*
X98425000Y-77310000D03*
X99695000Y-77310000D03*
X100965000Y-77310000D03*
X102235000Y-77310000D03*
X103505000Y-77310000D03*
X104775000Y-77310000D03*
X106045000Y-77310000D03*
X107315000Y-77310000D03*
D23*
X102555040Y-93416120D03*
X103505000Y-93416120D03*
X104454960Y-93416120D03*
X104454960Y-95813880D03*
X103505000Y-95813880D03*
X102555040Y-95813880D03*
D22*
X128270000Y-82710000D03*
X127000000Y-82710000D03*
X125730000Y-82710000D03*
X124460000Y-82710000D03*
X123190000Y-82710000D03*
X121920000Y-82710000D03*
X120650000Y-82710000D03*
X119380000Y-82710000D03*
X119380000Y-77310000D03*
X120650000Y-77310000D03*
X121920000Y-77310000D03*
X123190000Y-77310000D03*
X124460000Y-77310000D03*
X125730000Y-77310000D03*
X127000000Y-77310000D03*
X128270000Y-77310000D03*
D23*
X123510040Y-93416120D03*
X124460000Y-93416120D03*
X125409960Y-93416120D03*
X125409960Y-95813880D03*
X124460000Y-95813880D03*
X123510040Y-95813880D03*
D22*
X149225000Y-77310000D03*
X147955000Y-77310000D03*
X146685000Y-77310000D03*
X145415000Y-77310000D03*
X144145000Y-77310000D03*
X142875000Y-77310000D03*
X141605000Y-77310000D03*
X140335000Y-77310000D03*
X140335000Y-82710000D03*
X141605000Y-82710000D03*
X142875000Y-82710000D03*
X144145000Y-82710000D03*
X145415000Y-82710000D03*
X146685000Y-82710000D03*
X147955000Y-82710000D03*
X149225000Y-82710000D03*
D23*
X144465040Y-95813880D03*
X145415000Y-95813880D03*
X146364960Y-95813880D03*
X146364960Y-93416120D03*
X145415000Y-93416120D03*
X144465040Y-93416120D03*
M02*
