G04 #@! TF.GenerationSoftware,KiCad,Pcbnew,no-vcs-found-0f0cb64~58~ubuntu16.04.1*
G04 #@! TF.CreationDate,2017-03-29T15:35:20-04:00*
G04 #@! TF.ProjectId,step_dir_controller_3x2,737465705F6469725F636F6E74726F6C,1.0*
G04 #@! TF.FileFunction,Copper,L2,Bot,Signal*
G04 #@! TF.FilePolarity,Positive*
%FSLAX46Y46*%
G04 Gerber Fmt 4.6, Leading zero omitted, Abs format (unit mm)*
G04 Created by KiCad (PCBNEW no-vcs-found-0f0cb64~58~ubuntu16.04.1) date Wed Mar 29 15:35:20 2017*
%MOMM*%
%LPD*%
G01*
G04 APERTURE LIST*
%ADD10C,0.100000*%
%ADD11C,0.228600*%
%ADD12O,1.854200X2.540000*%
%ADD13R,1.854200X2.540000*%
%ADD14C,3.556000*%
%ADD15R,2.540000X1.270000*%
%ADD16R,1.270000X2.540000*%
%ADD17R,1.800000X2.000000*%
%ADD18C,2.340000*%
%ADD19R,2.000000X0.250000*%
%ADD20R,0.250000X2.000000*%
%ADD21R,3.400000X3.400000*%
%ADD22R,0.600000X1.550000*%
%ADD23R,0.558800X1.330960*%
%ADD24C,0.889000*%
%ADD25C,0.304800*%
%ADD26C,0.609600*%
%ADD27C,0.203200*%
G04 APERTURE END LIST*
D10*
D11*
X155575000Y-68580000D02*
X85725000Y-68580000D01*
X155575000Y-109220000D02*
X155575000Y-68580000D01*
X85725000Y-109220000D02*
X155575000Y-109220000D01*
X85725000Y-68580000D02*
X85725000Y-109220000D01*
D12*
X90805000Y-71120000D03*
X93345000Y-71120000D03*
D13*
X88265000Y-71120000D03*
D12*
X95885000Y-71120000D03*
X98425000Y-71120000D03*
X100965000Y-71120000D03*
X103505000Y-71120000D03*
X106045000Y-71120000D03*
X108585000Y-71120000D03*
X111125000Y-71120000D03*
X113665000Y-71120000D03*
X116205000Y-71120000D03*
X118745000Y-71120000D03*
X121285000Y-71120000D03*
X123825000Y-71120000D03*
X126365000Y-71120000D03*
X126365000Y-106680000D03*
X123825000Y-106680000D03*
X121285000Y-106680000D03*
X118745000Y-106680000D03*
X116205000Y-106680000D03*
X113665000Y-106680000D03*
X111125000Y-106680000D03*
X108585000Y-106680000D03*
X106045000Y-106680000D03*
X103505000Y-106680000D03*
X100965000Y-106680000D03*
X98425000Y-106680000D03*
X95885000Y-106680000D03*
X93345000Y-106680000D03*
X90805000Y-106680000D03*
X88265000Y-106680000D03*
D14*
X89535000Y-76200000D03*
X89535000Y-101600000D03*
X130175000Y-106680000D03*
X130175000Y-71120000D03*
D15*
X90170000Y-91694000D03*
X90170000Y-88646000D03*
X120650000Y-91694000D03*
X120650000Y-88646000D03*
X94615000Y-81534000D03*
X94615000Y-78486000D03*
D16*
X105029000Y-102235000D03*
X101981000Y-102235000D03*
D15*
X115570000Y-78486000D03*
X115570000Y-81534000D03*
D16*
X125984000Y-102235000D03*
X122936000Y-102235000D03*
D15*
X136525000Y-81534000D03*
X136525000Y-78486000D03*
D16*
X146939000Y-102235000D03*
X143891000Y-102235000D03*
D17*
X94615000Y-92270000D03*
X99695000Y-92270000D03*
X99695000Y-88070000D03*
X94615000Y-88070000D03*
D18*
X105255000Y-98425000D03*
X101755000Y-98425000D03*
X98255000Y-98425000D03*
X108755000Y-98425000D03*
X129710000Y-98425000D03*
X119210000Y-98425000D03*
X122710000Y-98425000D03*
X126210000Y-98425000D03*
X147165000Y-98425000D03*
X143665000Y-98425000D03*
X140165000Y-98425000D03*
X150665000Y-98425000D03*
D19*
X116030000Y-91920000D03*
X116030000Y-91420000D03*
X116030000Y-90920000D03*
X116030000Y-90420000D03*
X116030000Y-89920000D03*
X116030000Y-89420000D03*
X116030000Y-88920000D03*
X116030000Y-88420000D03*
X110030000Y-88420000D03*
X110030000Y-88920000D03*
X110030000Y-89420000D03*
X110030000Y-89920000D03*
X110030000Y-90420000D03*
X110030000Y-90920000D03*
X110030000Y-91420000D03*
X110030000Y-91920000D03*
D20*
X114780000Y-87170000D03*
X114280000Y-87170000D03*
X113780000Y-87170000D03*
X113280000Y-87170000D03*
X112780000Y-87170000D03*
X112280000Y-87170000D03*
X111780000Y-87170000D03*
X111280000Y-87170000D03*
X111280000Y-93170000D03*
X111780000Y-93170000D03*
X112280000Y-93170000D03*
X112780000Y-93170000D03*
X113280000Y-93170000D03*
X113780000Y-93170000D03*
X114280000Y-93170000D03*
X114780000Y-93170000D03*
D21*
X113030000Y-90170000D03*
D22*
X107315000Y-82710000D03*
X106045000Y-82710000D03*
X104775000Y-82710000D03*
X103505000Y-82710000D03*
X102235000Y-82710000D03*
X100965000Y-82710000D03*
X99695000Y-82710000D03*
X98425000Y-82710000D03*
X98425000Y-77310000D03*
X99695000Y-77310000D03*
X100965000Y-77310000D03*
X102235000Y-77310000D03*
X103505000Y-77310000D03*
X104775000Y-77310000D03*
X106045000Y-77310000D03*
X107315000Y-77310000D03*
D23*
X102555040Y-93416120D03*
X103505000Y-93416120D03*
X104454960Y-93416120D03*
X104454960Y-95813880D03*
X103505000Y-95813880D03*
X102555040Y-95813880D03*
D22*
X128270000Y-82710000D03*
X127000000Y-82710000D03*
X125730000Y-82710000D03*
X124460000Y-82710000D03*
X123190000Y-82710000D03*
X121920000Y-82710000D03*
X120650000Y-82710000D03*
X119380000Y-82710000D03*
X119380000Y-77310000D03*
X120650000Y-77310000D03*
X121920000Y-77310000D03*
X123190000Y-77310000D03*
X124460000Y-77310000D03*
X125730000Y-77310000D03*
X127000000Y-77310000D03*
X128270000Y-77310000D03*
D23*
X123510040Y-93416120D03*
X124460000Y-93416120D03*
X125409960Y-93416120D03*
X125409960Y-95813880D03*
X124460000Y-95813880D03*
X123510040Y-95813880D03*
D22*
X149225000Y-77310000D03*
X147955000Y-77310000D03*
X146685000Y-77310000D03*
X145415000Y-77310000D03*
X144145000Y-77310000D03*
X142875000Y-77310000D03*
X141605000Y-77310000D03*
X140335000Y-77310000D03*
X140335000Y-82710000D03*
X141605000Y-82710000D03*
X142875000Y-82710000D03*
X144145000Y-82710000D03*
X145415000Y-82710000D03*
X146685000Y-82710000D03*
X147955000Y-82710000D03*
X149225000Y-82710000D03*
D23*
X144465040Y-95813880D03*
X145415000Y-95813880D03*
X146364960Y-95813880D03*
X146364960Y-93416120D03*
X145415000Y-93416120D03*
X144465040Y-93416120D03*
D24*
X96901000Y-78690000D03*
X109669400Y-76960400D03*
X110551300Y-81641100D03*
X118472900Y-94283700D03*
X111282900Y-83064900D03*
X112034000Y-83812700D03*
X112734800Y-84513600D03*
X110124000Y-87740500D03*
X104775000Y-84150500D03*
X107101000Y-81362900D03*
X102044600Y-81333500D03*
X102235000Y-84050200D03*
X99657000Y-78652700D03*
X99828400Y-79769000D03*
X120567600Y-79967200D03*
X120650000Y-78645400D03*
X123167800Y-84052900D03*
X123090600Y-81333500D03*
X128079600Y-81353500D03*
X125760400Y-85200100D03*
X144145000Y-86604800D03*
X149025100Y-81333500D03*
X144006400Y-81346700D03*
X144145000Y-84150500D03*
X141605000Y-78650000D03*
X141504400Y-80312500D03*
X105404100Y-96495000D03*
X114109100Y-95261800D03*
X101711400Y-95769600D03*
X111703100Y-94831700D03*
X122851400Y-94477100D03*
X113316000Y-85334100D03*
X142506400Y-95776500D03*
X115891400Y-95776500D03*
X116350900Y-87738200D03*
X115602400Y-92662500D03*
D25*
X101981000Y-102235000D02*
X101981000Y-100685600D01*
X144145000Y-77310000D02*
X144145000Y-78364400D01*
X124460000Y-93416100D02*
X124460000Y-92471200D01*
X99105300Y-88070000D02*
X98515600Y-88070000D01*
X99105300Y-88070000D02*
X99695000Y-88070000D01*
X98515600Y-83855000D02*
X98425000Y-83764400D01*
X98515600Y-88070000D02*
X98515600Y-83855000D01*
X122936000Y-98651000D02*
X122936000Y-102235000D01*
X122710000Y-98425000D02*
X122936000Y-98651000D01*
X136525000Y-81534000D02*
X136525000Y-80619600D01*
X98425000Y-82710000D02*
X98425000Y-83764400D01*
X143891000Y-98651000D02*
X143891000Y-102235000D01*
X143665000Y-98425000D02*
X143891000Y-98651000D01*
X90170000Y-91694000D02*
X90170000Y-90779600D01*
X90805000Y-71120000D02*
X90805000Y-72669400D01*
X88645600Y-84455800D02*
X91567400Y-81534000D01*
X88645600Y-89483800D02*
X88645600Y-84455800D01*
X89941400Y-90779600D02*
X88645600Y-89483800D01*
X90170000Y-90779600D02*
X89941400Y-90779600D01*
X91567400Y-73431800D02*
X90805000Y-72669400D01*
X91567400Y-81534000D02*
X91567400Y-73431800D01*
X91567400Y-81534000D02*
X94615000Y-81534000D01*
X98425000Y-82710000D02*
X98425000Y-82182800D01*
X94615000Y-81534000D02*
X96164400Y-81534000D01*
X106045000Y-77310000D02*
X106045000Y-78364400D01*
X140335000Y-82710000D02*
X140335000Y-81655600D01*
X138196000Y-81655600D02*
X138074400Y-81534000D01*
X140335000Y-81655600D02*
X138196000Y-81655600D01*
X136525000Y-81534000D02*
X138074400Y-81534000D01*
X123190000Y-77310000D02*
X123190000Y-78364400D01*
X119380000Y-82710000D02*
X119380000Y-81655600D01*
X119898800Y-81655600D02*
X119380000Y-81655600D01*
X123190000Y-78364400D02*
X119898800Y-81655600D01*
X119258400Y-81534000D02*
X117119400Y-81534000D01*
X119380000Y-81655600D02*
X119258400Y-81534000D01*
X99695000Y-88070000D02*
X100874400Y-88070000D01*
X110030000Y-89420000D02*
X111309400Y-89420000D01*
X127000000Y-77310000D02*
X127000000Y-78364400D01*
X127000000Y-78364400D02*
X123190000Y-78364400D01*
X129255200Y-80619600D02*
X127000000Y-78364400D01*
X136525000Y-80619600D02*
X129255200Y-80619600D01*
X141200900Y-81655600D02*
X140335000Y-81655600D01*
X144145000Y-78711500D02*
X141200900Y-81655600D01*
X144145000Y-78364400D02*
X144145000Y-78711500D01*
X147955000Y-77310000D02*
X147955000Y-78364400D01*
X144145000Y-78364400D02*
X147955000Y-78364400D01*
X102224400Y-89420000D02*
X110030000Y-89420000D01*
X100874400Y-88070000D02*
X102224400Y-89420000D01*
X116090600Y-81534000D02*
X117119400Y-81534000D01*
X116090600Y-81534000D02*
X115570000Y-81534000D01*
X145415000Y-93416100D02*
X145415000Y-92585400D01*
X150665000Y-96349600D02*
X150665000Y-98425000D01*
X146786600Y-92471200D02*
X150665000Y-96349600D01*
X145529200Y-92471200D02*
X146786600Y-92471200D01*
X145415000Y-92585400D02*
X145529200Y-92471200D01*
X120650000Y-91694000D02*
X119100600Y-91694000D01*
X115570000Y-81534000D02*
X114020600Y-81534000D01*
X125777700Y-92471200D02*
X124460000Y-92471200D01*
X129710000Y-96403500D02*
X125777700Y-92471200D01*
X129710000Y-98425000D02*
X129710000Y-96403500D01*
X122976600Y-92471200D02*
X122199400Y-91694000D01*
X124460000Y-92471200D02*
X122976600Y-92471200D01*
X120650000Y-91694000D02*
X122199400Y-91694000D01*
X103505000Y-93416100D02*
X103505000Y-92471200D01*
X111309400Y-89420000D02*
X111309400Y-90170000D01*
X111309400Y-90170000D02*
X111309400Y-90420000D01*
X110030000Y-90420000D02*
X111309400Y-90420000D01*
X118826600Y-91420000D02*
X116030000Y-91420000D01*
X119100600Y-91694000D02*
X118826600Y-91420000D01*
X114750600Y-93140600D02*
X114780000Y-93170000D01*
X114750600Y-91420000D02*
X114750600Y-93140600D01*
X116030000Y-91420000D02*
X114750600Y-91420000D01*
X111309400Y-90170000D02*
X113030000Y-90170000D01*
X114280000Y-91420000D02*
X114750600Y-91420000D01*
X113030000Y-90170000D02*
X114280000Y-91420000D01*
X96813200Y-82182800D02*
X98425000Y-82182800D01*
X96164400Y-81534000D02*
X96813200Y-82182800D01*
X110851000Y-78364400D02*
X106045000Y-78364400D01*
X114020600Y-81534000D02*
X110851000Y-78364400D01*
X106045000Y-78364400D02*
X102235000Y-78364400D01*
X102235000Y-78372800D02*
X102235000Y-78364400D01*
X98425000Y-82182800D02*
X102235000Y-78372800D01*
X102235000Y-78364400D02*
X102235000Y-77310000D01*
X107220700Y-92471200D02*
X103505000Y-92471200D01*
X107220700Y-91762900D02*
X107220700Y-92471200D01*
X108563600Y-90420000D02*
X107220700Y-91762900D01*
X110030000Y-90420000D02*
X108563600Y-90420000D01*
X107220700Y-96890700D02*
X108039000Y-97708900D01*
X107220700Y-92471200D02*
X107220700Y-96890700D01*
X108039000Y-97708900D02*
X108755000Y-98425000D01*
X105844800Y-99903100D02*
X101981000Y-99903100D01*
X108039000Y-97708900D02*
X105844800Y-99903100D01*
X101981000Y-100685600D02*
X101981000Y-99903100D01*
X101981000Y-98651000D02*
X101755000Y-98425000D01*
X101981000Y-99903100D02*
X101981000Y-98651000D01*
X120650000Y-88646000D02*
X120650000Y-89103200D01*
X95885000Y-106680000D02*
X97091500Y-106680000D01*
X103505000Y-95813900D02*
X103505000Y-96758800D01*
X97091500Y-105998200D02*
X99686600Y-103403100D01*
X97091500Y-106680000D02*
X97091500Y-105998200D01*
X100042900Y-103759400D02*
X99686600Y-103403100D01*
X102818800Y-103759400D02*
X100042900Y-103759400D01*
X104114600Y-102463600D02*
X102818800Y-103759400D01*
X104114600Y-102235000D02*
X104114600Y-102463600D01*
X105029000Y-102235000D02*
X104114600Y-102235000D01*
X125984000Y-102235000D02*
X126898400Y-102235000D01*
X125984000Y-102235000D02*
X125069600Y-102235000D01*
X90170000Y-88646000D02*
X91719400Y-88646000D01*
X94615000Y-88646000D02*
X91719400Y-88646000D01*
X94615000Y-92270000D02*
X94615000Y-88646000D01*
X94615000Y-88646000D02*
X94615000Y-88070000D01*
X116030000Y-90420000D02*
X116030000Y-90920000D01*
X119333200Y-90420000D02*
X116030000Y-90420000D01*
X120650000Y-89103200D02*
X119333200Y-90420000D01*
X136255800Y-92064400D02*
X131135400Y-97184800D01*
X146966600Y-92064400D02*
X136255800Y-92064400D01*
X152107100Y-97204900D02*
X146966600Y-92064400D01*
X152107100Y-99032700D02*
X152107100Y-97204900D01*
X148904800Y-102235000D02*
X152107100Y-99032700D01*
X146939000Y-102235000D02*
X148904800Y-102235000D01*
X123053800Y-89103200D02*
X131135400Y-97184800D01*
X120650000Y-89103200D02*
X123053800Y-89103200D01*
X127958300Y-102235000D02*
X126898400Y-102235000D01*
X131135400Y-99057900D02*
X127958300Y-102235000D01*
X131135400Y-97184800D02*
X131135400Y-99057900D01*
X145415000Y-101625400D02*
X146024600Y-102235000D01*
X145415000Y-95813900D02*
X145415000Y-101625400D01*
X124460000Y-101625400D02*
X125069600Y-102235000D01*
X124460000Y-95813900D02*
X124460000Y-101625400D01*
X146939000Y-102235000D02*
X146481800Y-102235000D01*
X146481800Y-102235000D02*
X146024600Y-102235000D01*
X105029000Y-102235000D02*
X105943400Y-102235000D01*
X94615000Y-96847100D02*
X94615000Y-92270000D01*
X97635200Y-99867300D02*
X94615000Y-96847100D01*
X99686600Y-99867300D02*
X97635200Y-99867300D01*
X99686600Y-103403100D02*
X99686600Y-99867300D01*
X101357500Y-96758800D02*
X103505000Y-96758800D01*
X99686600Y-98429700D02*
X101357500Y-96758800D01*
X99686600Y-99867300D02*
X99686600Y-98429700D01*
X110186400Y-102235000D02*
X105943400Y-102235000D01*
X112154000Y-104202600D02*
X110186400Y-102235000D01*
X144514200Y-104202600D02*
X112154000Y-104202600D01*
X146481800Y-102235000D02*
X144514200Y-104202600D01*
X108655400Y-90920000D02*
X110030000Y-90920000D01*
X108327900Y-91247500D02*
X108655400Y-90920000D01*
X108327900Y-94717100D02*
X108327900Y-91247500D01*
X110186400Y-96575600D02*
X108327900Y-94717100D01*
X110186400Y-102235000D02*
X110186400Y-96575600D01*
D26*
X96520800Y-78690000D02*
X96316800Y-78486000D01*
X96901000Y-78690000D02*
X96520800Y-78690000D01*
X94615000Y-78486000D02*
X96316800Y-78486000D01*
X115570000Y-78486000D02*
X115570000Y-77419200D01*
X116872100Y-76117100D02*
X115570000Y-77419200D01*
X127516000Y-76117100D02*
X116872100Y-76117100D01*
X128270000Y-76871100D02*
X127516000Y-76117100D01*
X128270000Y-77291100D02*
X128270000Y-76871100D01*
X114254000Y-76103200D02*
X115570000Y-77419200D01*
X107315000Y-76103200D02*
X114254000Y-76103200D01*
X107315000Y-77310000D02*
X107315000Y-76293600D01*
X107315000Y-76293600D02*
X107315000Y-76128200D01*
X138292000Y-75652200D02*
X136525000Y-77419200D01*
X148774000Y-75652200D02*
X138292000Y-75652200D01*
X149225000Y-76103200D02*
X148774000Y-75652200D01*
X149225000Y-77310000D02*
X149225000Y-76103200D01*
X136525000Y-78486000D02*
X136525000Y-77419200D01*
X128270000Y-77310000D02*
X128270000Y-77300500D01*
X128270000Y-77300500D02*
X128270000Y-77291100D01*
X136406300Y-77300500D02*
X136525000Y-77419200D01*
X128270000Y-77300500D02*
X136406300Y-77300500D01*
X107315000Y-76128200D02*
X107315000Y-76115700D01*
X107315000Y-76115700D02*
X107315000Y-76103200D01*
X96901000Y-77163200D02*
X96901000Y-78690000D01*
X97948500Y-76115700D02*
X96901000Y-77163200D01*
X107315000Y-76115700D02*
X97948500Y-76115700D01*
D25*
X99695000Y-92270000D02*
X100874400Y-92270000D01*
X110030000Y-89920000D02*
X108750600Y-89920000D01*
X103224400Y-89920000D02*
X108750600Y-89920000D01*
X100874400Y-92270000D02*
X103224400Y-89920000D01*
X97218500Y-72326500D02*
X97218500Y-71120000D01*
X93090600Y-76454400D02*
X97218500Y-72326500D01*
X93090600Y-79271300D02*
X93090600Y-76454400D01*
X93256100Y-79436800D02*
X93090600Y-79271300D01*
X97352600Y-79436800D02*
X93256100Y-79436800D01*
X98425000Y-78364400D02*
X97352600Y-79436800D01*
X98425000Y-77310000D02*
X98425000Y-78364400D01*
X98425000Y-71120000D02*
X97218500Y-71120000D01*
X119380000Y-77310000D02*
X119380000Y-78364400D01*
X110746600Y-76960400D02*
X109669400Y-76960400D01*
X113161600Y-79375400D02*
X110746600Y-76960400D01*
X118369000Y-79375400D02*
X113161600Y-79375400D01*
X119380000Y-78364400D02*
X118369000Y-79375400D01*
X102298500Y-71857400D02*
X102298500Y-71120000D01*
X101471400Y-72684500D02*
X102298500Y-71857400D01*
X100493700Y-72684500D02*
X101471400Y-72684500D01*
X99750000Y-71940800D02*
X100493700Y-72684500D01*
X99750000Y-70312800D02*
X99750000Y-71940800D01*
X101014100Y-69048700D02*
X99750000Y-70312800D01*
X143028100Y-69048700D02*
X101014100Y-69048700D01*
X149805300Y-75825900D02*
X143028100Y-69048700D01*
X149805300Y-78181800D02*
X149805300Y-75825900D01*
X149618300Y-78368800D02*
X149805300Y-78181800D01*
X148849200Y-78368800D02*
X149618300Y-78368800D01*
X148509400Y-78029000D02*
X148849200Y-78368800D01*
X148509400Y-76429700D02*
X148509400Y-78029000D01*
X148335300Y-76255600D02*
X148509400Y-76429700D01*
X140335000Y-76255600D02*
X148335300Y-76255600D01*
X140335000Y-77310000D02*
X140335000Y-76255600D01*
X103505000Y-71120000D02*
X102298500Y-71120000D01*
X113780000Y-87170000D02*
X113780000Y-85890600D01*
X110850800Y-81641100D02*
X110551300Y-81641100D01*
X114014800Y-84805100D02*
X110850800Y-81641100D01*
X114014800Y-85655800D02*
X114014800Y-84805100D01*
X113780000Y-85890600D02*
X114014800Y-85655800D01*
X112280000Y-94420300D02*
X112280000Y-93170000D01*
X112401900Y-94542200D02*
X112280000Y-94420300D01*
X112401900Y-95162700D02*
X112401900Y-94542200D01*
X113721400Y-96482200D02*
X112401900Y-95162700D01*
X116274400Y-96482200D02*
X113721400Y-96482200D01*
X118472900Y-94283700D02*
X116274400Y-96482200D01*
X108750600Y-85597200D02*
X111282900Y-83064900D01*
X108750600Y-88920000D02*
X108750600Y-85597200D01*
X110030000Y-88920000D02*
X108750600Y-88920000D01*
X111780000Y-84066700D02*
X112034000Y-83812700D01*
X111780000Y-87170000D02*
X111780000Y-84066700D01*
X112780000Y-87170000D02*
X112780000Y-85890600D01*
X112579600Y-84668800D02*
X112734800Y-84513600D01*
X112579600Y-85690200D02*
X112579600Y-84668800D01*
X112780000Y-85890600D02*
X112579600Y-85690200D01*
X110124000Y-88326000D02*
X110124000Y-87740500D01*
X110030000Y-88420000D02*
X110124000Y-88326000D01*
X104775000Y-84150500D02*
X104775000Y-82710000D01*
X106045000Y-82710000D02*
X106045000Y-81655600D01*
X106337700Y-81362900D02*
X107101000Y-81362900D01*
X106045000Y-81655600D02*
X106337700Y-81362900D01*
X100965000Y-82710000D02*
X100965000Y-81655600D01*
X101287100Y-81333500D02*
X100965000Y-81655600D01*
X102044600Y-81333500D02*
X101287100Y-81333500D01*
X102235000Y-82710000D02*
X102235000Y-84050200D01*
X99695000Y-78614700D02*
X99657000Y-78652700D01*
X99695000Y-77310000D02*
X99695000Y-78614700D01*
X100965000Y-78632400D02*
X100965000Y-77310000D01*
X99828400Y-79769000D02*
X100965000Y-78632400D01*
X121920000Y-78614800D02*
X120567600Y-79967200D01*
X121920000Y-77310000D02*
X121920000Y-78614800D01*
X120650000Y-77310000D02*
X120650000Y-78645400D01*
X123190000Y-84030700D02*
X123167800Y-84052900D01*
X123190000Y-82710000D02*
X123190000Y-84030700D01*
X122768500Y-81655600D02*
X121920000Y-81655600D01*
X123090600Y-81333500D02*
X122768500Y-81655600D01*
X121920000Y-82710000D02*
X121920000Y-81655600D01*
X127000000Y-82710000D02*
X127000000Y-81655600D01*
X127302100Y-81353500D02*
X127000000Y-81655600D01*
X128079600Y-81353500D02*
X127302100Y-81353500D01*
X125730000Y-85169700D02*
X125760400Y-85200100D01*
X125730000Y-82710000D02*
X125730000Y-85169700D01*
X146685000Y-82710000D02*
X146685000Y-83764400D01*
X144145000Y-86304400D02*
X144145000Y-86604800D01*
X146685000Y-83764400D02*
X144145000Y-86304400D01*
X147955000Y-82710000D02*
X147955000Y-81655600D01*
X148277100Y-81333500D02*
X147955000Y-81655600D01*
X149025100Y-81333500D02*
X148277100Y-81333500D01*
X143697500Y-81655600D02*
X142875000Y-81655600D01*
X144006400Y-81346700D02*
X143697500Y-81655600D01*
X142875000Y-82710000D02*
X142875000Y-81655600D01*
X144145000Y-84150500D02*
X144145000Y-82710000D01*
X141605000Y-77310000D02*
X141605000Y-78650000D01*
X142875000Y-77310000D02*
X142875000Y-78364400D01*
X142875000Y-78941900D02*
X142875000Y-78364400D01*
X141504400Y-80312500D02*
X142875000Y-78941900D01*
X105140300Y-96758800D02*
X105404100Y-96495000D01*
X104455000Y-96758800D02*
X105140300Y-96758800D01*
X113280000Y-94543000D02*
X113280000Y-93170000D01*
X113998800Y-95261800D02*
X113280000Y-94543000D01*
X114109100Y-95261800D02*
X113998800Y-95261800D01*
X104455000Y-95813900D02*
X104455000Y-96758800D01*
X101755700Y-95813900D02*
X101711400Y-95769600D01*
X102555000Y-95813900D02*
X101755700Y-95813900D01*
X111780000Y-94754800D02*
X111703100Y-94831700D01*
X111780000Y-93170000D02*
X111780000Y-94754800D01*
X123510000Y-95813900D02*
X123510000Y-96758800D01*
X110030000Y-94154300D02*
X110030000Y-91920000D01*
X115725100Y-99849400D02*
X110030000Y-94154300D01*
X119806300Y-99849400D02*
X115725100Y-99849400D01*
X120960100Y-98695600D02*
X119806300Y-99849400D01*
X120960100Y-98132000D02*
X120960100Y-98695600D01*
X122333300Y-96758800D02*
X120960100Y-98132000D01*
X123510000Y-96758800D02*
X122333300Y-96758800D01*
X124427800Y-94477100D02*
X122851400Y-94477100D01*
X125410000Y-95459300D02*
X124427800Y-94477100D01*
X125410000Y-95813900D02*
X125410000Y-95459300D01*
X113280000Y-85370100D02*
X113316000Y-85334100D01*
X113280000Y-87170000D02*
X113280000Y-85370100D01*
X143388900Y-94894000D02*
X142506400Y-95776500D01*
X145883900Y-94894000D02*
X143388900Y-94894000D01*
X146365000Y-95375100D02*
X145883900Y-94894000D01*
X146365000Y-95813900D02*
X146365000Y-95375100D01*
X115707300Y-95960600D02*
X115891400Y-95776500D01*
X113791200Y-95960600D02*
X115707300Y-95960600D01*
X112808600Y-94978000D02*
X113791200Y-95960600D01*
X112808600Y-93198600D02*
X112808600Y-94978000D01*
X112780000Y-93170000D02*
X112808600Y-93198600D01*
X108750600Y-93465400D02*
X108750600Y-91420000D01*
X119047500Y-103762300D02*
X108750600Y-93465400D01*
X136856400Y-103762300D02*
X119047500Y-103762300D01*
X141915100Y-98703600D02*
X136856400Y-103762300D01*
X141915100Y-98143900D02*
X141915100Y-98703600D01*
X143300200Y-96758800D02*
X141915100Y-98143900D01*
X144465000Y-96758800D02*
X143300200Y-96758800D01*
X144465000Y-95813900D02*
X144465000Y-96758800D01*
X110030000Y-91420000D02*
X108750600Y-91420000D01*
X117475000Y-89920000D02*
X116030000Y-89920000D01*
X118952300Y-88442700D02*
X117475000Y-89920000D01*
X118952300Y-88078500D02*
X118952300Y-88442700D01*
X119320400Y-87710400D02*
X118952300Y-88078500D01*
X145854300Y-87710400D02*
X119320400Y-87710400D01*
X149808700Y-83756000D02*
X145854300Y-87710400D01*
X149808700Y-81121600D02*
X149808700Y-83756000D01*
X149293200Y-80606100D02*
X149808700Y-81121600D01*
X143301000Y-80606100D02*
X149293200Y-80606100D01*
X141605000Y-82302100D02*
X143301000Y-80606100D01*
X141605000Y-82710000D02*
X141605000Y-82302100D01*
X149225000Y-82710000D02*
X149225000Y-83764400D01*
X116030000Y-89420000D02*
X117309400Y-89420000D01*
X117395300Y-89420000D02*
X117309400Y-89420000D01*
X118401700Y-88413600D02*
X117395300Y-89420000D01*
X118401700Y-87982300D02*
X118401700Y-88413600D01*
X119080300Y-87303700D02*
X118401700Y-87982300D01*
X145685700Y-87303700D02*
X119080300Y-87303700D01*
X149225000Y-83764400D02*
X145685700Y-87303700D01*
X128270000Y-82710000D02*
X128270000Y-83764400D01*
X116030000Y-88920000D02*
X117309400Y-88920000D01*
X117309400Y-88496800D02*
X117309400Y-88920000D01*
X118909200Y-86897000D02*
X117309400Y-88496800D01*
X125137400Y-86897000D02*
X118909200Y-86897000D01*
X128270000Y-83764400D02*
X125137400Y-86897000D01*
X99695000Y-82710000D02*
X99695000Y-81655600D01*
X100815000Y-80535600D02*
X99695000Y-81655600D01*
X111042600Y-80535600D02*
X100815000Y-80535600D01*
X115440200Y-84933200D02*
X111042600Y-80535600D01*
X115440200Y-87830200D02*
X115440200Y-84933200D01*
X116030000Y-88420000D02*
X115440200Y-87830200D01*
X109082700Y-80942300D02*
X107315000Y-82710000D01*
X110874200Y-80942300D02*
X109082700Y-80942300D01*
X114453700Y-84521800D02*
X110874200Y-80942300D01*
X114453700Y-85792200D02*
X114453700Y-84521800D01*
X114280000Y-85965900D02*
X114453700Y-85792200D01*
X114280000Y-87170000D02*
X114280000Y-85965900D01*
X113780000Y-93170000D02*
X113780000Y-94449400D01*
X120650000Y-82710000D02*
X120650000Y-83764400D01*
X120324700Y-83764400D02*
X116350900Y-87738200D01*
X120650000Y-83764400D02*
X120324700Y-83764400D01*
X115602400Y-93836200D02*
X115602400Y-92662500D01*
X114989200Y-94449400D02*
X115602400Y-93836200D01*
X113780000Y-94449400D02*
X114989200Y-94449400D01*
X104455000Y-93416100D02*
X104455000Y-94361000D01*
X106113500Y-96019500D02*
X104455000Y-94361000D01*
X106113500Y-97566500D02*
X106113500Y-96019500D01*
X105255000Y-98425000D02*
X106113500Y-97566500D01*
X98255000Y-98182900D02*
X98255000Y-98425000D01*
X102076900Y-94361000D02*
X98255000Y-98182900D01*
X102555000Y-94361000D02*
X102076900Y-94361000D01*
X102555000Y-93416100D02*
X102555000Y-94361000D01*
X119210000Y-97117400D02*
X119210000Y-98425000D01*
X122911300Y-93416100D02*
X119210000Y-97117400D01*
X123510000Y-93416100D02*
X122911300Y-93416100D01*
X126210000Y-95161000D02*
X126210000Y-98425000D01*
X125410000Y-94361000D02*
X126210000Y-95161000D01*
X125410000Y-93416100D02*
X125410000Y-94361000D01*
X147165000Y-95161000D02*
X147165000Y-98425000D01*
X146365000Y-94361000D02*
X147165000Y-95161000D01*
X146365000Y-93416100D02*
X146365000Y-94361000D01*
X140165000Y-97120500D02*
X140165000Y-98425000D01*
X142924500Y-94361000D02*
X140165000Y-97120500D01*
X144465000Y-94361000D02*
X142924500Y-94361000D01*
X144465000Y-93416100D02*
X144465000Y-94361000D01*
D27*
G36*
X99426711Y-69989511D02*
X99399600Y-70030085D01*
X99296085Y-69875163D01*
X98896428Y-69608121D01*
X98425000Y-69514348D01*
X97953572Y-69608121D01*
X97553915Y-69875163D01*
X97286873Y-70274820D01*
X97209336Y-70664623D01*
X97104800Y-70685416D01*
X97023127Y-70274820D01*
X96756085Y-69875163D01*
X96356428Y-69608121D01*
X95885000Y-69514348D01*
X95413572Y-69608121D01*
X95013915Y-69875163D01*
X94746873Y-70274820D01*
X94653100Y-70746248D01*
X94653100Y-71493752D01*
X94746873Y-71965180D01*
X95013915Y-72364837D01*
X95413572Y-72631879D01*
X95885000Y-72725652D01*
X96244224Y-72654198D01*
X92767311Y-76131111D01*
X92668202Y-76279437D01*
X92633400Y-76454400D01*
X92633400Y-79271300D01*
X92668202Y-79446263D01*
X92767311Y-79594589D01*
X92932811Y-79760089D01*
X93081137Y-79859198D01*
X93256100Y-79894000D01*
X97352600Y-79894000D01*
X97527563Y-79859198D01*
X97675889Y-79760089D01*
X98748289Y-78687689D01*
X98847398Y-78539363D01*
X98882200Y-78364400D01*
X98882200Y-78346542D01*
X98944748Y-78304748D01*
X99012115Y-78203927D01*
X99035771Y-78085000D01*
X99035771Y-76725300D01*
X99084229Y-76725300D01*
X99084229Y-78085000D01*
X99097626Y-78152351D01*
X99022144Y-78227701D01*
X98907830Y-78503001D01*
X98907570Y-78801091D01*
X99021404Y-79076590D01*
X99232001Y-79287556D01*
X99244775Y-79292860D01*
X99193544Y-79344001D01*
X99079230Y-79619301D01*
X99078970Y-79917391D01*
X99192804Y-80192890D01*
X99403401Y-80403856D01*
X99678701Y-80518170D01*
X99976791Y-80518430D01*
X100252290Y-80404596D01*
X100463256Y-80193999D01*
X100577570Y-79918699D01*
X100577790Y-79666188D01*
X101288289Y-78955689D01*
X101387398Y-78807363D01*
X101422200Y-78632400D01*
X101422200Y-78434305D01*
X101589689Y-78601794D01*
X101813743Y-78694600D01*
X101932600Y-78694600D01*
X102085000Y-78542200D01*
X102085000Y-77462400D01*
X102062600Y-77462400D01*
X102062600Y-77157600D01*
X102085000Y-77157600D01*
X102085000Y-77137600D01*
X102385000Y-77137600D01*
X102385000Y-77157600D01*
X102407400Y-77157600D01*
X102407400Y-77462400D01*
X102385000Y-77462400D01*
X102385000Y-78542200D01*
X102537400Y-78694600D01*
X102656257Y-78694600D01*
X102880311Y-78601794D01*
X103051794Y-78430311D01*
X103078105Y-78366791D01*
X103086073Y-78372115D01*
X103205000Y-78395771D01*
X103805000Y-78395771D01*
X103923927Y-78372115D01*
X104024748Y-78304748D01*
X104092115Y-78203927D01*
X104115771Y-78085000D01*
X104115771Y-76725300D01*
X104164229Y-76725300D01*
X104164229Y-78085000D01*
X104187885Y-78203927D01*
X104255252Y-78304748D01*
X104356073Y-78372115D01*
X104475000Y-78395771D01*
X105075000Y-78395771D01*
X105193927Y-78372115D01*
X105201895Y-78366791D01*
X105228206Y-78430311D01*
X105399689Y-78601794D01*
X105623743Y-78694600D01*
X105742600Y-78694600D01*
X105895000Y-78542200D01*
X105895000Y-77462400D01*
X105872600Y-77462400D01*
X105872600Y-77157600D01*
X105895000Y-77157600D01*
X105895000Y-77137600D01*
X106195000Y-77137600D01*
X106195000Y-77157600D01*
X106217400Y-77157600D01*
X106217400Y-77462400D01*
X106195000Y-77462400D01*
X106195000Y-78542200D01*
X106347400Y-78694600D01*
X106466257Y-78694600D01*
X106690311Y-78601794D01*
X106861794Y-78430311D01*
X106888105Y-78366791D01*
X106896073Y-78372115D01*
X107015000Y-78395771D01*
X107615000Y-78395771D01*
X107733927Y-78372115D01*
X107834748Y-78304748D01*
X107902115Y-78203927D01*
X107925771Y-78085000D01*
X107925771Y-76712800D01*
X108960882Y-76712800D01*
X108920230Y-76810701D01*
X108919970Y-77108791D01*
X109033804Y-77384290D01*
X109244401Y-77595256D01*
X109519701Y-77709570D01*
X109817791Y-77709830D01*
X110093290Y-77595996D01*
X110271999Y-77417600D01*
X110557222Y-77417600D01*
X112838311Y-79698689D01*
X112986637Y-79797798D01*
X113161600Y-79832600D01*
X118369000Y-79832600D01*
X118543963Y-79797798D01*
X118692289Y-79698689D01*
X119703289Y-78687689D01*
X119802398Y-78539363D01*
X119837200Y-78364400D01*
X119837200Y-78346542D01*
X119899748Y-78304748D01*
X119967115Y-78203927D01*
X119990771Y-78085000D01*
X119990771Y-76726700D01*
X120039229Y-76726700D01*
X120039229Y-78085000D01*
X120057710Y-78177910D01*
X120015144Y-78220401D01*
X119900830Y-78495701D01*
X119900570Y-78793791D01*
X120014404Y-79069290D01*
X120225001Y-79280256D01*
X120246438Y-79289157D01*
X120143710Y-79331604D01*
X119932744Y-79542201D01*
X119818430Y-79817501D01*
X119818170Y-80115591D01*
X119932004Y-80391090D01*
X120142601Y-80602056D01*
X120417901Y-80716370D01*
X120715991Y-80716630D01*
X120991490Y-80602796D01*
X121202456Y-80392199D01*
X121316770Y-80116899D01*
X121316990Y-79864388D01*
X122243289Y-78938090D01*
X122342398Y-78789763D01*
X122356417Y-78719284D01*
X122377200Y-78614800D01*
X122377200Y-78434305D01*
X122544689Y-78601794D01*
X122768743Y-78694600D01*
X122887600Y-78694600D01*
X123040000Y-78542200D01*
X123040000Y-77462400D01*
X123017600Y-77462400D01*
X123017600Y-77157600D01*
X123040000Y-77157600D01*
X123040000Y-77137600D01*
X123340000Y-77137600D01*
X123340000Y-77157600D01*
X123362400Y-77157600D01*
X123362400Y-77462400D01*
X123340000Y-77462400D01*
X123340000Y-78542200D01*
X123492400Y-78694600D01*
X123611257Y-78694600D01*
X123835311Y-78601794D01*
X124006794Y-78430311D01*
X124033105Y-78366791D01*
X124041073Y-78372115D01*
X124160000Y-78395771D01*
X124760000Y-78395771D01*
X124878927Y-78372115D01*
X124979748Y-78304748D01*
X125047115Y-78203927D01*
X125070771Y-78085000D01*
X125070771Y-76726700D01*
X125119229Y-76726700D01*
X125119229Y-78085000D01*
X125142885Y-78203927D01*
X125210252Y-78304748D01*
X125311073Y-78372115D01*
X125430000Y-78395771D01*
X126030000Y-78395771D01*
X126148927Y-78372115D01*
X126156895Y-78366791D01*
X126183206Y-78430311D01*
X126354689Y-78601794D01*
X126578743Y-78694600D01*
X126697600Y-78694600D01*
X126850000Y-78542200D01*
X126850000Y-77462400D01*
X126827600Y-77462400D01*
X126827600Y-77157600D01*
X126850000Y-77157600D01*
X126850000Y-77137600D01*
X127150000Y-77137600D01*
X127150000Y-77157600D01*
X127172400Y-77157600D01*
X127172400Y-77462400D01*
X127150000Y-77462400D01*
X127150000Y-78542200D01*
X127302400Y-78694600D01*
X127421257Y-78694600D01*
X127645311Y-78601794D01*
X127816794Y-78430311D01*
X127843105Y-78366791D01*
X127851073Y-78372115D01*
X127970000Y-78395771D01*
X128570000Y-78395771D01*
X128688927Y-78372115D01*
X128789748Y-78304748D01*
X128857115Y-78203927D01*
X128880771Y-78085000D01*
X128880771Y-77910100D01*
X134944229Y-77910100D01*
X134944229Y-79121000D01*
X134967885Y-79239927D01*
X135035252Y-79340748D01*
X135136073Y-79408115D01*
X135255000Y-79431771D01*
X137795000Y-79431771D01*
X137913927Y-79408115D01*
X138014748Y-79340748D01*
X138082115Y-79239927D01*
X138105771Y-79121000D01*
X138105771Y-77851000D01*
X138082115Y-77732073D01*
X138014748Y-77631252D01*
X137913927Y-77563885D01*
X137795000Y-77540229D01*
X137266075Y-77540229D01*
X138544505Y-76261800D01*
X139877800Y-76261800D01*
X139877800Y-76273458D01*
X139815252Y-76315252D01*
X139747885Y-76416073D01*
X139724229Y-76535000D01*
X139724229Y-78085000D01*
X139747885Y-78203927D01*
X139815252Y-78304748D01*
X139916073Y-78372115D01*
X140035000Y-78395771D01*
X140635000Y-78395771D01*
X140753927Y-78372115D01*
X140854748Y-78304748D01*
X140922115Y-78203927D01*
X140945771Y-78085000D01*
X140945771Y-76712800D01*
X140994229Y-76712800D01*
X140994229Y-78085000D01*
X141013473Y-78181748D01*
X140970144Y-78225001D01*
X140855830Y-78500301D01*
X140855570Y-78798391D01*
X140969404Y-79073890D01*
X141180001Y-79284856D01*
X141455301Y-79399170D01*
X141753391Y-79399430D01*
X141783215Y-79387107D01*
X141607033Y-79563289D01*
X141356009Y-79563070D01*
X141080510Y-79676904D01*
X140869544Y-79887501D01*
X140755230Y-80162801D01*
X140754970Y-80460891D01*
X140868804Y-80736390D01*
X141079401Y-80947356D01*
X141354701Y-81061670D01*
X141652791Y-81061930D01*
X141928290Y-80948096D01*
X142139256Y-80737499D01*
X142253570Y-80462199D01*
X142253790Y-80209688D01*
X143198289Y-79265189D01*
X143297398Y-79116863D01*
X143332200Y-78941900D01*
X143332200Y-78434305D01*
X143499689Y-78601794D01*
X143723743Y-78694600D01*
X143842600Y-78694600D01*
X143995000Y-78542200D01*
X143995000Y-77462400D01*
X143972600Y-77462400D01*
X143972600Y-77157600D01*
X143995000Y-77157600D01*
X143995000Y-77137600D01*
X144295000Y-77137600D01*
X144295000Y-77157600D01*
X144317400Y-77157600D01*
X144317400Y-77462400D01*
X144295000Y-77462400D01*
X144295000Y-78542200D01*
X144447400Y-78694600D01*
X144566257Y-78694600D01*
X144790311Y-78601794D01*
X144961794Y-78430311D01*
X144988105Y-78366791D01*
X144996073Y-78372115D01*
X145115000Y-78395771D01*
X145715000Y-78395771D01*
X145833927Y-78372115D01*
X145934748Y-78304748D01*
X146002115Y-78203927D01*
X146025771Y-78085000D01*
X146025771Y-76712800D01*
X146074229Y-76712800D01*
X146074229Y-78085000D01*
X146097885Y-78203927D01*
X146165252Y-78304748D01*
X146266073Y-78372115D01*
X146385000Y-78395771D01*
X146985000Y-78395771D01*
X147103927Y-78372115D01*
X147111895Y-78366791D01*
X147138206Y-78430311D01*
X147309689Y-78601794D01*
X147533743Y-78694600D01*
X147652600Y-78694600D01*
X147805000Y-78542200D01*
X147805000Y-77462400D01*
X147782600Y-77462400D01*
X147782600Y-77157600D01*
X147805000Y-77157600D01*
X147805000Y-77137600D01*
X148052200Y-77137600D01*
X148052200Y-78029000D01*
X148087002Y-78203963D01*
X148105000Y-78230899D01*
X148105000Y-78542200D01*
X148257400Y-78694600D01*
X148376257Y-78694600D01*
X148483854Y-78650032D01*
X148525911Y-78692089D01*
X148674237Y-78791198D01*
X148849200Y-78826000D01*
X149618300Y-78826000D01*
X149793263Y-78791198D01*
X149941589Y-78692089D01*
X150128589Y-78505089D01*
X150227698Y-78356763D01*
X150262500Y-78181800D01*
X150262500Y-75825900D01*
X150227698Y-75650937D01*
X150128589Y-75502611D01*
X143625078Y-68999100D01*
X155155900Y-68999100D01*
X155155900Y-108800900D01*
X86144100Y-108800900D01*
X86144100Y-106306248D01*
X87033100Y-106306248D01*
X87033100Y-107053752D01*
X87126873Y-107525180D01*
X87393915Y-107924837D01*
X87793572Y-108191879D01*
X88265000Y-108285652D01*
X88736428Y-108191879D01*
X89136085Y-107924837D01*
X89403127Y-107525180D01*
X89496900Y-107053752D01*
X89496900Y-106306248D01*
X89573100Y-106306248D01*
X89573100Y-107053752D01*
X89666873Y-107525180D01*
X89933915Y-107924837D01*
X90333572Y-108191879D01*
X90805000Y-108285652D01*
X91276428Y-108191879D01*
X91676085Y-107924837D01*
X91943127Y-107525180D01*
X92036900Y-107053752D01*
X92036900Y-106306248D01*
X92113100Y-106306248D01*
X92113100Y-107053752D01*
X92206873Y-107525180D01*
X92473915Y-107924837D01*
X92873572Y-108191879D01*
X93345000Y-108285652D01*
X93816428Y-108191879D01*
X94216085Y-107924837D01*
X94483127Y-107525180D01*
X94576900Y-107053752D01*
X94576900Y-106306248D01*
X94483127Y-105834820D01*
X94216085Y-105435163D01*
X93816428Y-105168121D01*
X93345000Y-105074348D01*
X92873572Y-105168121D01*
X92473915Y-105435163D01*
X92206873Y-105834820D01*
X92113100Y-106306248D01*
X92036900Y-106306248D01*
X91943127Y-105834820D01*
X91676085Y-105435163D01*
X91276428Y-105168121D01*
X90805000Y-105074348D01*
X90333572Y-105168121D01*
X89933915Y-105435163D01*
X89666873Y-105834820D01*
X89573100Y-106306248D01*
X89496900Y-106306248D01*
X89403127Y-105834820D01*
X89136085Y-105435163D01*
X88736428Y-105168121D01*
X88265000Y-105074348D01*
X87793572Y-105168121D01*
X87393915Y-105435163D01*
X87126873Y-105834820D01*
X87033100Y-106306248D01*
X86144100Y-106306248D01*
X86144100Y-102012477D01*
X87451840Y-102012477D01*
X87768259Y-102778270D01*
X88353648Y-103364682D01*
X89118888Y-103682437D01*
X89947477Y-103683160D01*
X90713270Y-103366741D01*
X91299682Y-102781352D01*
X91617437Y-102016112D01*
X91618160Y-101187523D01*
X91301741Y-100421730D01*
X90716352Y-99835318D01*
X89951112Y-99517563D01*
X89122523Y-99516840D01*
X88356730Y-99833259D01*
X87770318Y-100418648D01*
X87452563Y-101183888D01*
X87451840Y-102012477D01*
X86144100Y-102012477D01*
X86144100Y-91998800D01*
X88290400Y-91998800D01*
X88290400Y-92450257D01*
X88383206Y-92674311D01*
X88554689Y-92845794D01*
X88778743Y-92938600D01*
X89865200Y-92938600D01*
X90017600Y-92786200D01*
X90017600Y-91846400D01*
X90322400Y-91846400D01*
X90322400Y-92786200D01*
X90474800Y-92938600D01*
X91561257Y-92938600D01*
X91785311Y-92845794D01*
X91956794Y-92674311D01*
X92049600Y-92450257D01*
X92049600Y-91998800D01*
X91897200Y-91846400D01*
X90322400Y-91846400D01*
X90017600Y-91846400D01*
X88442800Y-91846400D01*
X88290400Y-91998800D01*
X86144100Y-91998800D01*
X86144100Y-90937743D01*
X88290400Y-90937743D01*
X88290400Y-91389200D01*
X88442800Y-91541600D01*
X90017600Y-91541600D01*
X90017600Y-90601800D01*
X90322400Y-90601800D01*
X90322400Y-91541600D01*
X91897200Y-91541600D01*
X92049600Y-91389200D01*
X92049600Y-90937743D01*
X91956794Y-90713689D01*
X91785311Y-90542206D01*
X91561257Y-90449400D01*
X90474800Y-90449400D01*
X90322400Y-90601800D01*
X90017600Y-90601800D01*
X89865200Y-90449400D01*
X88778743Y-90449400D01*
X88554689Y-90542206D01*
X88383206Y-90713689D01*
X88290400Y-90937743D01*
X86144100Y-90937743D01*
X86144100Y-88011000D01*
X88589229Y-88011000D01*
X88589229Y-89281000D01*
X88612885Y-89399927D01*
X88680252Y-89500748D01*
X88781073Y-89568115D01*
X88900000Y-89591771D01*
X91440000Y-89591771D01*
X91558927Y-89568115D01*
X91659748Y-89500748D01*
X91727115Y-89399927D01*
X91750771Y-89281000D01*
X91750771Y-89103200D01*
X93410833Y-89103200D01*
X93427885Y-89188927D01*
X93495252Y-89289748D01*
X93596073Y-89357115D01*
X93715000Y-89380771D01*
X94157800Y-89380771D01*
X94157800Y-90959229D01*
X93715000Y-90959229D01*
X93596073Y-90982885D01*
X93495252Y-91050252D01*
X93427885Y-91151073D01*
X93404229Y-91270000D01*
X93404229Y-93270000D01*
X93427885Y-93388927D01*
X93495252Y-93489748D01*
X93596073Y-93557115D01*
X93715000Y-93580771D01*
X94157800Y-93580771D01*
X94157800Y-96847100D01*
X94192602Y-97022063D01*
X94291711Y-97170389D01*
X97311911Y-100190589D01*
X97460237Y-100289698D01*
X97635200Y-100324500D01*
X99229400Y-100324500D01*
X99229400Y-103213722D01*
X96856972Y-105586150D01*
X96756085Y-105435163D01*
X96356428Y-105168121D01*
X95885000Y-105074348D01*
X95413572Y-105168121D01*
X95013915Y-105435163D01*
X94746873Y-105834820D01*
X94653100Y-106306248D01*
X94653100Y-107053752D01*
X94746873Y-107525180D01*
X95013915Y-107924837D01*
X95413572Y-108191879D01*
X95885000Y-108285652D01*
X96356428Y-108191879D01*
X96756085Y-107924837D01*
X97023127Y-107525180D01*
X97100664Y-107135377D01*
X97205200Y-107114584D01*
X97286873Y-107525180D01*
X97553915Y-107924837D01*
X97953572Y-108191879D01*
X98425000Y-108285652D01*
X98896428Y-108191879D01*
X99296085Y-107924837D01*
X99563127Y-107525180D01*
X99656900Y-107053752D01*
X99656900Y-106306248D01*
X99733100Y-106306248D01*
X99733100Y-107053752D01*
X99826873Y-107525180D01*
X100093915Y-107924837D01*
X100493572Y-108191879D01*
X100965000Y-108285652D01*
X101436428Y-108191879D01*
X101836085Y-107924837D01*
X102103127Y-107525180D01*
X102196900Y-107053752D01*
X102196900Y-106306248D01*
X102273100Y-106306248D01*
X102273100Y-107053752D01*
X102366873Y-107525180D01*
X102633915Y-107924837D01*
X103033572Y-108191879D01*
X103505000Y-108285652D01*
X103976428Y-108191879D01*
X104376085Y-107924837D01*
X104643127Y-107525180D01*
X104736900Y-107053752D01*
X104736900Y-106306248D01*
X104813100Y-106306248D01*
X104813100Y-107053752D01*
X104906873Y-107525180D01*
X105173915Y-107924837D01*
X105573572Y-108191879D01*
X106045000Y-108285652D01*
X106516428Y-108191879D01*
X106916085Y-107924837D01*
X107183127Y-107525180D01*
X107276900Y-107053752D01*
X107276900Y-106306248D01*
X107353100Y-106306248D01*
X107353100Y-107053752D01*
X107446873Y-107525180D01*
X107713915Y-107924837D01*
X108113572Y-108191879D01*
X108585000Y-108285652D01*
X109056428Y-108191879D01*
X109456085Y-107924837D01*
X109723127Y-107525180D01*
X109816900Y-107053752D01*
X109816900Y-106306248D01*
X109893100Y-106306248D01*
X109893100Y-107053752D01*
X109986873Y-107525180D01*
X110253915Y-107924837D01*
X110653572Y-108191879D01*
X111125000Y-108285652D01*
X111596428Y-108191879D01*
X111996085Y-107924837D01*
X112263127Y-107525180D01*
X112356900Y-107053752D01*
X112356900Y-106306248D01*
X112433100Y-106306248D01*
X112433100Y-107053752D01*
X112526873Y-107525180D01*
X112793915Y-107924837D01*
X113193572Y-108191879D01*
X113665000Y-108285652D01*
X114136428Y-108191879D01*
X114536085Y-107924837D01*
X114803127Y-107525180D01*
X114896900Y-107053752D01*
X114896900Y-106306248D01*
X114973100Y-106306248D01*
X114973100Y-107053752D01*
X115066873Y-107525180D01*
X115333915Y-107924837D01*
X115733572Y-108191879D01*
X116205000Y-108285652D01*
X116676428Y-108191879D01*
X117076085Y-107924837D01*
X117343127Y-107525180D01*
X117436900Y-107053752D01*
X117436900Y-106306248D01*
X117513100Y-106306248D01*
X117513100Y-107053752D01*
X117606873Y-107525180D01*
X117873915Y-107924837D01*
X118273572Y-108191879D01*
X118745000Y-108285652D01*
X119216428Y-108191879D01*
X119616085Y-107924837D01*
X119883127Y-107525180D01*
X119976900Y-107053752D01*
X119976900Y-106306248D01*
X120053100Y-106306248D01*
X120053100Y-107053752D01*
X120146873Y-107525180D01*
X120413915Y-107924837D01*
X120813572Y-108191879D01*
X121285000Y-108285652D01*
X121756428Y-108191879D01*
X122156085Y-107924837D01*
X122423127Y-107525180D01*
X122516900Y-107053752D01*
X122516900Y-106306248D01*
X122593100Y-106306248D01*
X122593100Y-107053752D01*
X122686873Y-107525180D01*
X122953915Y-107924837D01*
X123353572Y-108191879D01*
X123825000Y-108285652D01*
X124296428Y-108191879D01*
X124696085Y-107924837D01*
X124963127Y-107525180D01*
X125056900Y-107053752D01*
X125056900Y-106306248D01*
X125133100Y-106306248D01*
X125133100Y-107053752D01*
X125226873Y-107525180D01*
X125493915Y-107924837D01*
X125893572Y-108191879D01*
X126365000Y-108285652D01*
X126836428Y-108191879D01*
X127236085Y-107924837D01*
X127503127Y-107525180D01*
X127596900Y-107053752D01*
X127596900Y-106306248D01*
X127503127Y-105834820D01*
X127236085Y-105435163D01*
X126836428Y-105168121D01*
X126365000Y-105074348D01*
X125893572Y-105168121D01*
X125493915Y-105435163D01*
X125226873Y-105834820D01*
X125133100Y-106306248D01*
X125056900Y-106306248D01*
X124963127Y-105834820D01*
X124696085Y-105435163D01*
X124296428Y-105168121D01*
X123825000Y-105074348D01*
X123353572Y-105168121D01*
X122953915Y-105435163D01*
X122686873Y-105834820D01*
X122593100Y-106306248D01*
X122516900Y-106306248D01*
X122423127Y-105834820D01*
X122156085Y-105435163D01*
X121756428Y-105168121D01*
X121285000Y-105074348D01*
X120813572Y-105168121D01*
X120413915Y-105435163D01*
X120146873Y-105834820D01*
X120053100Y-106306248D01*
X119976900Y-106306248D01*
X119883127Y-105834820D01*
X119616085Y-105435163D01*
X119216428Y-105168121D01*
X118745000Y-105074348D01*
X118273572Y-105168121D01*
X117873915Y-105435163D01*
X117606873Y-105834820D01*
X117513100Y-106306248D01*
X117436900Y-106306248D01*
X117343127Y-105834820D01*
X117076085Y-105435163D01*
X116676428Y-105168121D01*
X116205000Y-105074348D01*
X115733572Y-105168121D01*
X115333915Y-105435163D01*
X115066873Y-105834820D01*
X114973100Y-106306248D01*
X114896900Y-106306248D01*
X114803127Y-105834820D01*
X114536085Y-105435163D01*
X114136428Y-105168121D01*
X113665000Y-105074348D01*
X113193572Y-105168121D01*
X112793915Y-105435163D01*
X112526873Y-105834820D01*
X112433100Y-106306248D01*
X112356900Y-106306248D01*
X112263127Y-105834820D01*
X111996085Y-105435163D01*
X111596428Y-105168121D01*
X111125000Y-105074348D01*
X110653572Y-105168121D01*
X110253915Y-105435163D01*
X109986873Y-105834820D01*
X109893100Y-106306248D01*
X109816900Y-106306248D01*
X109723127Y-105834820D01*
X109456085Y-105435163D01*
X109056428Y-105168121D01*
X108585000Y-105074348D01*
X108113572Y-105168121D01*
X107713915Y-105435163D01*
X107446873Y-105834820D01*
X107353100Y-106306248D01*
X107276900Y-106306248D01*
X107183127Y-105834820D01*
X106916085Y-105435163D01*
X106516428Y-105168121D01*
X106045000Y-105074348D01*
X105573572Y-105168121D01*
X105173915Y-105435163D01*
X104906873Y-105834820D01*
X104813100Y-106306248D01*
X104736900Y-106306248D01*
X104643127Y-105834820D01*
X104376085Y-105435163D01*
X103976428Y-105168121D01*
X103505000Y-105074348D01*
X103033572Y-105168121D01*
X102633915Y-105435163D01*
X102366873Y-105834820D01*
X102273100Y-106306248D01*
X102196900Y-106306248D01*
X102103127Y-105834820D01*
X101836085Y-105435163D01*
X101436428Y-105168121D01*
X100965000Y-105074348D01*
X100493572Y-105168121D01*
X100093915Y-105435163D01*
X99826873Y-105834820D01*
X99733100Y-106306248D01*
X99656900Y-106306248D01*
X99563127Y-105834820D01*
X99296085Y-105435163D01*
X98896428Y-105168121D01*
X98622621Y-105113657D01*
X99686600Y-104049678D01*
X99719611Y-104082689D01*
X99867937Y-104181798D01*
X100042900Y-104216600D01*
X102818800Y-104216600D01*
X102993763Y-104181798D01*
X103142089Y-104082689D01*
X104083229Y-103141549D01*
X104083229Y-103505000D01*
X104106885Y-103623927D01*
X104174252Y-103724748D01*
X104275073Y-103792115D01*
X104394000Y-103815771D01*
X105664000Y-103815771D01*
X105782927Y-103792115D01*
X105883748Y-103724748D01*
X105951115Y-103623927D01*
X105974771Y-103505000D01*
X105974771Y-102692200D01*
X109997022Y-102692200D01*
X111830711Y-104525889D01*
X111979037Y-104624998D01*
X112154000Y-104659800D01*
X129610148Y-104659800D01*
X128996730Y-104913259D01*
X128410318Y-105498648D01*
X128092563Y-106263888D01*
X128091840Y-107092477D01*
X128408259Y-107858270D01*
X128993648Y-108444682D01*
X129758888Y-108762437D01*
X130587477Y-108763160D01*
X131353270Y-108446741D01*
X131939682Y-107861352D01*
X132257437Y-107096112D01*
X132258160Y-106267523D01*
X131941741Y-105501730D01*
X131356352Y-104915318D01*
X130740996Y-104659800D01*
X144514200Y-104659800D01*
X144689163Y-104624998D01*
X144837489Y-104525889D01*
X145993229Y-103370149D01*
X145993229Y-103505000D01*
X146016885Y-103623927D01*
X146084252Y-103724748D01*
X146185073Y-103792115D01*
X146304000Y-103815771D01*
X147574000Y-103815771D01*
X147692927Y-103792115D01*
X147793748Y-103724748D01*
X147861115Y-103623927D01*
X147884771Y-103505000D01*
X147884771Y-102692200D01*
X148904800Y-102692200D01*
X149079763Y-102657398D01*
X149228089Y-102558289D01*
X152430389Y-99355989D01*
X152529498Y-99207663D01*
X152564300Y-99032700D01*
X152564300Y-97204900D01*
X152529498Y-97029937D01*
X152430389Y-96881611D01*
X147289889Y-91741111D01*
X147141563Y-91642002D01*
X146966600Y-91607200D01*
X136255800Y-91607200D01*
X136080837Y-91642002D01*
X135932511Y-91741111D01*
X131135400Y-96538222D01*
X123377089Y-88779911D01*
X123228763Y-88680802D01*
X123053800Y-88646000D01*
X122230771Y-88646000D01*
X122230771Y-88167600D01*
X145854300Y-88167600D01*
X146029263Y-88132798D01*
X146177589Y-88033689D01*
X150131989Y-84079289D01*
X150231098Y-83930963D01*
X150265900Y-83756000D01*
X150265900Y-81121600D01*
X150231098Y-80946637D01*
X150131989Y-80798311D01*
X149616489Y-80282811D01*
X149468163Y-80183702D01*
X149293200Y-80148900D01*
X143301000Y-80148900D01*
X143126037Y-80183702D01*
X142977711Y-80282811D01*
X141636293Y-81624229D01*
X141305000Y-81624229D01*
X141186073Y-81647885D01*
X141178105Y-81653209D01*
X141151794Y-81589689D01*
X140980311Y-81418206D01*
X140756257Y-81325400D01*
X140637400Y-81325400D01*
X140485000Y-81477800D01*
X140485000Y-82557600D01*
X140507400Y-82557600D01*
X140507400Y-82862400D01*
X140485000Y-82862400D01*
X140485000Y-83942200D01*
X140637400Y-84094600D01*
X140756257Y-84094600D01*
X140980311Y-84001794D01*
X141151794Y-83830311D01*
X141178105Y-83766791D01*
X141186073Y-83772115D01*
X141305000Y-83795771D01*
X141905000Y-83795771D01*
X142023927Y-83772115D01*
X142124748Y-83704748D01*
X142192115Y-83603927D01*
X142215771Y-83485000D01*
X142215771Y-82337907D01*
X142264229Y-82289449D01*
X142264229Y-83485000D01*
X142287885Y-83603927D01*
X142355252Y-83704748D01*
X142456073Y-83772115D01*
X142575000Y-83795771D01*
X143175000Y-83795771D01*
X143293927Y-83772115D01*
X143394748Y-83704748D01*
X143462115Y-83603927D01*
X143485771Y-83485000D01*
X143485771Y-82112800D01*
X143534229Y-82112800D01*
X143534229Y-83485000D01*
X143557885Y-83603927D01*
X143587513Y-83648268D01*
X143510144Y-83725501D01*
X143395830Y-84000801D01*
X143395570Y-84298891D01*
X143509404Y-84574390D01*
X143720001Y-84785356D01*
X143995301Y-84899670D01*
X144293391Y-84899930D01*
X144568890Y-84786096D01*
X144779856Y-84575499D01*
X144894170Y-84300199D01*
X144894430Y-84002109D01*
X144780596Y-83726610D01*
X144702449Y-83648326D01*
X144732115Y-83603927D01*
X144755771Y-83485000D01*
X144755771Y-81935000D01*
X144804229Y-81935000D01*
X144804229Y-83485000D01*
X144827885Y-83603927D01*
X144895252Y-83704748D01*
X144996073Y-83772115D01*
X145115000Y-83795771D01*
X145715000Y-83795771D01*
X145833927Y-83772115D01*
X145934748Y-83704748D01*
X146002115Y-83603927D01*
X146025771Y-83485000D01*
X146025771Y-81935000D01*
X146002115Y-81816073D01*
X145934748Y-81715252D01*
X145833927Y-81647885D01*
X145715000Y-81624229D01*
X145115000Y-81624229D01*
X144996073Y-81647885D01*
X144895252Y-81715252D01*
X144827885Y-81816073D01*
X144804229Y-81935000D01*
X144755771Y-81935000D01*
X144732115Y-81816073D01*
X144664748Y-81715252D01*
X144664706Y-81715224D01*
X144755570Y-81496399D01*
X144755830Y-81198309D01*
X144700045Y-81063300D01*
X147900722Y-81063300D01*
X147631711Y-81332311D01*
X147532602Y-81480637D01*
X147497800Y-81655600D01*
X147497800Y-81673458D01*
X147435252Y-81715252D01*
X147367885Y-81816073D01*
X147344229Y-81935000D01*
X147344229Y-83485000D01*
X147367885Y-83603927D01*
X147435252Y-83704748D01*
X147536073Y-83772115D01*
X147655000Y-83795771D01*
X148255000Y-83795771D01*
X148373927Y-83772115D01*
X148474748Y-83704748D01*
X148542115Y-83603927D01*
X148565771Y-83485000D01*
X148565771Y-81935000D01*
X148565514Y-81933709D01*
X148600101Y-81968356D01*
X148614229Y-81974222D01*
X148614229Y-83485000D01*
X148637885Y-83603927D01*
X148678344Y-83664478D01*
X145496322Y-86846500D01*
X144855968Y-86846500D01*
X144894170Y-86754499D01*
X144894430Y-86456409D01*
X144819913Y-86276065D01*
X147008289Y-84087690D01*
X147107398Y-83939363D01*
X147116871Y-83891737D01*
X147142200Y-83764400D01*
X147142200Y-83746542D01*
X147204748Y-83704748D01*
X147272115Y-83603927D01*
X147295771Y-83485000D01*
X147295771Y-81935000D01*
X147272115Y-81816073D01*
X147204748Y-81715252D01*
X147103927Y-81647885D01*
X146985000Y-81624229D01*
X146385000Y-81624229D01*
X146266073Y-81647885D01*
X146165252Y-81715252D01*
X146097885Y-81816073D01*
X146074229Y-81935000D01*
X146074229Y-83485000D01*
X146097885Y-83603927D01*
X146138344Y-83664477D01*
X143912839Y-85889983D01*
X143721110Y-85969204D01*
X143510144Y-86179801D01*
X143395830Y-86455101D01*
X143395570Y-86753191D01*
X143434125Y-86846500D01*
X125834478Y-86846500D01*
X128593289Y-84087690D01*
X128692398Y-83939363D01*
X128701871Y-83891737D01*
X128727200Y-83764400D01*
X128727200Y-83746542D01*
X128789748Y-83704748D01*
X128857115Y-83603927D01*
X128880771Y-83485000D01*
X128880771Y-83014800D01*
X139425400Y-83014800D01*
X139425400Y-83606257D01*
X139518206Y-83830311D01*
X139689689Y-84001794D01*
X139913743Y-84094600D01*
X140032600Y-84094600D01*
X140185000Y-83942200D01*
X140185000Y-82862400D01*
X139577800Y-82862400D01*
X139425400Y-83014800D01*
X128880771Y-83014800D01*
X128880771Y-81935000D01*
X128861636Y-81838800D01*
X134645400Y-81838800D01*
X134645400Y-82290257D01*
X134738206Y-82514311D01*
X134909689Y-82685794D01*
X135133743Y-82778600D01*
X136220200Y-82778600D01*
X136372600Y-82626200D01*
X136372600Y-81686400D01*
X136677400Y-81686400D01*
X136677400Y-82626200D01*
X136829800Y-82778600D01*
X137916257Y-82778600D01*
X138140311Y-82685794D01*
X138311794Y-82514311D01*
X138404600Y-82290257D01*
X138404600Y-81838800D01*
X138379543Y-81813743D01*
X139425400Y-81813743D01*
X139425400Y-82405200D01*
X139577800Y-82557600D01*
X140185000Y-82557600D01*
X140185000Y-81477800D01*
X140032600Y-81325400D01*
X139913743Y-81325400D01*
X139689689Y-81418206D01*
X139518206Y-81589689D01*
X139425400Y-81813743D01*
X138379543Y-81813743D01*
X138252200Y-81686400D01*
X136677400Y-81686400D01*
X136372600Y-81686400D01*
X134797800Y-81686400D01*
X134645400Y-81838800D01*
X128861636Y-81838800D01*
X128857115Y-81816073D01*
X128789748Y-81715252D01*
X128751367Y-81689607D01*
X128828770Y-81503199D01*
X128829030Y-81205109D01*
X128715196Y-80929610D01*
X128563595Y-80777743D01*
X134645400Y-80777743D01*
X134645400Y-81229200D01*
X134797800Y-81381600D01*
X136372600Y-81381600D01*
X136372600Y-80441800D01*
X136677400Y-80441800D01*
X136677400Y-81381600D01*
X138252200Y-81381600D01*
X138404600Y-81229200D01*
X138404600Y-80777743D01*
X138311794Y-80553689D01*
X138140311Y-80382206D01*
X137916257Y-80289400D01*
X136829800Y-80289400D01*
X136677400Y-80441800D01*
X136372600Y-80441800D01*
X136220200Y-80289400D01*
X135133743Y-80289400D01*
X134909689Y-80382206D01*
X134738206Y-80553689D01*
X134645400Y-80777743D01*
X128563595Y-80777743D01*
X128504599Y-80718644D01*
X128229299Y-80604330D01*
X127931209Y-80604070D01*
X127655710Y-80717904D01*
X127477001Y-80896300D01*
X127302100Y-80896300D01*
X127127137Y-80931102D01*
X126978811Y-81030211D01*
X126676711Y-81332311D01*
X126577602Y-81480637D01*
X126542800Y-81655600D01*
X126542800Y-81673458D01*
X126480252Y-81715252D01*
X126412885Y-81816073D01*
X126389229Y-81935000D01*
X126389229Y-83485000D01*
X126412885Y-83603927D01*
X126480252Y-83704748D01*
X126581073Y-83772115D01*
X126700000Y-83795771D01*
X127300000Y-83795771D01*
X127418927Y-83772115D01*
X127519748Y-83704748D01*
X127587115Y-83603927D01*
X127610771Y-83485000D01*
X127610771Y-81944449D01*
X127654601Y-81988356D01*
X127659229Y-81990278D01*
X127659229Y-83485000D01*
X127682885Y-83603927D01*
X127723344Y-83664477D01*
X126459038Y-84928783D01*
X126395996Y-84776210D01*
X126187200Y-84567048D01*
X126187200Y-83746542D01*
X126249748Y-83704748D01*
X126317115Y-83603927D01*
X126340771Y-83485000D01*
X126340771Y-81935000D01*
X126317115Y-81816073D01*
X126249748Y-81715252D01*
X126148927Y-81647885D01*
X126030000Y-81624229D01*
X125430000Y-81624229D01*
X125311073Y-81647885D01*
X125210252Y-81715252D01*
X125142885Y-81816073D01*
X125119229Y-81935000D01*
X125119229Y-83485000D01*
X125142885Y-83603927D01*
X125210252Y-83704748D01*
X125272800Y-83746542D01*
X125272800Y-84628103D01*
X125125544Y-84775101D01*
X125011230Y-85050401D01*
X125010970Y-85348491D01*
X125124804Y-85623990D01*
X125335401Y-85834956D01*
X125489061Y-85898761D01*
X124948022Y-86439800D01*
X118909200Y-86439800D01*
X118734237Y-86474602D01*
X118585911Y-86573711D01*
X117150611Y-88009011D01*
X117148927Y-88007885D01*
X117057776Y-87989754D01*
X117100070Y-87887899D01*
X117100290Y-87635388D01*
X120514078Y-84221600D01*
X120650000Y-84221600D01*
X120824963Y-84186798D01*
X120973289Y-84087689D01*
X121072398Y-83939363D01*
X121107200Y-83764400D01*
X121107200Y-83746542D01*
X121169748Y-83704748D01*
X121237115Y-83603927D01*
X121260771Y-83485000D01*
X121260771Y-81935000D01*
X121309229Y-81935000D01*
X121309229Y-83485000D01*
X121332885Y-83603927D01*
X121400252Y-83704748D01*
X121501073Y-83772115D01*
X121620000Y-83795771D01*
X122220000Y-83795771D01*
X122338927Y-83772115D01*
X122439748Y-83704748D01*
X122507115Y-83603927D01*
X122530771Y-83485000D01*
X122530771Y-82112800D01*
X122579229Y-82112800D01*
X122579229Y-83485000D01*
X122595277Y-83565677D01*
X122532944Y-83627901D01*
X122418630Y-83903201D01*
X122418370Y-84201291D01*
X122532204Y-84476790D01*
X122742801Y-84687756D01*
X123018101Y-84802070D01*
X123316191Y-84802330D01*
X123591690Y-84688496D01*
X123802656Y-84477899D01*
X123916970Y-84202599D01*
X123917230Y-83904509D01*
X123803396Y-83629010D01*
X123777321Y-83602890D01*
X123800771Y-83485000D01*
X123800771Y-81935000D01*
X123849229Y-81935000D01*
X123849229Y-83485000D01*
X123872885Y-83603927D01*
X123940252Y-83704748D01*
X124041073Y-83772115D01*
X124160000Y-83795771D01*
X124760000Y-83795771D01*
X124878927Y-83772115D01*
X124979748Y-83704748D01*
X125047115Y-83603927D01*
X125070771Y-83485000D01*
X125070771Y-81935000D01*
X125047115Y-81816073D01*
X124979748Y-81715252D01*
X124878927Y-81647885D01*
X124760000Y-81624229D01*
X124160000Y-81624229D01*
X124041073Y-81647885D01*
X123940252Y-81715252D01*
X123872885Y-81816073D01*
X123849229Y-81935000D01*
X123800771Y-81935000D01*
X123777115Y-81816073D01*
X123730511Y-81746326D01*
X123839770Y-81483199D01*
X123840030Y-81185109D01*
X123726196Y-80909610D01*
X123515599Y-80698644D01*
X123240299Y-80584330D01*
X122942209Y-80584070D01*
X122666710Y-80697904D01*
X122455744Y-80908501D01*
X122341430Y-81183801D01*
X122341417Y-81198400D01*
X121920000Y-81198400D01*
X121745037Y-81233202D01*
X121596711Y-81332311D01*
X121497602Y-81480637D01*
X121462800Y-81655600D01*
X121462800Y-81673458D01*
X121400252Y-81715252D01*
X121332885Y-81816073D01*
X121309229Y-81935000D01*
X121260771Y-81935000D01*
X121237115Y-81816073D01*
X121169748Y-81715252D01*
X121068927Y-81647885D01*
X120950000Y-81624229D01*
X120350000Y-81624229D01*
X120231073Y-81647885D01*
X120223105Y-81653209D01*
X120196794Y-81589689D01*
X120025311Y-81418206D01*
X119801257Y-81325400D01*
X119682400Y-81325400D01*
X119530000Y-81477800D01*
X119530000Y-82557600D01*
X119552400Y-82557600D01*
X119552400Y-82862400D01*
X119530000Y-82862400D01*
X119530000Y-82882400D01*
X119230000Y-82882400D01*
X119230000Y-82862400D01*
X118622800Y-82862400D01*
X118470400Y-83014800D01*
X118470400Y-83606257D01*
X118563206Y-83830311D01*
X118734689Y-84001794D01*
X118958743Y-84094600D01*
X119077600Y-84094600D01*
X119227598Y-83944602D01*
X119227598Y-84094600D01*
X119347922Y-84094600D01*
X116453533Y-86988989D01*
X116202509Y-86988770D01*
X115927010Y-87102604D01*
X115897400Y-87132162D01*
X115897400Y-84933200D01*
X115862598Y-84758237D01*
X115855291Y-84747302D01*
X115763490Y-84609911D01*
X112992379Y-81838800D01*
X113690400Y-81838800D01*
X113690400Y-82290257D01*
X113783206Y-82514311D01*
X113954689Y-82685794D01*
X114178743Y-82778600D01*
X115265200Y-82778600D01*
X115417600Y-82626200D01*
X115417600Y-81686400D01*
X115722400Y-81686400D01*
X115722400Y-82626200D01*
X115874800Y-82778600D01*
X116961257Y-82778600D01*
X117185311Y-82685794D01*
X117356794Y-82514311D01*
X117449600Y-82290257D01*
X117449600Y-81838800D01*
X117424543Y-81813743D01*
X118470400Y-81813743D01*
X118470400Y-82405200D01*
X118622800Y-82557600D01*
X119230000Y-82557600D01*
X119230000Y-81477800D01*
X119077600Y-81325400D01*
X118958743Y-81325400D01*
X118734689Y-81418206D01*
X118563206Y-81589689D01*
X118470400Y-81813743D01*
X117424543Y-81813743D01*
X117297200Y-81686400D01*
X115722400Y-81686400D01*
X115417600Y-81686400D01*
X113842800Y-81686400D01*
X113690400Y-81838800D01*
X112992379Y-81838800D01*
X111931322Y-80777743D01*
X113690400Y-80777743D01*
X113690400Y-81229200D01*
X113842800Y-81381600D01*
X115417600Y-81381600D01*
X115417600Y-80441800D01*
X115722400Y-80441800D01*
X115722400Y-81381600D01*
X117297200Y-81381600D01*
X117449600Y-81229200D01*
X117449600Y-80777743D01*
X117356794Y-80553689D01*
X117185311Y-80382206D01*
X116961257Y-80289400D01*
X115874800Y-80289400D01*
X115722400Y-80441800D01*
X115417600Y-80441800D01*
X115265200Y-80289400D01*
X114178743Y-80289400D01*
X113954689Y-80382206D01*
X113783206Y-80553689D01*
X113690400Y-80777743D01*
X111931322Y-80777743D01*
X111365889Y-80212311D01*
X111217563Y-80113202D01*
X111042600Y-80078400D01*
X100815000Y-80078400D01*
X100640037Y-80113202D01*
X100491711Y-80212311D01*
X99371711Y-81332311D01*
X99272602Y-81480637D01*
X99247953Y-81604558D01*
X99241794Y-81589689D01*
X99070311Y-81418206D01*
X98846257Y-81325400D01*
X98727400Y-81325400D01*
X98575000Y-81477800D01*
X98575000Y-82557600D01*
X98597400Y-82557600D01*
X98597400Y-82862400D01*
X98575000Y-82862400D01*
X98575000Y-83942200D01*
X98727400Y-84094600D01*
X98846257Y-84094600D01*
X99070311Y-84001794D01*
X99241794Y-83830311D01*
X99268105Y-83766791D01*
X99276073Y-83772115D01*
X99395000Y-83795771D01*
X99995000Y-83795771D01*
X100113927Y-83772115D01*
X100214748Y-83704748D01*
X100282115Y-83603927D01*
X100305771Y-83485000D01*
X100305771Y-81935000D01*
X100282115Y-81816073D01*
X100241656Y-81755522D01*
X100595081Y-81402097D01*
X100542602Y-81480637D01*
X100507800Y-81655600D01*
X100507800Y-81673458D01*
X100445252Y-81715252D01*
X100377885Y-81816073D01*
X100354229Y-81935000D01*
X100354229Y-83485000D01*
X100377885Y-83603927D01*
X100445252Y-83704748D01*
X100546073Y-83772115D01*
X100665000Y-83795771D01*
X101265000Y-83795771D01*
X101383927Y-83772115D01*
X101484748Y-83704748D01*
X101552115Y-83603927D01*
X101575771Y-83485000D01*
X101575771Y-81935000D01*
X101573150Y-81921824D01*
X101619601Y-81968356D01*
X101624229Y-81970278D01*
X101624229Y-83485000D01*
X101643506Y-83581914D01*
X101600144Y-83625201D01*
X101485830Y-83900501D01*
X101485570Y-84198591D01*
X101599404Y-84474090D01*
X101810001Y-84685056D01*
X102085301Y-84799370D01*
X102383391Y-84799630D01*
X102658890Y-84685796D01*
X102869856Y-84475199D01*
X102943065Y-84298891D01*
X104025570Y-84298891D01*
X104139404Y-84574390D01*
X104350001Y-84785356D01*
X104625301Y-84899670D01*
X104923391Y-84899930D01*
X105198890Y-84786096D01*
X105409856Y-84575499D01*
X105524170Y-84300199D01*
X105524430Y-84002109D01*
X105410596Y-83726610D01*
X105332449Y-83648326D01*
X105362115Y-83603927D01*
X105385771Y-83485000D01*
X105385771Y-81935000D01*
X105362115Y-81816073D01*
X105294748Y-81715252D01*
X105193927Y-81647885D01*
X105075000Y-81624229D01*
X104475000Y-81624229D01*
X104356073Y-81647885D01*
X104255252Y-81715252D01*
X104187885Y-81816073D01*
X104164229Y-81935000D01*
X104164229Y-83485000D01*
X104187885Y-83603927D01*
X104217513Y-83648268D01*
X104140144Y-83725501D01*
X104025830Y-84000801D01*
X104025570Y-84298891D01*
X102943065Y-84298891D01*
X102984170Y-84199899D01*
X102984430Y-83901809D01*
X102870596Y-83626310D01*
X102826458Y-83582094D01*
X102845771Y-83485000D01*
X102845771Y-81935000D01*
X102894229Y-81935000D01*
X102894229Y-83485000D01*
X102917885Y-83603927D01*
X102985252Y-83704748D01*
X103086073Y-83772115D01*
X103205000Y-83795771D01*
X103805000Y-83795771D01*
X103923927Y-83772115D01*
X104024748Y-83704748D01*
X104092115Y-83603927D01*
X104115771Y-83485000D01*
X104115771Y-81935000D01*
X104092115Y-81816073D01*
X104024748Y-81715252D01*
X103923927Y-81647885D01*
X103805000Y-81624229D01*
X103205000Y-81624229D01*
X103086073Y-81647885D01*
X102985252Y-81715252D01*
X102917885Y-81816073D01*
X102894229Y-81935000D01*
X102845771Y-81935000D01*
X102822115Y-81816073D01*
X102754748Y-81715252D01*
X102709866Y-81685263D01*
X102793770Y-81483199D01*
X102794030Y-81185109D01*
X102714569Y-80992800D01*
X106084468Y-80992800D01*
X106014411Y-81039611D01*
X105721711Y-81332311D01*
X105622602Y-81480637D01*
X105587800Y-81655600D01*
X105587800Y-81673458D01*
X105525252Y-81715252D01*
X105457885Y-81816073D01*
X105434229Y-81935000D01*
X105434229Y-83485000D01*
X105457885Y-83603927D01*
X105525252Y-83704748D01*
X105626073Y-83772115D01*
X105745000Y-83795771D01*
X106345000Y-83795771D01*
X106463927Y-83772115D01*
X106564748Y-83704748D01*
X106632115Y-83603927D01*
X106655771Y-83485000D01*
X106655771Y-81977491D01*
X106676001Y-81997756D01*
X106704229Y-82009477D01*
X106704229Y-83485000D01*
X106727885Y-83603927D01*
X106795252Y-83704748D01*
X106896073Y-83772115D01*
X107015000Y-83795771D01*
X107615000Y-83795771D01*
X107733927Y-83772115D01*
X107834748Y-83704748D01*
X107902115Y-83603927D01*
X107925771Y-83485000D01*
X107925771Y-82745807D01*
X109272078Y-81399500D01*
X109840290Y-81399500D01*
X109802130Y-81491401D01*
X109801870Y-81789491D01*
X109915704Y-82064990D01*
X110126301Y-82275956D01*
X110401601Y-82390270D01*
X110699691Y-82390530D01*
X110879398Y-82316276D01*
X110953418Y-82390296D01*
X110859010Y-82429304D01*
X110648044Y-82639901D01*
X110533730Y-82915201D01*
X110533510Y-83167712D01*
X108427311Y-85273911D01*
X108328202Y-85422237D01*
X108293400Y-85597200D01*
X108293400Y-88920000D01*
X108328202Y-89094963D01*
X108427311Y-89243289D01*
X108521574Y-89306274D01*
X108572800Y-89357500D01*
X108651561Y-89357500D01*
X108750600Y-89377200D01*
X110030000Y-89377200D01*
X110137732Y-89355771D01*
X110182400Y-89355771D01*
X110182400Y-89357500D01*
X110202400Y-89357500D01*
X110202400Y-89482500D01*
X110182400Y-89482500D01*
X110182400Y-89484229D01*
X110137732Y-89484229D01*
X110030000Y-89462800D01*
X103224400Y-89462800D01*
X103049437Y-89497602D01*
X102901111Y-89596711D01*
X100905771Y-91592051D01*
X100905771Y-91270000D01*
X100882115Y-91151073D01*
X100814748Y-91050252D01*
X100713927Y-90982885D01*
X100595000Y-90959229D01*
X98795000Y-90959229D01*
X98676073Y-90982885D01*
X98575252Y-91050252D01*
X98507885Y-91151073D01*
X98484229Y-91270000D01*
X98484229Y-93270000D01*
X98507885Y-93388927D01*
X98575252Y-93489748D01*
X98676073Y-93557115D01*
X98795000Y-93580771D01*
X100595000Y-93580771D01*
X100713927Y-93557115D01*
X100814748Y-93489748D01*
X100882115Y-93388927D01*
X100905771Y-93270000D01*
X100905771Y-92720960D01*
X101049363Y-92692398D01*
X101197689Y-92593289D01*
X103413778Y-90377200D01*
X110030000Y-90377200D01*
X110137732Y-90355771D01*
X110182400Y-90355771D01*
X110182400Y-90357500D01*
X110202400Y-90357500D01*
X110202400Y-90482500D01*
X110182400Y-90482500D01*
X110182400Y-90484229D01*
X110137732Y-90484229D01*
X110030000Y-90462800D01*
X108655400Y-90462800D01*
X108480437Y-90497602D01*
X108332111Y-90596711D01*
X108004611Y-90924211D01*
X107905502Y-91072537D01*
X107870700Y-91247500D01*
X107870700Y-94717100D01*
X107905502Y-94892063D01*
X108004611Y-95040389D01*
X109729200Y-96764978D01*
X109729200Y-96950098D01*
X109694452Y-96872676D01*
X109028891Y-96631327D01*
X108321634Y-96663048D01*
X107815548Y-96872676D01*
X107692458Y-97146931D01*
X108755000Y-98209474D01*
X108769142Y-98195331D01*
X108984669Y-98410858D01*
X108970526Y-98425000D01*
X108984669Y-98439142D01*
X108769142Y-98654669D01*
X108755000Y-98640526D01*
X107692458Y-99703069D01*
X107815548Y-99977324D01*
X108481109Y-100218673D01*
X109188366Y-100186952D01*
X109694452Y-99977324D01*
X109729200Y-99899902D01*
X109729200Y-101777800D01*
X105974771Y-101777800D01*
X105974771Y-100965000D01*
X105951115Y-100846073D01*
X105883748Y-100745252D01*
X105782927Y-100677885D01*
X105664000Y-100654229D01*
X104394000Y-100654229D01*
X104275073Y-100677885D01*
X104174252Y-100745252D01*
X104106885Y-100846073D01*
X104083229Y-100965000D01*
X104083229Y-101784040D01*
X103939637Y-101812602D01*
X103791311Y-101911711D01*
X103692202Y-102060037D01*
X103657400Y-102235000D01*
X103657400Y-102274222D01*
X103225600Y-102706022D01*
X103225600Y-102539800D01*
X103073200Y-102387400D01*
X102133400Y-102387400D01*
X102133400Y-102407400D01*
X101828600Y-102407400D01*
X101828600Y-102387400D01*
X100888800Y-102387400D01*
X100736400Y-102539800D01*
X100736400Y-103302200D01*
X100232278Y-103302200D01*
X100143800Y-103213722D01*
X100143800Y-100843743D01*
X100736400Y-100843743D01*
X100736400Y-101930200D01*
X100888800Y-102082600D01*
X101828600Y-102082600D01*
X101828600Y-100507800D01*
X102133400Y-100507800D01*
X102133400Y-102082600D01*
X103073200Y-102082600D01*
X103225600Y-101930200D01*
X103225600Y-100843743D01*
X103132794Y-100619689D01*
X102961311Y-100448206D01*
X102737257Y-100355400D01*
X102285800Y-100355400D01*
X102133400Y-100507800D01*
X101828600Y-100507800D01*
X101676200Y-100355400D01*
X101224743Y-100355400D01*
X101000689Y-100448206D01*
X100829206Y-100619689D01*
X100736400Y-100843743D01*
X100143800Y-100843743D01*
X100143800Y-99703069D01*
X100692458Y-99703069D01*
X100815548Y-99977324D01*
X101481109Y-100218673D01*
X102188366Y-100186952D01*
X102694452Y-99977324D01*
X102817542Y-99703069D01*
X101755000Y-98640526D01*
X100692458Y-99703069D01*
X100143800Y-99703069D01*
X100143800Y-99222313D01*
X100202676Y-99364452D01*
X100476931Y-99487542D01*
X101539474Y-98425000D01*
X101525331Y-98410858D01*
X101740858Y-98195331D01*
X101755000Y-98209474D01*
X101769142Y-98195331D01*
X101984669Y-98410858D01*
X101970526Y-98425000D01*
X103033069Y-99487542D01*
X103307324Y-99364452D01*
X103548673Y-98698891D01*
X103516952Y-97991634D01*
X103307324Y-97485548D01*
X103033070Y-97362459D01*
X103144377Y-97251152D01*
X103109225Y-97216000D01*
X103505000Y-97216000D01*
X103679963Y-97181198D01*
X103828289Y-97082089D01*
X103927398Y-96933763D01*
X103962200Y-96758800D01*
X103962200Y-96727137D01*
X103979980Y-96715257D01*
X103997800Y-96727164D01*
X103997800Y-96758800D01*
X104032602Y-96933763D01*
X104131711Y-97082089D01*
X104280037Y-97181198D01*
X104391299Y-97203329D01*
X104005454Y-97588502D01*
X103780457Y-98130357D01*
X103779945Y-98717069D01*
X104003996Y-99259316D01*
X104418502Y-99674546D01*
X104960357Y-99899543D01*
X105547069Y-99900055D01*
X106089316Y-99676004D01*
X106504546Y-99261498D01*
X106729543Y-98719643D01*
X106730039Y-98151109D01*
X106961327Y-98151109D01*
X106993048Y-98858366D01*
X107202676Y-99364452D01*
X107476931Y-99487542D01*
X108539474Y-98425000D01*
X107476931Y-97362458D01*
X107202676Y-97485548D01*
X106961327Y-98151109D01*
X106730039Y-98151109D01*
X106730055Y-98132931D01*
X106546429Y-97688520D01*
X106555682Y-97641999D01*
X106570700Y-97566500D01*
X106570700Y-96019500D01*
X106535898Y-95844537D01*
X106436789Y-95696211D01*
X104989283Y-94248705D01*
X105021475Y-94200527D01*
X105045131Y-94081600D01*
X105045131Y-92750640D01*
X105021475Y-92631713D01*
X104954108Y-92530892D01*
X104853287Y-92463525D01*
X104734360Y-92439869D01*
X104315501Y-92439869D01*
X104301194Y-92405329D01*
X104129711Y-92233846D01*
X103905657Y-92141040D01*
X103797100Y-92141040D01*
X103644700Y-92293440D01*
X103644700Y-93263720D01*
X103677400Y-93263720D01*
X103677400Y-93568520D01*
X103644700Y-93568520D01*
X103644700Y-94538800D01*
X103797100Y-94691200D01*
X103905657Y-94691200D01*
X104086325Y-94616365D01*
X104131711Y-94684289D01*
X104285051Y-94837629D01*
X104175560Y-94837629D01*
X104056633Y-94861285D01*
X103979980Y-94912503D01*
X103903327Y-94861285D01*
X103784400Y-94837629D01*
X103225600Y-94837629D01*
X103106673Y-94861285D01*
X103030020Y-94912503D01*
X102953367Y-94861285D01*
X102834440Y-94837629D01*
X102275640Y-94837629D01*
X102239700Y-94844778D01*
X102266278Y-94818200D01*
X102555000Y-94818200D01*
X102729963Y-94783398D01*
X102878289Y-94684289D01*
X102923675Y-94616365D01*
X103104343Y-94691200D01*
X103212900Y-94691200D01*
X103365300Y-94538800D01*
X103365300Y-93568520D01*
X103332600Y-93568520D01*
X103332600Y-93263720D01*
X103365300Y-93263720D01*
X103365300Y-92293440D01*
X103212900Y-92141040D01*
X103104343Y-92141040D01*
X102880289Y-92233846D01*
X102708806Y-92405329D01*
X102694499Y-92439869D01*
X102275640Y-92439869D01*
X102156713Y-92463525D01*
X102055892Y-92530892D01*
X101988525Y-92631713D01*
X101964869Y-92750640D01*
X101964869Y-93926084D01*
X101901937Y-93938602D01*
X101753611Y-94037711D01*
X98755419Y-97035903D01*
X98549643Y-96950457D01*
X97962931Y-96949945D01*
X97420684Y-97173996D01*
X97005454Y-97588502D01*
X96780457Y-98130357D01*
X96780252Y-98365774D01*
X95072200Y-96657722D01*
X95072200Y-93580771D01*
X95515000Y-93580771D01*
X95633927Y-93557115D01*
X95734748Y-93489748D01*
X95802115Y-93388927D01*
X95825771Y-93270000D01*
X95825771Y-91270000D01*
X95802115Y-91151073D01*
X95734748Y-91050252D01*
X95633927Y-90982885D01*
X95515000Y-90959229D01*
X95072200Y-90959229D01*
X95072200Y-89380771D01*
X95515000Y-89380771D01*
X95633927Y-89357115D01*
X95734748Y-89289748D01*
X95802115Y-89188927D01*
X95825771Y-89070000D01*
X95825771Y-88374800D01*
X98185400Y-88374800D01*
X98185400Y-89191257D01*
X98278206Y-89415311D01*
X98449689Y-89586794D01*
X98673743Y-89679600D01*
X99390200Y-89679600D01*
X99542600Y-89527200D01*
X99542600Y-88222400D01*
X99847400Y-88222400D01*
X99847400Y-89527200D01*
X99999800Y-89679600D01*
X100716257Y-89679600D01*
X100940311Y-89586794D01*
X101111794Y-89415311D01*
X101204600Y-89191257D01*
X101204600Y-88374800D01*
X101052200Y-88222400D01*
X99847400Y-88222400D01*
X99542600Y-88222400D01*
X98337800Y-88222400D01*
X98185400Y-88374800D01*
X95825771Y-88374800D01*
X95825771Y-87070000D01*
X95802115Y-86951073D01*
X95800559Y-86948743D01*
X98185400Y-86948743D01*
X98185400Y-87765200D01*
X98337800Y-87917600D01*
X99542600Y-87917600D01*
X99542600Y-86612800D01*
X99847400Y-86612800D01*
X99847400Y-87917600D01*
X101052200Y-87917600D01*
X101204600Y-87765200D01*
X101204600Y-86948743D01*
X101111794Y-86724689D01*
X100940311Y-86553206D01*
X100716257Y-86460400D01*
X99999800Y-86460400D01*
X99847400Y-86612800D01*
X99542600Y-86612800D01*
X99390200Y-86460400D01*
X98673743Y-86460400D01*
X98449689Y-86553206D01*
X98278206Y-86724689D01*
X98185400Y-86948743D01*
X95800559Y-86948743D01*
X95734748Y-86850252D01*
X95633927Y-86782885D01*
X95515000Y-86759229D01*
X93715000Y-86759229D01*
X93596073Y-86782885D01*
X93495252Y-86850252D01*
X93427885Y-86951073D01*
X93404229Y-87070000D01*
X93404229Y-88188800D01*
X91750771Y-88188800D01*
X91750771Y-88011000D01*
X91727115Y-87892073D01*
X91659748Y-87791252D01*
X91558927Y-87723885D01*
X91440000Y-87700229D01*
X88900000Y-87700229D01*
X88781073Y-87723885D01*
X88680252Y-87791252D01*
X88612885Y-87892073D01*
X88589229Y-88011000D01*
X86144100Y-88011000D01*
X86144100Y-83014800D01*
X97515400Y-83014800D01*
X97515400Y-83606257D01*
X97608206Y-83830311D01*
X97779689Y-84001794D01*
X98003743Y-84094600D01*
X98122600Y-84094600D01*
X98275000Y-83942200D01*
X98275000Y-82862400D01*
X97667800Y-82862400D01*
X97515400Y-83014800D01*
X86144100Y-83014800D01*
X86144100Y-81838800D01*
X92735400Y-81838800D01*
X92735400Y-82290257D01*
X92828206Y-82514311D01*
X92999689Y-82685794D01*
X93223743Y-82778600D01*
X94310200Y-82778600D01*
X94462600Y-82626200D01*
X94462600Y-81686400D01*
X94767400Y-81686400D01*
X94767400Y-82626200D01*
X94919800Y-82778600D01*
X96006257Y-82778600D01*
X96230311Y-82685794D01*
X96401794Y-82514311D01*
X96494600Y-82290257D01*
X96494600Y-81838800D01*
X96469543Y-81813743D01*
X97515400Y-81813743D01*
X97515400Y-82405200D01*
X97667800Y-82557600D01*
X98275000Y-82557600D01*
X98275000Y-81477800D01*
X98122600Y-81325400D01*
X98003743Y-81325400D01*
X97779689Y-81418206D01*
X97608206Y-81589689D01*
X97515400Y-81813743D01*
X96469543Y-81813743D01*
X96342200Y-81686400D01*
X94767400Y-81686400D01*
X94462600Y-81686400D01*
X92887800Y-81686400D01*
X92735400Y-81838800D01*
X86144100Y-81838800D01*
X86144100Y-80777743D01*
X92735400Y-80777743D01*
X92735400Y-81229200D01*
X92887800Y-81381600D01*
X94462600Y-81381600D01*
X94462600Y-80441800D01*
X94767400Y-80441800D01*
X94767400Y-81381600D01*
X96342200Y-81381600D01*
X96494600Y-81229200D01*
X96494600Y-80777743D01*
X96401794Y-80553689D01*
X96230311Y-80382206D01*
X96006257Y-80289400D01*
X94919800Y-80289400D01*
X94767400Y-80441800D01*
X94462600Y-80441800D01*
X94310200Y-80289400D01*
X93223743Y-80289400D01*
X92999689Y-80382206D01*
X92828206Y-80553689D01*
X92735400Y-80777743D01*
X86144100Y-80777743D01*
X86144100Y-76612477D01*
X87451840Y-76612477D01*
X87768259Y-77378270D01*
X88353648Y-77964682D01*
X89118888Y-78282437D01*
X89947477Y-78283160D01*
X90713270Y-77966741D01*
X91299682Y-77381352D01*
X91617437Y-76616112D01*
X91618160Y-75787523D01*
X91301741Y-75021730D01*
X90716352Y-74435318D01*
X89951112Y-74117563D01*
X89122523Y-74116840D01*
X88356730Y-74433259D01*
X87770318Y-75018648D01*
X87452563Y-75783888D01*
X87451840Y-76612477D01*
X86144100Y-76612477D01*
X86144100Y-69850000D01*
X87027129Y-69850000D01*
X87027129Y-72390000D01*
X87050785Y-72508927D01*
X87118152Y-72609748D01*
X87218973Y-72677115D01*
X87337900Y-72700771D01*
X89192100Y-72700771D01*
X89311027Y-72677115D01*
X89411848Y-72609748D01*
X89479215Y-72508927D01*
X89502871Y-72390000D01*
X89502871Y-72263898D01*
X89826152Y-72657274D01*
X90357730Y-72940947D01*
X90415269Y-72949357D01*
X90652600Y-72838785D01*
X90652600Y-71272400D01*
X90632600Y-71272400D01*
X90632600Y-70967600D01*
X90652600Y-70967600D01*
X90652600Y-69401215D01*
X90957400Y-69401215D01*
X90957400Y-70967600D01*
X90977400Y-70967600D01*
X90977400Y-71272400D01*
X90957400Y-71272400D01*
X90957400Y-72838785D01*
X91194731Y-72949357D01*
X91252270Y-72940947D01*
X91783848Y-72657274D01*
X92166405Y-72191769D01*
X92226414Y-71994425D01*
X92473915Y-72364837D01*
X92873572Y-72631879D01*
X93345000Y-72725652D01*
X93816428Y-72631879D01*
X94216085Y-72364837D01*
X94483127Y-71965180D01*
X94576900Y-71493752D01*
X94576900Y-70746248D01*
X94483127Y-70274820D01*
X94216085Y-69875163D01*
X93816428Y-69608121D01*
X93345000Y-69514348D01*
X92873572Y-69608121D01*
X92473915Y-69875163D01*
X92226414Y-70245575D01*
X92166405Y-70048231D01*
X91783848Y-69582726D01*
X91252270Y-69299053D01*
X91194731Y-69290643D01*
X90957400Y-69401215D01*
X90652600Y-69401215D01*
X90415269Y-69290643D01*
X90357730Y-69299053D01*
X89826152Y-69582726D01*
X89502871Y-69976102D01*
X89502871Y-69850000D01*
X89479215Y-69731073D01*
X89411848Y-69630252D01*
X89311027Y-69562885D01*
X89192100Y-69539229D01*
X87337900Y-69539229D01*
X87218973Y-69562885D01*
X87118152Y-69630252D01*
X87050785Y-69731073D01*
X87027129Y-69850000D01*
X86144100Y-69850000D01*
X86144100Y-68999100D01*
X100417122Y-68999100D01*
X99426711Y-69989511D01*
X99426711Y-69989511D01*
G37*
X99426711Y-69989511D02*
X99399600Y-70030085D01*
X99296085Y-69875163D01*
X98896428Y-69608121D01*
X98425000Y-69514348D01*
X97953572Y-69608121D01*
X97553915Y-69875163D01*
X97286873Y-70274820D01*
X97209336Y-70664623D01*
X97104800Y-70685416D01*
X97023127Y-70274820D01*
X96756085Y-69875163D01*
X96356428Y-69608121D01*
X95885000Y-69514348D01*
X95413572Y-69608121D01*
X95013915Y-69875163D01*
X94746873Y-70274820D01*
X94653100Y-70746248D01*
X94653100Y-71493752D01*
X94746873Y-71965180D01*
X95013915Y-72364837D01*
X95413572Y-72631879D01*
X95885000Y-72725652D01*
X96244224Y-72654198D01*
X92767311Y-76131111D01*
X92668202Y-76279437D01*
X92633400Y-76454400D01*
X92633400Y-79271300D01*
X92668202Y-79446263D01*
X92767311Y-79594589D01*
X92932811Y-79760089D01*
X93081137Y-79859198D01*
X93256100Y-79894000D01*
X97352600Y-79894000D01*
X97527563Y-79859198D01*
X97675889Y-79760089D01*
X98748289Y-78687689D01*
X98847398Y-78539363D01*
X98882200Y-78364400D01*
X98882200Y-78346542D01*
X98944748Y-78304748D01*
X99012115Y-78203927D01*
X99035771Y-78085000D01*
X99035771Y-76725300D01*
X99084229Y-76725300D01*
X99084229Y-78085000D01*
X99097626Y-78152351D01*
X99022144Y-78227701D01*
X98907830Y-78503001D01*
X98907570Y-78801091D01*
X99021404Y-79076590D01*
X99232001Y-79287556D01*
X99244775Y-79292860D01*
X99193544Y-79344001D01*
X99079230Y-79619301D01*
X99078970Y-79917391D01*
X99192804Y-80192890D01*
X99403401Y-80403856D01*
X99678701Y-80518170D01*
X99976791Y-80518430D01*
X100252290Y-80404596D01*
X100463256Y-80193999D01*
X100577570Y-79918699D01*
X100577790Y-79666188D01*
X101288289Y-78955689D01*
X101387398Y-78807363D01*
X101422200Y-78632400D01*
X101422200Y-78434305D01*
X101589689Y-78601794D01*
X101813743Y-78694600D01*
X101932600Y-78694600D01*
X102085000Y-78542200D01*
X102085000Y-77462400D01*
X102062600Y-77462400D01*
X102062600Y-77157600D01*
X102085000Y-77157600D01*
X102085000Y-77137600D01*
X102385000Y-77137600D01*
X102385000Y-77157600D01*
X102407400Y-77157600D01*
X102407400Y-77462400D01*
X102385000Y-77462400D01*
X102385000Y-78542200D01*
X102537400Y-78694600D01*
X102656257Y-78694600D01*
X102880311Y-78601794D01*
X103051794Y-78430311D01*
X103078105Y-78366791D01*
X103086073Y-78372115D01*
X103205000Y-78395771D01*
X103805000Y-78395771D01*
X103923927Y-78372115D01*
X104024748Y-78304748D01*
X104092115Y-78203927D01*
X104115771Y-78085000D01*
X104115771Y-76725300D01*
X104164229Y-76725300D01*
X104164229Y-78085000D01*
X104187885Y-78203927D01*
X104255252Y-78304748D01*
X104356073Y-78372115D01*
X104475000Y-78395771D01*
X105075000Y-78395771D01*
X105193927Y-78372115D01*
X105201895Y-78366791D01*
X105228206Y-78430311D01*
X105399689Y-78601794D01*
X105623743Y-78694600D01*
X105742600Y-78694600D01*
X105895000Y-78542200D01*
X105895000Y-77462400D01*
X105872600Y-77462400D01*
X105872600Y-77157600D01*
X105895000Y-77157600D01*
X105895000Y-77137600D01*
X106195000Y-77137600D01*
X106195000Y-77157600D01*
X106217400Y-77157600D01*
X106217400Y-77462400D01*
X106195000Y-77462400D01*
X106195000Y-78542200D01*
X106347400Y-78694600D01*
X106466257Y-78694600D01*
X106690311Y-78601794D01*
X106861794Y-78430311D01*
X106888105Y-78366791D01*
X106896073Y-78372115D01*
X107015000Y-78395771D01*
X107615000Y-78395771D01*
X107733927Y-78372115D01*
X107834748Y-78304748D01*
X107902115Y-78203927D01*
X107925771Y-78085000D01*
X107925771Y-76712800D01*
X108960882Y-76712800D01*
X108920230Y-76810701D01*
X108919970Y-77108791D01*
X109033804Y-77384290D01*
X109244401Y-77595256D01*
X109519701Y-77709570D01*
X109817791Y-77709830D01*
X110093290Y-77595996D01*
X110271999Y-77417600D01*
X110557222Y-77417600D01*
X112838311Y-79698689D01*
X112986637Y-79797798D01*
X113161600Y-79832600D01*
X118369000Y-79832600D01*
X118543963Y-79797798D01*
X118692289Y-79698689D01*
X119703289Y-78687689D01*
X119802398Y-78539363D01*
X119837200Y-78364400D01*
X119837200Y-78346542D01*
X119899748Y-78304748D01*
X119967115Y-78203927D01*
X119990771Y-78085000D01*
X119990771Y-76726700D01*
X120039229Y-76726700D01*
X120039229Y-78085000D01*
X120057710Y-78177910D01*
X120015144Y-78220401D01*
X119900830Y-78495701D01*
X119900570Y-78793791D01*
X120014404Y-79069290D01*
X120225001Y-79280256D01*
X120246438Y-79289157D01*
X120143710Y-79331604D01*
X119932744Y-79542201D01*
X119818430Y-79817501D01*
X119818170Y-80115591D01*
X119932004Y-80391090D01*
X120142601Y-80602056D01*
X120417901Y-80716370D01*
X120715991Y-80716630D01*
X120991490Y-80602796D01*
X121202456Y-80392199D01*
X121316770Y-80116899D01*
X121316990Y-79864388D01*
X122243289Y-78938090D01*
X122342398Y-78789763D01*
X122356417Y-78719284D01*
X122377200Y-78614800D01*
X122377200Y-78434305D01*
X122544689Y-78601794D01*
X122768743Y-78694600D01*
X122887600Y-78694600D01*
X123040000Y-78542200D01*
X123040000Y-77462400D01*
X123017600Y-77462400D01*
X123017600Y-77157600D01*
X123040000Y-77157600D01*
X123040000Y-77137600D01*
X123340000Y-77137600D01*
X123340000Y-77157600D01*
X123362400Y-77157600D01*
X123362400Y-77462400D01*
X123340000Y-77462400D01*
X123340000Y-78542200D01*
X123492400Y-78694600D01*
X123611257Y-78694600D01*
X123835311Y-78601794D01*
X124006794Y-78430311D01*
X124033105Y-78366791D01*
X124041073Y-78372115D01*
X124160000Y-78395771D01*
X124760000Y-78395771D01*
X124878927Y-78372115D01*
X124979748Y-78304748D01*
X125047115Y-78203927D01*
X125070771Y-78085000D01*
X125070771Y-76726700D01*
X125119229Y-76726700D01*
X125119229Y-78085000D01*
X125142885Y-78203927D01*
X125210252Y-78304748D01*
X125311073Y-78372115D01*
X125430000Y-78395771D01*
X126030000Y-78395771D01*
X126148927Y-78372115D01*
X126156895Y-78366791D01*
X126183206Y-78430311D01*
X126354689Y-78601794D01*
X126578743Y-78694600D01*
X126697600Y-78694600D01*
X126850000Y-78542200D01*
X126850000Y-77462400D01*
X126827600Y-77462400D01*
X126827600Y-77157600D01*
X126850000Y-77157600D01*
X126850000Y-77137600D01*
X127150000Y-77137600D01*
X127150000Y-77157600D01*
X127172400Y-77157600D01*
X127172400Y-77462400D01*
X127150000Y-77462400D01*
X127150000Y-78542200D01*
X127302400Y-78694600D01*
X127421257Y-78694600D01*
X127645311Y-78601794D01*
X127816794Y-78430311D01*
X127843105Y-78366791D01*
X127851073Y-78372115D01*
X127970000Y-78395771D01*
X128570000Y-78395771D01*
X128688927Y-78372115D01*
X128789748Y-78304748D01*
X128857115Y-78203927D01*
X128880771Y-78085000D01*
X128880771Y-77910100D01*
X134944229Y-77910100D01*
X134944229Y-79121000D01*
X134967885Y-79239927D01*
X135035252Y-79340748D01*
X135136073Y-79408115D01*
X135255000Y-79431771D01*
X137795000Y-79431771D01*
X137913927Y-79408115D01*
X138014748Y-79340748D01*
X138082115Y-79239927D01*
X138105771Y-79121000D01*
X138105771Y-77851000D01*
X138082115Y-77732073D01*
X138014748Y-77631252D01*
X137913927Y-77563885D01*
X137795000Y-77540229D01*
X137266075Y-77540229D01*
X138544505Y-76261800D01*
X139877800Y-76261800D01*
X139877800Y-76273458D01*
X139815252Y-76315252D01*
X139747885Y-76416073D01*
X139724229Y-76535000D01*
X139724229Y-78085000D01*
X139747885Y-78203927D01*
X139815252Y-78304748D01*
X139916073Y-78372115D01*
X140035000Y-78395771D01*
X140635000Y-78395771D01*
X140753927Y-78372115D01*
X140854748Y-78304748D01*
X140922115Y-78203927D01*
X140945771Y-78085000D01*
X140945771Y-76712800D01*
X140994229Y-76712800D01*
X140994229Y-78085000D01*
X141013473Y-78181748D01*
X140970144Y-78225001D01*
X140855830Y-78500301D01*
X140855570Y-78798391D01*
X140969404Y-79073890D01*
X141180001Y-79284856D01*
X141455301Y-79399170D01*
X141753391Y-79399430D01*
X141783215Y-79387107D01*
X141607033Y-79563289D01*
X141356009Y-79563070D01*
X141080510Y-79676904D01*
X140869544Y-79887501D01*
X140755230Y-80162801D01*
X140754970Y-80460891D01*
X140868804Y-80736390D01*
X141079401Y-80947356D01*
X141354701Y-81061670D01*
X141652791Y-81061930D01*
X141928290Y-80948096D01*
X142139256Y-80737499D01*
X142253570Y-80462199D01*
X142253790Y-80209688D01*
X143198289Y-79265189D01*
X143297398Y-79116863D01*
X143332200Y-78941900D01*
X143332200Y-78434305D01*
X143499689Y-78601794D01*
X143723743Y-78694600D01*
X143842600Y-78694600D01*
X143995000Y-78542200D01*
X143995000Y-77462400D01*
X143972600Y-77462400D01*
X143972600Y-77157600D01*
X143995000Y-77157600D01*
X143995000Y-77137600D01*
X144295000Y-77137600D01*
X144295000Y-77157600D01*
X144317400Y-77157600D01*
X144317400Y-77462400D01*
X144295000Y-77462400D01*
X144295000Y-78542200D01*
X144447400Y-78694600D01*
X144566257Y-78694600D01*
X144790311Y-78601794D01*
X144961794Y-78430311D01*
X144988105Y-78366791D01*
X144996073Y-78372115D01*
X145115000Y-78395771D01*
X145715000Y-78395771D01*
X145833927Y-78372115D01*
X145934748Y-78304748D01*
X146002115Y-78203927D01*
X146025771Y-78085000D01*
X146025771Y-76712800D01*
X146074229Y-76712800D01*
X146074229Y-78085000D01*
X146097885Y-78203927D01*
X146165252Y-78304748D01*
X146266073Y-78372115D01*
X146385000Y-78395771D01*
X146985000Y-78395771D01*
X147103927Y-78372115D01*
X147111895Y-78366791D01*
X147138206Y-78430311D01*
X147309689Y-78601794D01*
X147533743Y-78694600D01*
X147652600Y-78694600D01*
X147805000Y-78542200D01*
X147805000Y-77462400D01*
X147782600Y-77462400D01*
X147782600Y-77157600D01*
X147805000Y-77157600D01*
X147805000Y-77137600D01*
X148052200Y-77137600D01*
X148052200Y-78029000D01*
X148087002Y-78203963D01*
X148105000Y-78230899D01*
X148105000Y-78542200D01*
X148257400Y-78694600D01*
X148376257Y-78694600D01*
X148483854Y-78650032D01*
X148525911Y-78692089D01*
X148674237Y-78791198D01*
X148849200Y-78826000D01*
X149618300Y-78826000D01*
X149793263Y-78791198D01*
X149941589Y-78692089D01*
X150128589Y-78505089D01*
X150227698Y-78356763D01*
X150262500Y-78181800D01*
X150262500Y-75825900D01*
X150227698Y-75650937D01*
X150128589Y-75502611D01*
X143625078Y-68999100D01*
X155155900Y-68999100D01*
X155155900Y-108800900D01*
X86144100Y-108800900D01*
X86144100Y-106306248D01*
X87033100Y-106306248D01*
X87033100Y-107053752D01*
X87126873Y-107525180D01*
X87393915Y-107924837D01*
X87793572Y-108191879D01*
X88265000Y-108285652D01*
X88736428Y-108191879D01*
X89136085Y-107924837D01*
X89403127Y-107525180D01*
X89496900Y-107053752D01*
X89496900Y-106306248D01*
X89573100Y-106306248D01*
X89573100Y-107053752D01*
X89666873Y-107525180D01*
X89933915Y-107924837D01*
X90333572Y-108191879D01*
X90805000Y-108285652D01*
X91276428Y-108191879D01*
X91676085Y-107924837D01*
X91943127Y-107525180D01*
X92036900Y-107053752D01*
X92036900Y-106306248D01*
X92113100Y-106306248D01*
X92113100Y-107053752D01*
X92206873Y-107525180D01*
X92473915Y-107924837D01*
X92873572Y-108191879D01*
X93345000Y-108285652D01*
X93816428Y-108191879D01*
X94216085Y-107924837D01*
X94483127Y-107525180D01*
X94576900Y-107053752D01*
X94576900Y-106306248D01*
X94483127Y-105834820D01*
X94216085Y-105435163D01*
X93816428Y-105168121D01*
X93345000Y-105074348D01*
X92873572Y-105168121D01*
X92473915Y-105435163D01*
X92206873Y-105834820D01*
X92113100Y-106306248D01*
X92036900Y-106306248D01*
X91943127Y-105834820D01*
X91676085Y-105435163D01*
X91276428Y-105168121D01*
X90805000Y-105074348D01*
X90333572Y-105168121D01*
X89933915Y-105435163D01*
X89666873Y-105834820D01*
X89573100Y-106306248D01*
X89496900Y-106306248D01*
X89403127Y-105834820D01*
X89136085Y-105435163D01*
X88736428Y-105168121D01*
X88265000Y-105074348D01*
X87793572Y-105168121D01*
X87393915Y-105435163D01*
X87126873Y-105834820D01*
X87033100Y-106306248D01*
X86144100Y-106306248D01*
X86144100Y-102012477D01*
X87451840Y-102012477D01*
X87768259Y-102778270D01*
X88353648Y-103364682D01*
X89118888Y-103682437D01*
X89947477Y-103683160D01*
X90713270Y-103366741D01*
X91299682Y-102781352D01*
X91617437Y-102016112D01*
X91618160Y-101187523D01*
X91301741Y-100421730D01*
X90716352Y-99835318D01*
X89951112Y-99517563D01*
X89122523Y-99516840D01*
X88356730Y-99833259D01*
X87770318Y-100418648D01*
X87452563Y-101183888D01*
X87451840Y-102012477D01*
X86144100Y-102012477D01*
X86144100Y-91998800D01*
X88290400Y-91998800D01*
X88290400Y-92450257D01*
X88383206Y-92674311D01*
X88554689Y-92845794D01*
X88778743Y-92938600D01*
X89865200Y-92938600D01*
X90017600Y-92786200D01*
X90017600Y-91846400D01*
X90322400Y-91846400D01*
X90322400Y-92786200D01*
X90474800Y-92938600D01*
X91561257Y-92938600D01*
X91785311Y-92845794D01*
X91956794Y-92674311D01*
X92049600Y-92450257D01*
X92049600Y-91998800D01*
X91897200Y-91846400D01*
X90322400Y-91846400D01*
X90017600Y-91846400D01*
X88442800Y-91846400D01*
X88290400Y-91998800D01*
X86144100Y-91998800D01*
X86144100Y-90937743D01*
X88290400Y-90937743D01*
X88290400Y-91389200D01*
X88442800Y-91541600D01*
X90017600Y-91541600D01*
X90017600Y-90601800D01*
X90322400Y-90601800D01*
X90322400Y-91541600D01*
X91897200Y-91541600D01*
X92049600Y-91389200D01*
X92049600Y-90937743D01*
X91956794Y-90713689D01*
X91785311Y-90542206D01*
X91561257Y-90449400D01*
X90474800Y-90449400D01*
X90322400Y-90601800D01*
X90017600Y-90601800D01*
X89865200Y-90449400D01*
X88778743Y-90449400D01*
X88554689Y-90542206D01*
X88383206Y-90713689D01*
X88290400Y-90937743D01*
X86144100Y-90937743D01*
X86144100Y-88011000D01*
X88589229Y-88011000D01*
X88589229Y-89281000D01*
X88612885Y-89399927D01*
X88680252Y-89500748D01*
X88781073Y-89568115D01*
X88900000Y-89591771D01*
X91440000Y-89591771D01*
X91558927Y-89568115D01*
X91659748Y-89500748D01*
X91727115Y-89399927D01*
X91750771Y-89281000D01*
X91750771Y-89103200D01*
X93410833Y-89103200D01*
X93427885Y-89188927D01*
X93495252Y-89289748D01*
X93596073Y-89357115D01*
X93715000Y-89380771D01*
X94157800Y-89380771D01*
X94157800Y-90959229D01*
X93715000Y-90959229D01*
X93596073Y-90982885D01*
X93495252Y-91050252D01*
X93427885Y-91151073D01*
X93404229Y-91270000D01*
X93404229Y-93270000D01*
X93427885Y-93388927D01*
X93495252Y-93489748D01*
X93596073Y-93557115D01*
X93715000Y-93580771D01*
X94157800Y-93580771D01*
X94157800Y-96847100D01*
X94192602Y-97022063D01*
X94291711Y-97170389D01*
X97311911Y-100190589D01*
X97460237Y-100289698D01*
X97635200Y-100324500D01*
X99229400Y-100324500D01*
X99229400Y-103213722D01*
X96856972Y-105586150D01*
X96756085Y-105435163D01*
X96356428Y-105168121D01*
X95885000Y-105074348D01*
X95413572Y-105168121D01*
X95013915Y-105435163D01*
X94746873Y-105834820D01*
X94653100Y-106306248D01*
X94653100Y-107053752D01*
X94746873Y-107525180D01*
X95013915Y-107924837D01*
X95413572Y-108191879D01*
X95885000Y-108285652D01*
X96356428Y-108191879D01*
X96756085Y-107924837D01*
X97023127Y-107525180D01*
X97100664Y-107135377D01*
X97205200Y-107114584D01*
X97286873Y-107525180D01*
X97553915Y-107924837D01*
X97953572Y-108191879D01*
X98425000Y-108285652D01*
X98896428Y-108191879D01*
X99296085Y-107924837D01*
X99563127Y-107525180D01*
X99656900Y-107053752D01*
X99656900Y-106306248D01*
X99733100Y-106306248D01*
X99733100Y-107053752D01*
X99826873Y-107525180D01*
X100093915Y-107924837D01*
X100493572Y-108191879D01*
X100965000Y-108285652D01*
X101436428Y-108191879D01*
X101836085Y-107924837D01*
X102103127Y-107525180D01*
X102196900Y-107053752D01*
X102196900Y-106306248D01*
X102273100Y-106306248D01*
X102273100Y-107053752D01*
X102366873Y-107525180D01*
X102633915Y-107924837D01*
X103033572Y-108191879D01*
X103505000Y-108285652D01*
X103976428Y-108191879D01*
X104376085Y-107924837D01*
X104643127Y-107525180D01*
X104736900Y-107053752D01*
X104736900Y-106306248D01*
X104813100Y-106306248D01*
X104813100Y-107053752D01*
X104906873Y-107525180D01*
X105173915Y-107924837D01*
X105573572Y-108191879D01*
X106045000Y-108285652D01*
X106516428Y-108191879D01*
X106916085Y-107924837D01*
X107183127Y-107525180D01*
X107276900Y-107053752D01*
X107276900Y-106306248D01*
X107353100Y-106306248D01*
X107353100Y-107053752D01*
X107446873Y-107525180D01*
X107713915Y-107924837D01*
X108113572Y-108191879D01*
X108585000Y-108285652D01*
X109056428Y-108191879D01*
X109456085Y-107924837D01*
X109723127Y-107525180D01*
X109816900Y-107053752D01*
X109816900Y-106306248D01*
X109893100Y-106306248D01*
X109893100Y-107053752D01*
X109986873Y-107525180D01*
X110253915Y-107924837D01*
X110653572Y-108191879D01*
X111125000Y-108285652D01*
X111596428Y-108191879D01*
X111996085Y-107924837D01*
X112263127Y-107525180D01*
X112356900Y-107053752D01*
X112356900Y-106306248D01*
X112433100Y-106306248D01*
X112433100Y-107053752D01*
X112526873Y-107525180D01*
X112793915Y-107924837D01*
X113193572Y-108191879D01*
X113665000Y-108285652D01*
X114136428Y-108191879D01*
X114536085Y-107924837D01*
X114803127Y-107525180D01*
X114896900Y-107053752D01*
X114896900Y-106306248D01*
X114973100Y-106306248D01*
X114973100Y-107053752D01*
X115066873Y-107525180D01*
X115333915Y-107924837D01*
X115733572Y-108191879D01*
X116205000Y-108285652D01*
X116676428Y-108191879D01*
X117076085Y-107924837D01*
X117343127Y-107525180D01*
X117436900Y-107053752D01*
X117436900Y-106306248D01*
X117513100Y-106306248D01*
X117513100Y-107053752D01*
X117606873Y-107525180D01*
X117873915Y-107924837D01*
X118273572Y-108191879D01*
X118745000Y-108285652D01*
X119216428Y-108191879D01*
X119616085Y-107924837D01*
X119883127Y-107525180D01*
X119976900Y-107053752D01*
X119976900Y-106306248D01*
X120053100Y-106306248D01*
X120053100Y-107053752D01*
X120146873Y-107525180D01*
X120413915Y-107924837D01*
X120813572Y-108191879D01*
X121285000Y-108285652D01*
X121756428Y-108191879D01*
X122156085Y-107924837D01*
X122423127Y-107525180D01*
X122516900Y-107053752D01*
X122516900Y-106306248D01*
X122593100Y-106306248D01*
X122593100Y-107053752D01*
X122686873Y-107525180D01*
X122953915Y-107924837D01*
X123353572Y-108191879D01*
X123825000Y-108285652D01*
X124296428Y-108191879D01*
X124696085Y-107924837D01*
X124963127Y-107525180D01*
X125056900Y-107053752D01*
X125056900Y-106306248D01*
X125133100Y-106306248D01*
X125133100Y-107053752D01*
X125226873Y-107525180D01*
X125493915Y-107924837D01*
X125893572Y-108191879D01*
X126365000Y-108285652D01*
X126836428Y-108191879D01*
X127236085Y-107924837D01*
X127503127Y-107525180D01*
X127596900Y-107053752D01*
X127596900Y-106306248D01*
X127503127Y-105834820D01*
X127236085Y-105435163D01*
X126836428Y-105168121D01*
X126365000Y-105074348D01*
X125893572Y-105168121D01*
X125493915Y-105435163D01*
X125226873Y-105834820D01*
X125133100Y-106306248D01*
X125056900Y-106306248D01*
X124963127Y-105834820D01*
X124696085Y-105435163D01*
X124296428Y-105168121D01*
X123825000Y-105074348D01*
X123353572Y-105168121D01*
X122953915Y-105435163D01*
X122686873Y-105834820D01*
X122593100Y-106306248D01*
X122516900Y-106306248D01*
X122423127Y-105834820D01*
X122156085Y-105435163D01*
X121756428Y-105168121D01*
X121285000Y-105074348D01*
X120813572Y-105168121D01*
X120413915Y-105435163D01*
X120146873Y-105834820D01*
X120053100Y-106306248D01*
X119976900Y-106306248D01*
X119883127Y-105834820D01*
X119616085Y-105435163D01*
X119216428Y-105168121D01*
X118745000Y-105074348D01*
X118273572Y-105168121D01*
X117873915Y-105435163D01*
X117606873Y-105834820D01*
X117513100Y-106306248D01*
X117436900Y-106306248D01*
X117343127Y-105834820D01*
X117076085Y-105435163D01*
X116676428Y-105168121D01*
X116205000Y-105074348D01*
X115733572Y-105168121D01*
X115333915Y-105435163D01*
X115066873Y-105834820D01*
X114973100Y-106306248D01*
X114896900Y-106306248D01*
X114803127Y-105834820D01*
X114536085Y-105435163D01*
X114136428Y-105168121D01*
X113665000Y-105074348D01*
X113193572Y-105168121D01*
X112793915Y-105435163D01*
X112526873Y-105834820D01*
X112433100Y-106306248D01*
X112356900Y-106306248D01*
X112263127Y-105834820D01*
X111996085Y-105435163D01*
X111596428Y-105168121D01*
X111125000Y-105074348D01*
X110653572Y-105168121D01*
X110253915Y-105435163D01*
X109986873Y-105834820D01*
X109893100Y-106306248D01*
X109816900Y-106306248D01*
X109723127Y-105834820D01*
X109456085Y-105435163D01*
X109056428Y-105168121D01*
X108585000Y-105074348D01*
X108113572Y-105168121D01*
X107713915Y-105435163D01*
X107446873Y-105834820D01*
X107353100Y-106306248D01*
X107276900Y-106306248D01*
X107183127Y-105834820D01*
X106916085Y-105435163D01*
X106516428Y-105168121D01*
X106045000Y-105074348D01*
X105573572Y-105168121D01*
X105173915Y-105435163D01*
X104906873Y-105834820D01*
X104813100Y-106306248D01*
X104736900Y-106306248D01*
X104643127Y-105834820D01*
X104376085Y-105435163D01*
X103976428Y-105168121D01*
X103505000Y-105074348D01*
X103033572Y-105168121D01*
X102633915Y-105435163D01*
X102366873Y-105834820D01*
X102273100Y-106306248D01*
X102196900Y-106306248D01*
X102103127Y-105834820D01*
X101836085Y-105435163D01*
X101436428Y-105168121D01*
X100965000Y-105074348D01*
X100493572Y-105168121D01*
X100093915Y-105435163D01*
X99826873Y-105834820D01*
X99733100Y-106306248D01*
X99656900Y-106306248D01*
X99563127Y-105834820D01*
X99296085Y-105435163D01*
X98896428Y-105168121D01*
X98622621Y-105113657D01*
X99686600Y-104049678D01*
X99719611Y-104082689D01*
X99867937Y-104181798D01*
X100042900Y-104216600D01*
X102818800Y-104216600D01*
X102993763Y-104181798D01*
X103142089Y-104082689D01*
X104083229Y-103141549D01*
X104083229Y-103505000D01*
X104106885Y-103623927D01*
X104174252Y-103724748D01*
X104275073Y-103792115D01*
X104394000Y-103815771D01*
X105664000Y-103815771D01*
X105782927Y-103792115D01*
X105883748Y-103724748D01*
X105951115Y-103623927D01*
X105974771Y-103505000D01*
X105974771Y-102692200D01*
X109997022Y-102692200D01*
X111830711Y-104525889D01*
X111979037Y-104624998D01*
X112154000Y-104659800D01*
X129610148Y-104659800D01*
X128996730Y-104913259D01*
X128410318Y-105498648D01*
X128092563Y-106263888D01*
X128091840Y-107092477D01*
X128408259Y-107858270D01*
X128993648Y-108444682D01*
X129758888Y-108762437D01*
X130587477Y-108763160D01*
X131353270Y-108446741D01*
X131939682Y-107861352D01*
X132257437Y-107096112D01*
X132258160Y-106267523D01*
X131941741Y-105501730D01*
X131356352Y-104915318D01*
X130740996Y-104659800D01*
X144514200Y-104659800D01*
X144689163Y-104624998D01*
X144837489Y-104525889D01*
X145993229Y-103370149D01*
X145993229Y-103505000D01*
X146016885Y-103623927D01*
X146084252Y-103724748D01*
X146185073Y-103792115D01*
X146304000Y-103815771D01*
X147574000Y-103815771D01*
X147692927Y-103792115D01*
X147793748Y-103724748D01*
X147861115Y-103623927D01*
X147884771Y-103505000D01*
X147884771Y-102692200D01*
X148904800Y-102692200D01*
X149079763Y-102657398D01*
X149228089Y-102558289D01*
X152430389Y-99355989D01*
X152529498Y-99207663D01*
X152564300Y-99032700D01*
X152564300Y-97204900D01*
X152529498Y-97029937D01*
X152430389Y-96881611D01*
X147289889Y-91741111D01*
X147141563Y-91642002D01*
X146966600Y-91607200D01*
X136255800Y-91607200D01*
X136080837Y-91642002D01*
X135932511Y-91741111D01*
X131135400Y-96538222D01*
X123377089Y-88779911D01*
X123228763Y-88680802D01*
X123053800Y-88646000D01*
X122230771Y-88646000D01*
X122230771Y-88167600D01*
X145854300Y-88167600D01*
X146029263Y-88132798D01*
X146177589Y-88033689D01*
X150131989Y-84079289D01*
X150231098Y-83930963D01*
X150265900Y-83756000D01*
X150265900Y-81121600D01*
X150231098Y-80946637D01*
X150131989Y-80798311D01*
X149616489Y-80282811D01*
X149468163Y-80183702D01*
X149293200Y-80148900D01*
X143301000Y-80148900D01*
X143126037Y-80183702D01*
X142977711Y-80282811D01*
X141636293Y-81624229D01*
X141305000Y-81624229D01*
X141186073Y-81647885D01*
X141178105Y-81653209D01*
X141151794Y-81589689D01*
X140980311Y-81418206D01*
X140756257Y-81325400D01*
X140637400Y-81325400D01*
X140485000Y-81477800D01*
X140485000Y-82557600D01*
X140507400Y-82557600D01*
X140507400Y-82862400D01*
X140485000Y-82862400D01*
X140485000Y-83942200D01*
X140637400Y-84094600D01*
X140756257Y-84094600D01*
X140980311Y-84001794D01*
X141151794Y-83830311D01*
X141178105Y-83766791D01*
X141186073Y-83772115D01*
X141305000Y-83795771D01*
X141905000Y-83795771D01*
X142023927Y-83772115D01*
X142124748Y-83704748D01*
X142192115Y-83603927D01*
X142215771Y-83485000D01*
X142215771Y-82337907D01*
X142264229Y-82289449D01*
X142264229Y-83485000D01*
X142287885Y-83603927D01*
X142355252Y-83704748D01*
X142456073Y-83772115D01*
X142575000Y-83795771D01*
X143175000Y-83795771D01*
X143293927Y-83772115D01*
X143394748Y-83704748D01*
X143462115Y-83603927D01*
X143485771Y-83485000D01*
X143485771Y-82112800D01*
X143534229Y-82112800D01*
X143534229Y-83485000D01*
X143557885Y-83603927D01*
X143587513Y-83648268D01*
X143510144Y-83725501D01*
X143395830Y-84000801D01*
X143395570Y-84298891D01*
X143509404Y-84574390D01*
X143720001Y-84785356D01*
X143995301Y-84899670D01*
X144293391Y-84899930D01*
X144568890Y-84786096D01*
X144779856Y-84575499D01*
X144894170Y-84300199D01*
X144894430Y-84002109D01*
X144780596Y-83726610D01*
X144702449Y-83648326D01*
X144732115Y-83603927D01*
X144755771Y-83485000D01*
X144755771Y-81935000D01*
X144804229Y-81935000D01*
X144804229Y-83485000D01*
X144827885Y-83603927D01*
X144895252Y-83704748D01*
X144996073Y-83772115D01*
X145115000Y-83795771D01*
X145715000Y-83795771D01*
X145833927Y-83772115D01*
X145934748Y-83704748D01*
X146002115Y-83603927D01*
X146025771Y-83485000D01*
X146025771Y-81935000D01*
X146002115Y-81816073D01*
X145934748Y-81715252D01*
X145833927Y-81647885D01*
X145715000Y-81624229D01*
X145115000Y-81624229D01*
X144996073Y-81647885D01*
X144895252Y-81715252D01*
X144827885Y-81816073D01*
X144804229Y-81935000D01*
X144755771Y-81935000D01*
X144732115Y-81816073D01*
X144664748Y-81715252D01*
X144664706Y-81715224D01*
X144755570Y-81496399D01*
X144755830Y-81198309D01*
X144700045Y-81063300D01*
X147900722Y-81063300D01*
X147631711Y-81332311D01*
X147532602Y-81480637D01*
X147497800Y-81655600D01*
X147497800Y-81673458D01*
X147435252Y-81715252D01*
X147367885Y-81816073D01*
X147344229Y-81935000D01*
X147344229Y-83485000D01*
X147367885Y-83603927D01*
X147435252Y-83704748D01*
X147536073Y-83772115D01*
X147655000Y-83795771D01*
X148255000Y-83795771D01*
X148373927Y-83772115D01*
X148474748Y-83704748D01*
X148542115Y-83603927D01*
X148565771Y-83485000D01*
X148565771Y-81935000D01*
X148565514Y-81933709D01*
X148600101Y-81968356D01*
X148614229Y-81974222D01*
X148614229Y-83485000D01*
X148637885Y-83603927D01*
X148678344Y-83664478D01*
X145496322Y-86846500D01*
X144855968Y-86846500D01*
X144894170Y-86754499D01*
X144894430Y-86456409D01*
X144819913Y-86276065D01*
X147008289Y-84087690D01*
X147107398Y-83939363D01*
X147116871Y-83891737D01*
X147142200Y-83764400D01*
X147142200Y-83746542D01*
X147204748Y-83704748D01*
X147272115Y-83603927D01*
X147295771Y-83485000D01*
X147295771Y-81935000D01*
X147272115Y-81816073D01*
X147204748Y-81715252D01*
X147103927Y-81647885D01*
X146985000Y-81624229D01*
X146385000Y-81624229D01*
X146266073Y-81647885D01*
X146165252Y-81715252D01*
X146097885Y-81816073D01*
X146074229Y-81935000D01*
X146074229Y-83485000D01*
X146097885Y-83603927D01*
X146138344Y-83664477D01*
X143912839Y-85889983D01*
X143721110Y-85969204D01*
X143510144Y-86179801D01*
X143395830Y-86455101D01*
X143395570Y-86753191D01*
X143434125Y-86846500D01*
X125834478Y-86846500D01*
X128593289Y-84087690D01*
X128692398Y-83939363D01*
X128701871Y-83891737D01*
X128727200Y-83764400D01*
X128727200Y-83746542D01*
X128789748Y-83704748D01*
X128857115Y-83603927D01*
X128880771Y-83485000D01*
X128880771Y-83014800D01*
X139425400Y-83014800D01*
X139425400Y-83606257D01*
X139518206Y-83830311D01*
X139689689Y-84001794D01*
X139913743Y-84094600D01*
X140032600Y-84094600D01*
X140185000Y-83942200D01*
X140185000Y-82862400D01*
X139577800Y-82862400D01*
X139425400Y-83014800D01*
X128880771Y-83014800D01*
X128880771Y-81935000D01*
X128861636Y-81838800D01*
X134645400Y-81838800D01*
X134645400Y-82290257D01*
X134738206Y-82514311D01*
X134909689Y-82685794D01*
X135133743Y-82778600D01*
X136220200Y-82778600D01*
X136372600Y-82626200D01*
X136372600Y-81686400D01*
X136677400Y-81686400D01*
X136677400Y-82626200D01*
X136829800Y-82778600D01*
X137916257Y-82778600D01*
X138140311Y-82685794D01*
X138311794Y-82514311D01*
X138404600Y-82290257D01*
X138404600Y-81838800D01*
X138379543Y-81813743D01*
X139425400Y-81813743D01*
X139425400Y-82405200D01*
X139577800Y-82557600D01*
X140185000Y-82557600D01*
X140185000Y-81477800D01*
X140032600Y-81325400D01*
X139913743Y-81325400D01*
X139689689Y-81418206D01*
X139518206Y-81589689D01*
X139425400Y-81813743D01*
X138379543Y-81813743D01*
X138252200Y-81686400D01*
X136677400Y-81686400D01*
X136372600Y-81686400D01*
X134797800Y-81686400D01*
X134645400Y-81838800D01*
X128861636Y-81838800D01*
X128857115Y-81816073D01*
X128789748Y-81715252D01*
X128751367Y-81689607D01*
X128828770Y-81503199D01*
X128829030Y-81205109D01*
X128715196Y-80929610D01*
X128563595Y-80777743D01*
X134645400Y-80777743D01*
X134645400Y-81229200D01*
X134797800Y-81381600D01*
X136372600Y-81381600D01*
X136372600Y-80441800D01*
X136677400Y-80441800D01*
X136677400Y-81381600D01*
X138252200Y-81381600D01*
X138404600Y-81229200D01*
X138404600Y-80777743D01*
X138311794Y-80553689D01*
X138140311Y-80382206D01*
X137916257Y-80289400D01*
X136829800Y-80289400D01*
X136677400Y-80441800D01*
X136372600Y-80441800D01*
X136220200Y-80289400D01*
X135133743Y-80289400D01*
X134909689Y-80382206D01*
X134738206Y-80553689D01*
X134645400Y-80777743D01*
X128563595Y-80777743D01*
X128504599Y-80718644D01*
X128229299Y-80604330D01*
X127931209Y-80604070D01*
X127655710Y-80717904D01*
X127477001Y-80896300D01*
X127302100Y-80896300D01*
X127127137Y-80931102D01*
X126978811Y-81030211D01*
X126676711Y-81332311D01*
X126577602Y-81480637D01*
X126542800Y-81655600D01*
X126542800Y-81673458D01*
X126480252Y-81715252D01*
X126412885Y-81816073D01*
X126389229Y-81935000D01*
X126389229Y-83485000D01*
X126412885Y-83603927D01*
X126480252Y-83704748D01*
X126581073Y-83772115D01*
X126700000Y-83795771D01*
X127300000Y-83795771D01*
X127418927Y-83772115D01*
X127519748Y-83704748D01*
X127587115Y-83603927D01*
X127610771Y-83485000D01*
X127610771Y-81944449D01*
X127654601Y-81988356D01*
X127659229Y-81990278D01*
X127659229Y-83485000D01*
X127682885Y-83603927D01*
X127723344Y-83664477D01*
X126459038Y-84928783D01*
X126395996Y-84776210D01*
X126187200Y-84567048D01*
X126187200Y-83746542D01*
X126249748Y-83704748D01*
X126317115Y-83603927D01*
X126340771Y-83485000D01*
X126340771Y-81935000D01*
X126317115Y-81816073D01*
X126249748Y-81715252D01*
X126148927Y-81647885D01*
X126030000Y-81624229D01*
X125430000Y-81624229D01*
X125311073Y-81647885D01*
X125210252Y-81715252D01*
X125142885Y-81816073D01*
X125119229Y-81935000D01*
X125119229Y-83485000D01*
X125142885Y-83603927D01*
X125210252Y-83704748D01*
X125272800Y-83746542D01*
X125272800Y-84628103D01*
X125125544Y-84775101D01*
X125011230Y-85050401D01*
X125010970Y-85348491D01*
X125124804Y-85623990D01*
X125335401Y-85834956D01*
X125489061Y-85898761D01*
X124948022Y-86439800D01*
X118909200Y-86439800D01*
X118734237Y-86474602D01*
X118585911Y-86573711D01*
X117150611Y-88009011D01*
X117148927Y-88007885D01*
X117057776Y-87989754D01*
X117100070Y-87887899D01*
X117100290Y-87635388D01*
X120514078Y-84221600D01*
X120650000Y-84221600D01*
X120824963Y-84186798D01*
X120973289Y-84087689D01*
X121072398Y-83939363D01*
X121107200Y-83764400D01*
X121107200Y-83746542D01*
X121169748Y-83704748D01*
X121237115Y-83603927D01*
X121260771Y-83485000D01*
X121260771Y-81935000D01*
X121309229Y-81935000D01*
X121309229Y-83485000D01*
X121332885Y-83603927D01*
X121400252Y-83704748D01*
X121501073Y-83772115D01*
X121620000Y-83795771D01*
X122220000Y-83795771D01*
X122338927Y-83772115D01*
X122439748Y-83704748D01*
X122507115Y-83603927D01*
X122530771Y-83485000D01*
X122530771Y-82112800D01*
X122579229Y-82112800D01*
X122579229Y-83485000D01*
X122595277Y-83565677D01*
X122532944Y-83627901D01*
X122418630Y-83903201D01*
X122418370Y-84201291D01*
X122532204Y-84476790D01*
X122742801Y-84687756D01*
X123018101Y-84802070D01*
X123316191Y-84802330D01*
X123591690Y-84688496D01*
X123802656Y-84477899D01*
X123916970Y-84202599D01*
X123917230Y-83904509D01*
X123803396Y-83629010D01*
X123777321Y-83602890D01*
X123800771Y-83485000D01*
X123800771Y-81935000D01*
X123849229Y-81935000D01*
X123849229Y-83485000D01*
X123872885Y-83603927D01*
X123940252Y-83704748D01*
X124041073Y-83772115D01*
X124160000Y-83795771D01*
X124760000Y-83795771D01*
X124878927Y-83772115D01*
X124979748Y-83704748D01*
X125047115Y-83603927D01*
X125070771Y-83485000D01*
X125070771Y-81935000D01*
X125047115Y-81816073D01*
X124979748Y-81715252D01*
X124878927Y-81647885D01*
X124760000Y-81624229D01*
X124160000Y-81624229D01*
X124041073Y-81647885D01*
X123940252Y-81715252D01*
X123872885Y-81816073D01*
X123849229Y-81935000D01*
X123800771Y-81935000D01*
X123777115Y-81816073D01*
X123730511Y-81746326D01*
X123839770Y-81483199D01*
X123840030Y-81185109D01*
X123726196Y-80909610D01*
X123515599Y-80698644D01*
X123240299Y-80584330D01*
X122942209Y-80584070D01*
X122666710Y-80697904D01*
X122455744Y-80908501D01*
X122341430Y-81183801D01*
X122341417Y-81198400D01*
X121920000Y-81198400D01*
X121745037Y-81233202D01*
X121596711Y-81332311D01*
X121497602Y-81480637D01*
X121462800Y-81655600D01*
X121462800Y-81673458D01*
X121400252Y-81715252D01*
X121332885Y-81816073D01*
X121309229Y-81935000D01*
X121260771Y-81935000D01*
X121237115Y-81816073D01*
X121169748Y-81715252D01*
X121068927Y-81647885D01*
X120950000Y-81624229D01*
X120350000Y-81624229D01*
X120231073Y-81647885D01*
X120223105Y-81653209D01*
X120196794Y-81589689D01*
X120025311Y-81418206D01*
X119801257Y-81325400D01*
X119682400Y-81325400D01*
X119530000Y-81477800D01*
X119530000Y-82557600D01*
X119552400Y-82557600D01*
X119552400Y-82862400D01*
X119530000Y-82862400D01*
X119530000Y-82882400D01*
X119230000Y-82882400D01*
X119230000Y-82862400D01*
X118622800Y-82862400D01*
X118470400Y-83014800D01*
X118470400Y-83606257D01*
X118563206Y-83830311D01*
X118734689Y-84001794D01*
X118958743Y-84094600D01*
X119077600Y-84094600D01*
X119227598Y-83944602D01*
X119227598Y-84094600D01*
X119347922Y-84094600D01*
X116453533Y-86988989D01*
X116202509Y-86988770D01*
X115927010Y-87102604D01*
X115897400Y-87132162D01*
X115897400Y-84933200D01*
X115862598Y-84758237D01*
X115855291Y-84747302D01*
X115763490Y-84609911D01*
X112992379Y-81838800D01*
X113690400Y-81838800D01*
X113690400Y-82290257D01*
X113783206Y-82514311D01*
X113954689Y-82685794D01*
X114178743Y-82778600D01*
X115265200Y-82778600D01*
X115417600Y-82626200D01*
X115417600Y-81686400D01*
X115722400Y-81686400D01*
X115722400Y-82626200D01*
X115874800Y-82778600D01*
X116961257Y-82778600D01*
X117185311Y-82685794D01*
X117356794Y-82514311D01*
X117449600Y-82290257D01*
X117449600Y-81838800D01*
X117424543Y-81813743D01*
X118470400Y-81813743D01*
X118470400Y-82405200D01*
X118622800Y-82557600D01*
X119230000Y-82557600D01*
X119230000Y-81477800D01*
X119077600Y-81325400D01*
X118958743Y-81325400D01*
X118734689Y-81418206D01*
X118563206Y-81589689D01*
X118470400Y-81813743D01*
X117424543Y-81813743D01*
X117297200Y-81686400D01*
X115722400Y-81686400D01*
X115417600Y-81686400D01*
X113842800Y-81686400D01*
X113690400Y-81838800D01*
X112992379Y-81838800D01*
X111931322Y-80777743D01*
X113690400Y-80777743D01*
X113690400Y-81229200D01*
X113842800Y-81381600D01*
X115417600Y-81381600D01*
X115417600Y-80441800D01*
X115722400Y-80441800D01*
X115722400Y-81381600D01*
X117297200Y-81381600D01*
X117449600Y-81229200D01*
X117449600Y-80777743D01*
X117356794Y-80553689D01*
X117185311Y-80382206D01*
X116961257Y-80289400D01*
X115874800Y-80289400D01*
X115722400Y-80441800D01*
X115417600Y-80441800D01*
X115265200Y-80289400D01*
X114178743Y-80289400D01*
X113954689Y-80382206D01*
X113783206Y-80553689D01*
X113690400Y-80777743D01*
X111931322Y-80777743D01*
X111365889Y-80212311D01*
X111217563Y-80113202D01*
X111042600Y-80078400D01*
X100815000Y-80078400D01*
X100640037Y-80113202D01*
X100491711Y-80212311D01*
X99371711Y-81332311D01*
X99272602Y-81480637D01*
X99247953Y-81604558D01*
X99241794Y-81589689D01*
X99070311Y-81418206D01*
X98846257Y-81325400D01*
X98727400Y-81325400D01*
X98575000Y-81477800D01*
X98575000Y-82557600D01*
X98597400Y-82557600D01*
X98597400Y-82862400D01*
X98575000Y-82862400D01*
X98575000Y-83942200D01*
X98727400Y-84094600D01*
X98846257Y-84094600D01*
X99070311Y-84001794D01*
X99241794Y-83830311D01*
X99268105Y-83766791D01*
X99276073Y-83772115D01*
X99395000Y-83795771D01*
X99995000Y-83795771D01*
X100113927Y-83772115D01*
X100214748Y-83704748D01*
X100282115Y-83603927D01*
X100305771Y-83485000D01*
X100305771Y-81935000D01*
X100282115Y-81816073D01*
X100241656Y-81755522D01*
X100595081Y-81402097D01*
X100542602Y-81480637D01*
X100507800Y-81655600D01*
X100507800Y-81673458D01*
X100445252Y-81715252D01*
X100377885Y-81816073D01*
X100354229Y-81935000D01*
X100354229Y-83485000D01*
X100377885Y-83603927D01*
X100445252Y-83704748D01*
X100546073Y-83772115D01*
X100665000Y-83795771D01*
X101265000Y-83795771D01*
X101383927Y-83772115D01*
X101484748Y-83704748D01*
X101552115Y-83603927D01*
X101575771Y-83485000D01*
X101575771Y-81935000D01*
X101573150Y-81921824D01*
X101619601Y-81968356D01*
X101624229Y-81970278D01*
X101624229Y-83485000D01*
X101643506Y-83581914D01*
X101600144Y-83625201D01*
X101485830Y-83900501D01*
X101485570Y-84198591D01*
X101599404Y-84474090D01*
X101810001Y-84685056D01*
X102085301Y-84799370D01*
X102383391Y-84799630D01*
X102658890Y-84685796D01*
X102869856Y-84475199D01*
X102943065Y-84298891D01*
X104025570Y-84298891D01*
X104139404Y-84574390D01*
X104350001Y-84785356D01*
X104625301Y-84899670D01*
X104923391Y-84899930D01*
X105198890Y-84786096D01*
X105409856Y-84575499D01*
X105524170Y-84300199D01*
X105524430Y-84002109D01*
X105410596Y-83726610D01*
X105332449Y-83648326D01*
X105362115Y-83603927D01*
X105385771Y-83485000D01*
X105385771Y-81935000D01*
X105362115Y-81816073D01*
X105294748Y-81715252D01*
X105193927Y-81647885D01*
X105075000Y-81624229D01*
X104475000Y-81624229D01*
X104356073Y-81647885D01*
X104255252Y-81715252D01*
X104187885Y-81816073D01*
X104164229Y-81935000D01*
X104164229Y-83485000D01*
X104187885Y-83603927D01*
X104217513Y-83648268D01*
X104140144Y-83725501D01*
X104025830Y-84000801D01*
X104025570Y-84298891D01*
X102943065Y-84298891D01*
X102984170Y-84199899D01*
X102984430Y-83901809D01*
X102870596Y-83626310D01*
X102826458Y-83582094D01*
X102845771Y-83485000D01*
X102845771Y-81935000D01*
X102894229Y-81935000D01*
X102894229Y-83485000D01*
X102917885Y-83603927D01*
X102985252Y-83704748D01*
X103086073Y-83772115D01*
X103205000Y-83795771D01*
X103805000Y-83795771D01*
X103923927Y-83772115D01*
X104024748Y-83704748D01*
X104092115Y-83603927D01*
X104115771Y-83485000D01*
X104115771Y-81935000D01*
X104092115Y-81816073D01*
X104024748Y-81715252D01*
X103923927Y-81647885D01*
X103805000Y-81624229D01*
X103205000Y-81624229D01*
X103086073Y-81647885D01*
X102985252Y-81715252D01*
X102917885Y-81816073D01*
X102894229Y-81935000D01*
X102845771Y-81935000D01*
X102822115Y-81816073D01*
X102754748Y-81715252D01*
X102709866Y-81685263D01*
X102793770Y-81483199D01*
X102794030Y-81185109D01*
X102714569Y-80992800D01*
X106084468Y-80992800D01*
X106014411Y-81039611D01*
X105721711Y-81332311D01*
X105622602Y-81480637D01*
X105587800Y-81655600D01*
X105587800Y-81673458D01*
X105525252Y-81715252D01*
X105457885Y-81816073D01*
X105434229Y-81935000D01*
X105434229Y-83485000D01*
X105457885Y-83603927D01*
X105525252Y-83704748D01*
X105626073Y-83772115D01*
X105745000Y-83795771D01*
X106345000Y-83795771D01*
X106463927Y-83772115D01*
X106564748Y-83704748D01*
X106632115Y-83603927D01*
X106655771Y-83485000D01*
X106655771Y-81977491D01*
X106676001Y-81997756D01*
X106704229Y-82009477D01*
X106704229Y-83485000D01*
X106727885Y-83603927D01*
X106795252Y-83704748D01*
X106896073Y-83772115D01*
X107015000Y-83795771D01*
X107615000Y-83795771D01*
X107733927Y-83772115D01*
X107834748Y-83704748D01*
X107902115Y-83603927D01*
X107925771Y-83485000D01*
X107925771Y-82745807D01*
X109272078Y-81399500D01*
X109840290Y-81399500D01*
X109802130Y-81491401D01*
X109801870Y-81789491D01*
X109915704Y-82064990D01*
X110126301Y-82275956D01*
X110401601Y-82390270D01*
X110699691Y-82390530D01*
X110879398Y-82316276D01*
X110953418Y-82390296D01*
X110859010Y-82429304D01*
X110648044Y-82639901D01*
X110533730Y-82915201D01*
X110533510Y-83167712D01*
X108427311Y-85273911D01*
X108328202Y-85422237D01*
X108293400Y-85597200D01*
X108293400Y-88920000D01*
X108328202Y-89094963D01*
X108427311Y-89243289D01*
X108521574Y-89306274D01*
X108572800Y-89357500D01*
X108651561Y-89357500D01*
X108750600Y-89377200D01*
X110030000Y-89377200D01*
X110137732Y-89355771D01*
X110182400Y-89355771D01*
X110182400Y-89357500D01*
X110202400Y-89357500D01*
X110202400Y-89482500D01*
X110182400Y-89482500D01*
X110182400Y-89484229D01*
X110137732Y-89484229D01*
X110030000Y-89462800D01*
X103224400Y-89462800D01*
X103049437Y-89497602D01*
X102901111Y-89596711D01*
X100905771Y-91592051D01*
X100905771Y-91270000D01*
X100882115Y-91151073D01*
X100814748Y-91050252D01*
X100713927Y-90982885D01*
X100595000Y-90959229D01*
X98795000Y-90959229D01*
X98676073Y-90982885D01*
X98575252Y-91050252D01*
X98507885Y-91151073D01*
X98484229Y-91270000D01*
X98484229Y-93270000D01*
X98507885Y-93388927D01*
X98575252Y-93489748D01*
X98676073Y-93557115D01*
X98795000Y-93580771D01*
X100595000Y-93580771D01*
X100713927Y-93557115D01*
X100814748Y-93489748D01*
X100882115Y-93388927D01*
X100905771Y-93270000D01*
X100905771Y-92720960D01*
X101049363Y-92692398D01*
X101197689Y-92593289D01*
X103413778Y-90377200D01*
X110030000Y-90377200D01*
X110137732Y-90355771D01*
X110182400Y-90355771D01*
X110182400Y-90357500D01*
X110202400Y-90357500D01*
X110202400Y-90482500D01*
X110182400Y-90482500D01*
X110182400Y-90484229D01*
X110137732Y-90484229D01*
X110030000Y-90462800D01*
X108655400Y-90462800D01*
X108480437Y-90497602D01*
X108332111Y-90596711D01*
X108004611Y-90924211D01*
X107905502Y-91072537D01*
X107870700Y-91247500D01*
X107870700Y-94717100D01*
X107905502Y-94892063D01*
X108004611Y-95040389D01*
X109729200Y-96764978D01*
X109729200Y-96950098D01*
X109694452Y-96872676D01*
X109028891Y-96631327D01*
X108321634Y-96663048D01*
X107815548Y-96872676D01*
X107692458Y-97146931D01*
X108755000Y-98209474D01*
X108769142Y-98195331D01*
X108984669Y-98410858D01*
X108970526Y-98425000D01*
X108984669Y-98439142D01*
X108769142Y-98654669D01*
X108755000Y-98640526D01*
X107692458Y-99703069D01*
X107815548Y-99977324D01*
X108481109Y-100218673D01*
X109188366Y-100186952D01*
X109694452Y-99977324D01*
X109729200Y-99899902D01*
X109729200Y-101777800D01*
X105974771Y-101777800D01*
X105974771Y-100965000D01*
X105951115Y-100846073D01*
X105883748Y-100745252D01*
X105782927Y-100677885D01*
X105664000Y-100654229D01*
X104394000Y-100654229D01*
X104275073Y-100677885D01*
X104174252Y-100745252D01*
X104106885Y-100846073D01*
X104083229Y-100965000D01*
X104083229Y-101784040D01*
X103939637Y-101812602D01*
X103791311Y-101911711D01*
X103692202Y-102060037D01*
X103657400Y-102235000D01*
X103657400Y-102274222D01*
X103225600Y-102706022D01*
X103225600Y-102539800D01*
X103073200Y-102387400D01*
X102133400Y-102387400D01*
X102133400Y-102407400D01*
X101828600Y-102407400D01*
X101828600Y-102387400D01*
X100888800Y-102387400D01*
X100736400Y-102539800D01*
X100736400Y-103302200D01*
X100232278Y-103302200D01*
X100143800Y-103213722D01*
X100143800Y-100843743D01*
X100736400Y-100843743D01*
X100736400Y-101930200D01*
X100888800Y-102082600D01*
X101828600Y-102082600D01*
X101828600Y-100507800D01*
X102133400Y-100507800D01*
X102133400Y-102082600D01*
X103073200Y-102082600D01*
X103225600Y-101930200D01*
X103225600Y-100843743D01*
X103132794Y-100619689D01*
X102961311Y-100448206D01*
X102737257Y-100355400D01*
X102285800Y-100355400D01*
X102133400Y-100507800D01*
X101828600Y-100507800D01*
X101676200Y-100355400D01*
X101224743Y-100355400D01*
X101000689Y-100448206D01*
X100829206Y-100619689D01*
X100736400Y-100843743D01*
X100143800Y-100843743D01*
X100143800Y-99703069D01*
X100692458Y-99703069D01*
X100815548Y-99977324D01*
X101481109Y-100218673D01*
X102188366Y-100186952D01*
X102694452Y-99977324D01*
X102817542Y-99703069D01*
X101755000Y-98640526D01*
X100692458Y-99703069D01*
X100143800Y-99703069D01*
X100143800Y-99222313D01*
X100202676Y-99364452D01*
X100476931Y-99487542D01*
X101539474Y-98425000D01*
X101525331Y-98410858D01*
X101740858Y-98195331D01*
X101755000Y-98209474D01*
X101769142Y-98195331D01*
X101984669Y-98410858D01*
X101970526Y-98425000D01*
X103033069Y-99487542D01*
X103307324Y-99364452D01*
X103548673Y-98698891D01*
X103516952Y-97991634D01*
X103307324Y-97485548D01*
X103033070Y-97362459D01*
X103144377Y-97251152D01*
X103109225Y-97216000D01*
X103505000Y-97216000D01*
X103679963Y-97181198D01*
X103828289Y-97082089D01*
X103927398Y-96933763D01*
X103962200Y-96758800D01*
X103962200Y-96727137D01*
X103979980Y-96715257D01*
X103997800Y-96727164D01*
X103997800Y-96758800D01*
X104032602Y-96933763D01*
X104131711Y-97082089D01*
X104280037Y-97181198D01*
X104391299Y-97203329D01*
X104005454Y-97588502D01*
X103780457Y-98130357D01*
X103779945Y-98717069D01*
X104003996Y-99259316D01*
X104418502Y-99674546D01*
X104960357Y-99899543D01*
X105547069Y-99900055D01*
X106089316Y-99676004D01*
X106504546Y-99261498D01*
X106729543Y-98719643D01*
X106730039Y-98151109D01*
X106961327Y-98151109D01*
X106993048Y-98858366D01*
X107202676Y-99364452D01*
X107476931Y-99487542D01*
X108539474Y-98425000D01*
X107476931Y-97362458D01*
X107202676Y-97485548D01*
X106961327Y-98151109D01*
X106730039Y-98151109D01*
X106730055Y-98132931D01*
X106546429Y-97688520D01*
X106555682Y-97641999D01*
X106570700Y-97566500D01*
X106570700Y-96019500D01*
X106535898Y-95844537D01*
X106436789Y-95696211D01*
X104989283Y-94248705D01*
X105021475Y-94200527D01*
X105045131Y-94081600D01*
X105045131Y-92750640D01*
X105021475Y-92631713D01*
X104954108Y-92530892D01*
X104853287Y-92463525D01*
X104734360Y-92439869D01*
X104315501Y-92439869D01*
X104301194Y-92405329D01*
X104129711Y-92233846D01*
X103905657Y-92141040D01*
X103797100Y-92141040D01*
X103644700Y-92293440D01*
X103644700Y-93263720D01*
X103677400Y-93263720D01*
X103677400Y-93568520D01*
X103644700Y-93568520D01*
X103644700Y-94538800D01*
X103797100Y-94691200D01*
X103905657Y-94691200D01*
X104086325Y-94616365D01*
X104131711Y-94684289D01*
X104285051Y-94837629D01*
X104175560Y-94837629D01*
X104056633Y-94861285D01*
X103979980Y-94912503D01*
X103903327Y-94861285D01*
X103784400Y-94837629D01*
X103225600Y-94837629D01*
X103106673Y-94861285D01*
X103030020Y-94912503D01*
X102953367Y-94861285D01*
X102834440Y-94837629D01*
X102275640Y-94837629D01*
X102239700Y-94844778D01*
X102266278Y-94818200D01*
X102555000Y-94818200D01*
X102729963Y-94783398D01*
X102878289Y-94684289D01*
X102923675Y-94616365D01*
X103104343Y-94691200D01*
X103212900Y-94691200D01*
X103365300Y-94538800D01*
X103365300Y-93568520D01*
X103332600Y-93568520D01*
X103332600Y-93263720D01*
X103365300Y-93263720D01*
X103365300Y-92293440D01*
X103212900Y-92141040D01*
X103104343Y-92141040D01*
X102880289Y-92233846D01*
X102708806Y-92405329D01*
X102694499Y-92439869D01*
X102275640Y-92439869D01*
X102156713Y-92463525D01*
X102055892Y-92530892D01*
X101988525Y-92631713D01*
X101964869Y-92750640D01*
X101964869Y-93926084D01*
X101901937Y-93938602D01*
X101753611Y-94037711D01*
X98755419Y-97035903D01*
X98549643Y-96950457D01*
X97962931Y-96949945D01*
X97420684Y-97173996D01*
X97005454Y-97588502D01*
X96780457Y-98130357D01*
X96780252Y-98365774D01*
X95072200Y-96657722D01*
X95072200Y-93580771D01*
X95515000Y-93580771D01*
X95633927Y-93557115D01*
X95734748Y-93489748D01*
X95802115Y-93388927D01*
X95825771Y-93270000D01*
X95825771Y-91270000D01*
X95802115Y-91151073D01*
X95734748Y-91050252D01*
X95633927Y-90982885D01*
X95515000Y-90959229D01*
X95072200Y-90959229D01*
X95072200Y-89380771D01*
X95515000Y-89380771D01*
X95633927Y-89357115D01*
X95734748Y-89289748D01*
X95802115Y-89188927D01*
X95825771Y-89070000D01*
X95825771Y-88374800D01*
X98185400Y-88374800D01*
X98185400Y-89191257D01*
X98278206Y-89415311D01*
X98449689Y-89586794D01*
X98673743Y-89679600D01*
X99390200Y-89679600D01*
X99542600Y-89527200D01*
X99542600Y-88222400D01*
X99847400Y-88222400D01*
X99847400Y-89527200D01*
X99999800Y-89679600D01*
X100716257Y-89679600D01*
X100940311Y-89586794D01*
X101111794Y-89415311D01*
X101204600Y-89191257D01*
X101204600Y-88374800D01*
X101052200Y-88222400D01*
X99847400Y-88222400D01*
X99542600Y-88222400D01*
X98337800Y-88222400D01*
X98185400Y-88374800D01*
X95825771Y-88374800D01*
X95825771Y-87070000D01*
X95802115Y-86951073D01*
X95800559Y-86948743D01*
X98185400Y-86948743D01*
X98185400Y-87765200D01*
X98337800Y-87917600D01*
X99542600Y-87917600D01*
X99542600Y-86612800D01*
X99847400Y-86612800D01*
X99847400Y-87917600D01*
X101052200Y-87917600D01*
X101204600Y-87765200D01*
X101204600Y-86948743D01*
X101111794Y-86724689D01*
X100940311Y-86553206D01*
X100716257Y-86460400D01*
X99999800Y-86460400D01*
X99847400Y-86612800D01*
X99542600Y-86612800D01*
X99390200Y-86460400D01*
X98673743Y-86460400D01*
X98449689Y-86553206D01*
X98278206Y-86724689D01*
X98185400Y-86948743D01*
X95800559Y-86948743D01*
X95734748Y-86850252D01*
X95633927Y-86782885D01*
X95515000Y-86759229D01*
X93715000Y-86759229D01*
X93596073Y-86782885D01*
X93495252Y-86850252D01*
X93427885Y-86951073D01*
X93404229Y-87070000D01*
X93404229Y-88188800D01*
X91750771Y-88188800D01*
X91750771Y-88011000D01*
X91727115Y-87892073D01*
X91659748Y-87791252D01*
X91558927Y-87723885D01*
X91440000Y-87700229D01*
X88900000Y-87700229D01*
X88781073Y-87723885D01*
X88680252Y-87791252D01*
X88612885Y-87892073D01*
X88589229Y-88011000D01*
X86144100Y-88011000D01*
X86144100Y-83014800D01*
X97515400Y-83014800D01*
X97515400Y-83606257D01*
X97608206Y-83830311D01*
X97779689Y-84001794D01*
X98003743Y-84094600D01*
X98122600Y-84094600D01*
X98275000Y-83942200D01*
X98275000Y-82862400D01*
X97667800Y-82862400D01*
X97515400Y-83014800D01*
X86144100Y-83014800D01*
X86144100Y-81838800D01*
X92735400Y-81838800D01*
X92735400Y-82290257D01*
X92828206Y-82514311D01*
X92999689Y-82685794D01*
X93223743Y-82778600D01*
X94310200Y-82778600D01*
X94462600Y-82626200D01*
X94462600Y-81686400D01*
X94767400Y-81686400D01*
X94767400Y-82626200D01*
X94919800Y-82778600D01*
X96006257Y-82778600D01*
X96230311Y-82685794D01*
X96401794Y-82514311D01*
X96494600Y-82290257D01*
X96494600Y-81838800D01*
X96469543Y-81813743D01*
X97515400Y-81813743D01*
X97515400Y-82405200D01*
X97667800Y-82557600D01*
X98275000Y-82557600D01*
X98275000Y-81477800D01*
X98122600Y-81325400D01*
X98003743Y-81325400D01*
X97779689Y-81418206D01*
X97608206Y-81589689D01*
X97515400Y-81813743D01*
X96469543Y-81813743D01*
X96342200Y-81686400D01*
X94767400Y-81686400D01*
X94462600Y-81686400D01*
X92887800Y-81686400D01*
X92735400Y-81838800D01*
X86144100Y-81838800D01*
X86144100Y-80777743D01*
X92735400Y-80777743D01*
X92735400Y-81229200D01*
X92887800Y-81381600D01*
X94462600Y-81381600D01*
X94462600Y-80441800D01*
X94767400Y-80441800D01*
X94767400Y-81381600D01*
X96342200Y-81381600D01*
X96494600Y-81229200D01*
X96494600Y-80777743D01*
X96401794Y-80553689D01*
X96230311Y-80382206D01*
X96006257Y-80289400D01*
X94919800Y-80289400D01*
X94767400Y-80441800D01*
X94462600Y-80441800D01*
X94310200Y-80289400D01*
X93223743Y-80289400D01*
X92999689Y-80382206D01*
X92828206Y-80553689D01*
X92735400Y-80777743D01*
X86144100Y-80777743D01*
X86144100Y-76612477D01*
X87451840Y-76612477D01*
X87768259Y-77378270D01*
X88353648Y-77964682D01*
X89118888Y-78282437D01*
X89947477Y-78283160D01*
X90713270Y-77966741D01*
X91299682Y-77381352D01*
X91617437Y-76616112D01*
X91618160Y-75787523D01*
X91301741Y-75021730D01*
X90716352Y-74435318D01*
X89951112Y-74117563D01*
X89122523Y-74116840D01*
X88356730Y-74433259D01*
X87770318Y-75018648D01*
X87452563Y-75783888D01*
X87451840Y-76612477D01*
X86144100Y-76612477D01*
X86144100Y-69850000D01*
X87027129Y-69850000D01*
X87027129Y-72390000D01*
X87050785Y-72508927D01*
X87118152Y-72609748D01*
X87218973Y-72677115D01*
X87337900Y-72700771D01*
X89192100Y-72700771D01*
X89311027Y-72677115D01*
X89411848Y-72609748D01*
X89479215Y-72508927D01*
X89502871Y-72390000D01*
X89502871Y-72263898D01*
X89826152Y-72657274D01*
X90357730Y-72940947D01*
X90415269Y-72949357D01*
X90652600Y-72838785D01*
X90652600Y-71272400D01*
X90632600Y-71272400D01*
X90632600Y-70967600D01*
X90652600Y-70967600D01*
X90652600Y-69401215D01*
X90957400Y-69401215D01*
X90957400Y-70967600D01*
X90977400Y-70967600D01*
X90977400Y-71272400D01*
X90957400Y-71272400D01*
X90957400Y-72838785D01*
X91194731Y-72949357D01*
X91252270Y-72940947D01*
X91783848Y-72657274D01*
X92166405Y-72191769D01*
X92226414Y-71994425D01*
X92473915Y-72364837D01*
X92873572Y-72631879D01*
X93345000Y-72725652D01*
X93816428Y-72631879D01*
X94216085Y-72364837D01*
X94483127Y-71965180D01*
X94576900Y-71493752D01*
X94576900Y-70746248D01*
X94483127Y-70274820D01*
X94216085Y-69875163D01*
X93816428Y-69608121D01*
X93345000Y-69514348D01*
X92873572Y-69608121D01*
X92473915Y-69875163D01*
X92226414Y-70245575D01*
X92166405Y-70048231D01*
X91783848Y-69582726D01*
X91252270Y-69299053D01*
X91194731Y-69290643D01*
X90957400Y-69401215D01*
X90652600Y-69401215D01*
X90415269Y-69290643D01*
X90357730Y-69299053D01*
X89826152Y-69582726D01*
X89502871Y-69976102D01*
X89502871Y-69850000D01*
X89479215Y-69731073D01*
X89411848Y-69630252D01*
X89311027Y-69562885D01*
X89192100Y-69539229D01*
X87337900Y-69539229D01*
X87218973Y-69562885D01*
X87118152Y-69630252D01*
X87050785Y-69731073D01*
X87027129Y-69850000D01*
X86144100Y-69850000D01*
X86144100Y-68999100D01*
X100417122Y-68999100D01*
X99426711Y-69989511D01*
G36*
X144957800Y-96727137D02*
X144957800Y-97369070D01*
X144943069Y-97362458D01*
X143880526Y-98425000D01*
X144943069Y-99487542D01*
X144957800Y-99480930D01*
X144957800Y-100534695D01*
X144871311Y-100448206D01*
X144647257Y-100355400D01*
X144195800Y-100355400D01*
X144043400Y-100507800D01*
X144043400Y-102082600D01*
X144983200Y-102082600D01*
X145104411Y-101961389D01*
X145606622Y-102463600D01*
X145135600Y-102934622D01*
X145135600Y-102539800D01*
X144983200Y-102387400D01*
X144043400Y-102387400D01*
X144043400Y-102407400D01*
X143738600Y-102407400D01*
X143738600Y-102387400D01*
X142798800Y-102387400D01*
X142646400Y-102539800D01*
X142646400Y-103626257D01*
X142695751Y-103745400D01*
X137519878Y-103745400D01*
X140421535Y-100843743D01*
X142646400Y-100843743D01*
X142646400Y-101930200D01*
X142798800Y-102082600D01*
X143738600Y-102082600D01*
X143738600Y-100507800D01*
X143586200Y-100355400D01*
X143134743Y-100355400D01*
X142910689Y-100448206D01*
X142739206Y-100619689D01*
X142646400Y-100843743D01*
X140421535Y-100843743D01*
X141562209Y-99703069D01*
X142602458Y-99703069D01*
X142725548Y-99977324D01*
X143391109Y-100218673D01*
X144098366Y-100186952D01*
X144604452Y-99977324D01*
X144727542Y-99703069D01*
X143665000Y-98640526D01*
X142602458Y-99703069D01*
X141562209Y-99703069D01*
X142050627Y-99214651D01*
X142112676Y-99364452D01*
X142386931Y-99487542D01*
X143449474Y-98425000D01*
X143435332Y-98410858D01*
X143650858Y-98195332D01*
X143665000Y-98209474D01*
X144727542Y-97146931D01*
X144719169Y-97128274D01*
X144788289Y-97082089D01*
X144887398Y-96933763D01*
X144922200Y-96758800D01*
X144922200Y-96727164D01*
X144940020Y-96715257D01*
X144957800Y-96727137D01*
X144957800Y-96727137D01*
G37*
X144957800Y-96727137D02*
X144957800Y-97369070D01*
X144943069Y-97362458D01*
X143880526Y-98425000D01*
X144943069Y-99487542D01*
X144957800Y-99480930D01*
X144957800Y-100534695D01*
X144871311Y-100448206D01*
X144647257Y-100355400D01*
X144195800Y-100355400D01*
X144043400Y-100507800D01*
X144043400Y-102082600D01*
X144983200Y-102082600D01*
X145104411Y-101961389D01*
X145606622Y-102463600D01*
X145135600Y-102934622D01*
X145135600Y-102539800D01*
X144983200Y-102387400D01*
X144043400Y-102387400D01*
X144043400Y-102407400D01*
X143738600Y-102407400D01*
X143738600Y-102387400D01*
X142798800Y-102387400D01*
X142646400Y-102539800D01*
X142646400Y-103626257D01*
X142695751Y-103745400D01*
X137519878Y-103745400D01*
X140421535Y-100843743D01*
X142646400Y-100843743D01*
X142646400Y-101930200D01*
X142798800Y-102082600D01*
X143738600Y-102082600D01*
X143738600Y-100507800D01*
X143586200Y-100355400D01*
X143134743Y-100355400D01*
X142910689Y-100448206D01*
X142739206Y-100619689D01*
X142646400Y-100843743D01*
X140421535Y-100843743D01*
X141562209Y-99703069D01*
X142602458Y-99703069D01*
X142725548Y-99977324D01*
X143391109Y-100218673D01*
X144098366Y-100186952D01*
X144604452Y-99977324D01*
X144727542Y-99703069D01*
X143665000Y-98640526D01*
X142602458Y-99703069D01*
X141562209Y-99703069D01*
X142050627Y-99214651D01*
X142112676Y-99364452D01*
X142386931Y-99487542D01*
X143449474Y-98425000D01*
X143435332Y-98410858D01*
X143650858Y-98195332D01*
X143665000Y-98209474D01*
X144727542Y-97146931D01*
X144719169Y-97128274D01*
X144788289Y-97082089D01*
X144887398Y-96933763D01*
X144922200Y-96758800D01*
X144922200Y-96727164D01*
X144940020Y-96715257D01*
X144957800Y-96727137D01*
G36*
X124002800Y-96727137D02*
X124002800Y-97369070D01*
X123988069Y-97362458D01*
X122925526Y-98425000D01*
X123988069Y-99487542D01*
X124002800Y-99480930D01*
X124002800Y-100534695D01*
X123916311Y-100448206D01*
X123692257Y-100355400D01*
X123240800Y-100355400D01*
X123088400Y-100507800D01*
X123088400Y-102082600D01*
X124028200Y-102082600D01*
X124149411Y-101961389D01*
X124746311Y-102558290D01*
X124894637Y-102657398D01*
X125038229Y-102685960D01*
X125038229Y-103305100D01*
X124180600Y-103305100D01*
X124180600Y-102539800D01*
X124028200Y-102387400D01*
X123088400Y-102387400D01*
X123088400Y-102407400D01*
X122783600Y-102407400D01*
X122783600Y-102387400D01*
X121843800Y-102387400D01*
X121691400Y-102539800D01*
X121691400Y-103305100D01*
X119236878Y-103305100D01*
X116775521Y-100843743D01*
X121691400Y-100843743D01*
X121691400Y-101930200D01*
X121843800Y-102082600D01*
X122783600Y-102082600D01*
X122783600Y-100507800D01*
X122631200Y-100355400D01*
X122179743Y-100355400D01*
X121955689Y-100448206D01*
X121784206Y-100619689D01*
X121691400Y-100843743D01*
X116775521Y-100843743D01*
X116238378Y-100306600D01*
X119806300Y-100306600D01*
X119981263Y-100271798D01*
X120129589Y-100172689D01*
X120599209Y-99703069D01*
X121647458Y-99703069D01*
X121770548Y-99977324D01*
X122436109Y-100218673D01*
X123143366Y-100186952D01*
X123649452Y-99977324D01*
X123772542Y-99703069D01*
X122710000Y-98640526D01*
X121647458Y-99703069D01*
X120599209Y-99703069D01*
X121093283Y-99208995D01*
X121157676Y-99364452D01*
X121431931Y-99487542D01*
X122494474Y-98425000D01*
X122480332Y-98410858D01*
X122695858Y-98195332D01*
X122710000Y-98209474D01*
X123772542Y-97146931D01*
X123764169Y-97128274D01*
X123833289Y-97082089D01*
X123932398Y-96933763D01*
X123967200Y-96758800D01*
X123967200Y-96727164D01*
X123985020Y-96715257D01*
X124002800Y-96727137D01*
X124002800Y-96727137D01*
G37*
X124002800Y-96727137D02*
X124002800Y-97369070D01*
X123988069Y-97362458D01*
X122925526Y-98425000D01*
X123988069Y-99487542D01*
X124002800Y-99480930D01*
X124002800Y-100534695D01*
X123916311Y-100448206D01*
X123692257Y-100355400D01*
X123240800Y-100355400D01*
X123088400Y-100507800D01*
X123088400Y-102082600D01*
X124028200Y-102082600D01*
X124149411Y-101961389D01*
X124746311Y-102558290D01*
X124894637Y-102657398D01*
X125038229Y-102685960D01*
X125038229Y-103305100D01*
X124180600Y-103305100D01*
X124180600Y-102539800D01*
X124028200Y-102387400D01*
X123088400Y-102387400D01*
X123088400Y-102407400D01*
X122783600Y-102407400D01*
X122783600Y-102387400D01*
X121843800Y-102387400D01*
X121691400Y-102539800D01*
X121691400Y-103305100D01*
X119236878Y-103305100D01*
X116775521Y-100843743D01*
X121691400Y-100843743D01*
X121691400Y-101930200D01*
X121843800Y-102082600D01*
X122783600Y-102082600D01*
X122783600Y-100507800D01*
X122631200Y-100355400D01*
X122179743Y-100355400D01*
X121955689Y-100448206D01*
X121784206Y-100619689D01*
X121691400Y-100843743D01*
X116775521Y-100843743D01*
X116238378Y-100306600D01*
X119806300Y-100306600D01*
X119981263Y-100271798D01*
X120129589Y-100172689D01*
X120599209Y-99703069D01*
X121647458Y-99703069D01*
X121770548Y-99977324D01*
X122436109Y-100218673D01*
X123143366Y-100186952D01*
X123649452Y-99977324D01*
X123772542Y-99703069D01*
X122710000Y-98640526D01*
X121647458Y-99703069D01*
X120599209Y-99703069D01*
X121093283Y-99208995D01*
X121157676Y-99364452D01*
X121431931Y-99487542D01*
X122494474Y-98425000D01*
X122480332Y-98410858D01*
X122695858Y-98195332D01*
X122710000Y-98209474D01*
X123772542Y-97146931D01*
X123764169Y-97128274D01*
X123833289Y-97082089D01*
X123932398Y-96933763D01*
X123967200Y-96758800D01*
X123967200Y-96727164D01*
X123985020Y-96715257D01*
X124002800Y-96727137D01*
G36*
X150889179Y-96633557D02*
X150231634Y-96663048D01*
X149725548Y-96872676D01*
X149602458Y-97146931D01*
X150665000Y-98209474D01*
X150679143Y-98195332D01*
X150894669Y-98410858D01*
X150880526Y-98425000D01*
X150894669Y-98439143D01*
X150679143Y-98654669D01*
X150665000Y-98640526D01*
X149602458Y-99703069D01*
X149725548Y-99977324D01*
X150305568Y-100187654D01*
X148715422Y-101777800D01*
X147884771Y-101777800D01*
X147884771Y-100965000D01*
X147861115Y-100846073D01*
X147793748Y-100745252D01*
X147692927Y-100677885D01*
X147574000Y-100654229D01*
X146304000Y-100654229D01*
X146185073Y-100677885D01*
X146084252Y-100745252D01*
X146016885Y-100846073D01*
X145993229Y-100965000D01*
X145993229Y-101557051D01*
X145872200Y-101436022D01*
X145872200Y-99158162D01*
X145913996Y-99259316D01*
X146328502Y-99674546D01*
X146870357Y-99899543D01*
X147457069Y-99900055D01*
X147999316Y-99676004D01*
X148414546Y-99261498D01*
X148639543Y-98719643D01*
X148640039Y-98151109D01*
X148871327Y-98151109D01*
X148903048Y-98858366D01*
X149112676Y-99364452D01*
X149386931Y-99487542D01*
X150449474Y-98425000D01*
X149386931Y-97362458D01*
X149112676Y-97485548D01*
X148871327Y-98151109D01*
X148640039Y-98151109D01*
X148640055Y-98132931D01*
X148416004Y-97590684D01*
X148001498Y-97175454D01*
X147622200Y-97017956D01*
X147622200Y-95161000D01*
X147587398Y-94986037D01*
X147488289Y-94837711D01*
X146899283Y-94248705D01*
X146931475Y-94200527D01*
X146955131Y-94081600D01*
X146955131Y-92750640D01*
X146942435Y-92686813D01*
X150889179Y-96633557D01*
X150889179Y-96633557D01*
G37*
X150889179Y-96633557D02*
X150231634Y-96663048D01*
X149725548Y-96872676D01*
X149602458Y-97146931D01*
X150665000Y-98209474D01*
X150679143Y-98195332D01*
X150894669Y-98410858D01*
X150880526Y-98425000D01*
X150894669Y-98439143D01*
X150679143Y-98654669D01*
X150665000Y-98640526D01*
X149602458Y-99703069D01*
X149725548Y-99977324D01*
X150305568Y-100187654D01*
X148715422Y-101777800D01*
X147884771Y-101777800D01*
X147884771Y-100965000D01*
X147861115Y-100846073D01*
X147793748Y-100745252D01*
X147692927Y-100677885D01*
X147574000Y-100654229D01*
X146304000Y-100654229D01*
X146185073Y-100677885D01*
X146084252Y-100745252D01*
X146016885Y-100846073D01*
X145993229Y-100965000D01*
X145993229Y-101557051D01*
X145872200Y-101436022D01*
X145872200Y-99158162D01*
X145913996Y-99259316D01*
X146328502Y-99674546D01*
X146870357Y-99899543D01*
X147457069Y-99900055D01*
X147999316Y-99676004D01*
X148414546Y-99261498D01*
X148639543Y-98719643D01*
X148640039Y-98151109D01*
X148871327Y-98151109D01*
X148903048Y-98858366D01*
X149112676Y-99364452D01*
X149386931Y-99487542D01*
X150449474Y-98425000D01*
X149386931Y-97362458D01*
X149112676Y-97485548D01*
X148871327Y-98151109D01*
X148640039Y-98151109D01*
X148640055Y-98132931D01*
X148416004Y-97590684D01*
X148001498Y-97175454D01*
X147622200Y-97017956D01*
X147622200Y-95161000D01*
X147587398Y-94986037D01*
X147488289Y-94837711D01*
X146899283Y-94248705D01*
X146931475Y-94200527D01*
X146955131Y-94081600D01*
X146955131Y-92750640D01*
X146942435Y-92686813D01*
X150889179Y-96633557D01*
G36*
X129937433Y-96633411D02*
X129276634Y-96663048D01*
X128770548Y-96872676D01*
X128647458Y-97146931D01*
X129710000Y-98209474D01*
X129724143Y-98195332D01*
X129939669Y-98410858D01*
X129925526Y-98425000D01*
X129939669Y-98439143D01*
X129724143Y-98654669D01*
X129710000Y-98640526D01*
X128647458Y-99703069D01*
X128770548Y-99977324D01*
X129356806Y-100189916D01*
X127768922Y-101777800D01*
X126929771Y-101777800D01*
X126929771Y-100965000D01*
X126906115Y-100846073D01*
X126838748Y-100745252D01*
X126737927Y-100677885D01*
X126619000Y-100654229D01*
X125349000Y-100654229D01*
X125230073Y-100677885D01*
X125129252Y-100745252D01*
X125061885Y-100846073D01*
X125038229Y-100965000D01*
X125038229Y-101557051D01*
X124917200Y-101436022D01*
X124917200Y-99158162D01*
X124958996Y-99259316D01*
X125373502Y-99674546D01*
X125915357Y-99899543D01*
X126502069Y-99900055D01*
X127044316Y-99676004D01*
X127459546Y-99261498D01*
X127684543Y-98719643D01*
X127685039Y-98151109D01*
X127916327Y-98151109D01*
X127948048Y-98858366D01*
X128157676Y-99364452D01*
X128431931Y-99487542D01*
X129494474Y-98425000D01*
X128431931Y-97362458D01*
X128157676Y-97485548D01*
X127916327Y-98151109D01*
X127685039Y-98151109D01*
X127685055Y-98132931D01*
X127461004Y-97590684D01*
X127046498Y-97175454D01*
X126667200Y-97017956D01*
X126667200Y-95161000D01*
X126632398Y-94986037D01*
X126533289Y-94837711D01*
X125944283Y-94248705D01*
X125976475Y-94200527D01*
X126000131Y-94081600D01*
X126000131Y-92750640D01*
X125986591Y-92682569D01*
X129937433Y-96633411D01*
X129937433Y-96633411D01*
G37*
X129937433Y-96633411D02*
X129276634Y-96663048D01*
X128770548Y-96872676D01*
X128647458Y-97146931D01*
X129710000Y-98209474D01*
X129724143Y-98195332D01*
X129939669Y-98410858D01*
X129925526Y-98425000D01*
X129939669Y-98439143D01*
X129724143Y-98654669D01*
X129710000Y-98640526D01*
X128647458Y-99703069D01*
X128770548Y-99977324D01*
X129356806Y-100189916D01*
X127768922Y-101777800D01*
X126929771Y-101777800D01*
X126929771Y-100965000D01*
X126906115Y-100846073D01*
X126838748Y-100745252D01*
X126737927Y-100677885D01*
X126619000Y-100654229D01*
X125349000Y-100654229D01*
X125230073Y-100677885D01*
X125129252Y-100745252D01*
X125061885Y-100846073D01*
X125038229Y-100965000D01*
X125038229Y-101557051D01*
X124917200Y-101436022D01*
X124917200Y-99158162D01*
X124958996Y-99259316D01*
X125373502Y-99674546D01*
X125915357Y-99899543D01*
X126502069Y-99900055D01*
X127044316Y-99676004D01*
X127459546Y-99261498D01*
X127684543Y-98719643D01*
X127685039Y-98151109D01*
X127916327Y-98151109D01*
X127948048Y-98858366D01*
X128157676Y-99364452D01*
X128431931Y-99487542D01*
X129494474Y-98425000D01*
X128431931Y-97362458D01*
X128157676Y-97485548D01*
X127916327Y-98151109D01*
X127685039Y-98151109D01*
X127685055Y-98132931D01*
X127461004Y-97590684D01*
X127046498Y-97175454D01*
X126667200Y-97017956D01*
X126667200Y-95161000D01*
X126632398Y-94986037D01*
X126533289Y-94837711D01*
X125944283Y-94248705D01*
X125976475Y-94200527D01*
X126000131Y-94081600D01*
X126000131Y-92750640D01*
X125986591Y-92682569D01*
X129937433Y-96633411D01*
G36*
X125757431Y-92453409D02*
X125689360Y-92439869D01*
X125270501Y-92439869D01*
X125256194Y-92405329D01*
X125084711Y-92233846D01*
X124860657Y-92141040D01*
X124752100Y-92141040D01*
X124599700Y-92293440D01*
X124599700Y-93263720D01*
X124632400Y-93263720D01*
X124632400Y-93568520D01*
X124599700Y-93568520D01*
X124599700Y-93588520D01*
X124320300Y-93588520D01*
X124320300Y-93568520D01*
X124287600Y-93568520D01*
X124287600Y-93263720D01*
X124320300Y-93263720D01*
X124320300Y-92293440D01*
X124167900Y-92141040D01*
X124059343Y-92141040D01*
X123835289Y-92233846D01*
X123663806Y-92405329D01*
X123649499Y-92439869D01*
X123230640Y-92439869D01*
X123111713Y-92463525D01*
X123010892Y-92530892D01*
X122943525Y-92631713D01*
X122919869Y-92750640D01*
X122919869Y-92958900D01*
X122911300Y-92958900D01*
X122736337Y-92993702D01*
X122588011Y-93092811D01*
X118886711Y-96794111D01*
X118787602Y-96942437D01*
X118774304Y-97009290D01*
X118375684Y-97173996D01*
X117960454Y-97588502D01*
X117735457Y-98130357D01*
X117734945Y-98717069D01*
X117958996Y-99259316D01*
X118091648Y-99392200D01*
X115914478Y-99392200D01*
X112029752Y-95507474D01*
X112079529Y-95486907D01*
X113398111Y-96805489D01*
X113546437Y-96904598D01*
X113721400Y-96939400D01*
X116274400Y-96939400D01*
X116449363Y-96904598D01*
X116597689Y-96805489D01*
X118370268Y-95032911D01*
X118621291Y-95033130D01*
X118896790Y-94919296D01*
X119107756Y-94708699D01*
X119222070Y-94433399D01*
X119222330Y-94135309D01*
X119108496Y-93859810D01*
X118897899Y-93648844D01*
X118622599Y-93534530D01*
X118324509Y-93534270D01*
X118049010Y-93648104D01*
X117838044Y-93858701D01*
X117723730Y-94134001D01*
X117723510Y-94386511D01*
X116594365Y-95515656D01*
X116526996Y-95352610D01*
X116316399Y-95141644D01*
X116041099Y-95027330D01*
X115743009Y-95027070D01*
X115467510Y-95140904D01*
X115256544Y-95351501D01*
X115193470Y-95503400D01*
X114820110Y-95503400D01*
X114858270Y-95411499D01*
X114858530Y-95113409D01*
X114773078Y-94906600D01*
X114989200Y-94906600D01*
X115164163Y-94871798D01*
X115312489Y-94772689D01*
X115925689Y-94159489D01*
X116024798Y-94011163D01*
X116059600Y-93836200D01*
X116059600Y-93264844D01*
X116237256Y-93087499D01*
X116351570Y-92812199D01*
X116351830Y-92514109D01*
X116286406Y-92355771D01*
X117030000Y-92355771D01*
X117148927Y-92332115D01*
X117249748Y-92264748D01*
X117317115Y-92163927D01*
X117334029Y-92078893D01*
X117375311Y-92061794D01*
X117438305Y-91998800D01*
X118770400Y-91998800D01*
X118770400Y-92450257D01*
X118863206Y-92674311D01*
X119034689Y-92845794D01*
X119258743Y-92938600D01*
X120345200Y-92938600D01*
X120497600Y-92786200D01*
X120497600Y-91846400D01*
X120802400Y-91846400D01*
X120802400Y-92786200D01*
X120954800Y-92938600D01*
X122041257Y-92938600D01*
X122265311Y-92845794D01*
X122436794Y-92674311D01*
X122529600Y-92450257D01*
X122529600Y-91998800D01*
X122377200Y-91846400D01*
X120802400Y-91846400D01*
X120497600Y-91846400D01*
X118922800Y-91846400D01*
X118770400Y-91998800D01*
X117438305Y-91998800D01*
X117546794Y-91890311D01*
X117639600Y-91666257D01*
X117639600Y-91634900D01*
X117487200Y-91482500D01*
X116182400Y-91482500D01*
X116182400Y-91484229D01*
X115877600Y-91484229D01*
X115877600Y-91482500D01*
X115857600Y-91482500D01*
X115857600Y-91357500D01*
X115877600Y-91357500D01*
X115877600Y-91355771D01*
X115922268Y-91355771D01*
X116030000Y-91377200D01*
X116137732Y-91355771D01*
X116182400Y-91355771D01*
X116182400Y-91357500D01*
X117487200Y-91357500D01*
X117639600Y-91205100D01*
X117639600Y-91173743D01*
X117546794Y-90949689D01*
X117474305Y-90877200D01*
X118795478Y-90877200D01*
X118770400Y-90937743D01*
X118770400Y-91389200D01*
X118922800Y-91541600D01*
X120497600Y-91541600D01*
X120497600Y-90601800D01*
X120802400Y-90601800D01*
X120802400Y-91541600D01*
X122377200Y-91541600D01*
X122529600Y-91389200D01*
X122529600Y-90937743D01*
X122436794Y-90713689D01*
X122265311Y-90542206D01*
X122041257Y-90449400D01*
X120954800Y-90449400D01*
X120802400Y-90601800D01*
X120497600Y-90601800D01*
X120345200Y-90449400D01*
X119950378Y-90449400D01*
X120808008Y-89591771D01*
X121920000Y-89591771D01*
X122038927Y-89568115D01*
X122050473Y-89560400D01*
X122864422Y-89560400D01*
X125757431Y-92453409D01*
X125757431Y-92453409D01*
G37*
X125757431Y-92453409D02*
X125689360Y-92439869D01*
X125270501Y-92439869D01*
X125256194Y-92405329D01*
X125084711Y-92233846D01*
X124860657Y-92141040D01*
X124752100Y-92141040D01*
X124599700Y-92293440D01*
X124599700Y-93263720D01*
X124632400Y-93263720D01*
X124632400Y-93568520D01*
X124599700Y-93568520D01*
X124599700Y-93588520D01*
X124320300Y-93588520D01*
X124320300Y-93568520D01*
X124287600Y-93568520D01*
X124287600Y-93263720D01*
X124320300Y-93263720D01*
X124320300Y-92293440D01*
X124167900Y-92141040D01*
X124059343Y-92141040D01*
X123835289Y-92233846D01*
X123663806Y-92405329D01*
X123649499Y-92439869D01*
X123230640Y-92439869D01*
X123111713Y-92463525D01*
X123010892Y-92530892D01*
X122943525Y-92631713D01*
X122919869Y-92750640D01*
X122919869Y-92958900D01*
X122911300Y-92958900D01*
X122736337Y-92993702D01*
X122588011Y-93092811D01*
X118886711Y-96794111D01*
X118787602Y-96942437D01*
X118774304Y-97009290D01*
X118375684Y-97173996D01*
X117960454Y-97588502D01*
X117735457Y-98130357D01*
X117734945Y-98717069D01*
X117958996Y-99259316D01*
X118091648Y-99392200D01*
X115914478Y-99392200D01*
X112029752Y-95507474D01*
X112079529Y-95486907D01*
X113398111Y-96805489D01*
X113546437Y-96904598D01*
X113721400Y-96939400D01*
X116274400Y-96939400D01*
X116449363Y-96904598D01*
X116597689Y-96805489D01*
X118370268Y-95032911D01*
X118621291Y-95033130D01*
X118896790Y-94919296D01*
X119107756Y-94708699D01*
X119222070Y-94433399D01*
X119222330Y-94135309D01*
X119108496Y-93859810D01*
X118897899Y-93648844D01*
X118622599Y-93534530D01*
X118324509Y-93534270D01*
X118049010Y-93648104D01*
X117838044Y-93858701D01*
X117723730Y-94134001D01*
X117723510Y-94386511D01*
X116594365Y-95515656D01*
X116526996Y-95352610D01*
X116316399Y-95141644D01*
X116041099Y-95027330D01*
X115743009Y-95027070D01*
X115467510Y-95140904D01*
X115256544Y-95351501D01*
X115193470Y-95503400D01*
X114820110Y-95503400D01*
X114858270Y-95411499D01*
X114858530Y-95113409D01*
X114773078Y-94906600D01*
X114989200Y-94906600D01*
X115164163Y-94871798D01*
X115312489Y-94772689D01*
X115925689Y-94159489D01*
X116024798Y-94011163D01*
X116059600Y-93836200D01*
X116059600Y-93264844D01*
X116237256Y-93087499D01*
X116351570Y-92812199D01*
X116351830Y-92514109D01*
X116286406Y-92355771D01*
X117030000Y-92355771D01*
X117148927Y-92332115D01*
X117249748Y-92264748D01*
X117317115Y-92163927D01*
X117334029Y-92078893D01*
X117375311Y-92061794D01*
X117438305Y-91998800D01*
X118770400Y-91998800D01*
X118770400Y-92450257D01*
X118863206Y-92674311D01*
X119034689Y-92845794D01*
X119258743Y-92938600D01*
X120345200Y-92938600D01*
X120497600Y-92786200D01*
X120497600Y-91846400D01*
X120802400Y-91846400D01*
X120802400Y-92786200D01*
X120954800Y-92938600D01*
X122041257Y-92938600D01*
X122265311Y-92845794D01*
X122436794Y-92674311D01*
X122529600Y-92450257D01*
X122529600Y-91998800D01*
X122377200Y-91846400D01*
X120802400Y-91846400D01*
X120497600Y-91846400D01*
X118922800Y-91846400D01*
X118770400Y-91998800D01*
X117438305Y-91998800D01*
X117546794Y-91890311D01*
X117639600Y-91666257D01*
X117639600Y-91634900D01*
X117487200Y-91482500D01*
X116182400Y-91482500D01*
X116182400Y-91484229D01*
X115877600Y-91484229D01*
X115877600Y-91482500D01*
X115857600Y-91482500D01*
X115857600Y-91357500D01*
X115877600Y-91357500D01*
X115877600Y-91355771D01*
X115922268Y-91355771D01*
X116030000Y-91377200D01*
X116137732Y-91355771D01*
X116182400Y-91355771D01*
X116182400Y-91357500D01*
X117487200Y-91357500D01*
X117639600Y-91205100D01*
X117639600Y-91173743D01*
X117546794Y-90949689D01*
X117474305Y-90877200D01*
X118795478Y-90877200D01*
X118770400Y-90937743D01*
X118770400Y-91389200D01*
X118922800Y-91541600D01*
X120497600Y-91541600D01*
X120497600Y-90601800D01*
X120802400Y-90601800D01*
X120802400Y-91541600D01*
X122377200Y-91541600D01*
X122529600Y-91389200D01*
X122529600Y-90937743D01*
X122436794Y-90713689D01*
X122265311Y-90542206D01*
X122041257Y-90449400D01*
X120954800Y-90449400D01*
X120802400Y-90601800D01*
X120497600Y-90601800D01*
X120345200Y-90449400D01*
X119950378Y-90449400D01*
X120808008Y-89591771D01*
X121920000Y-89591771D01*
X122038927Y-89568115D01*
X122050473Y-89560400D01*
X122864422Y-89560400D01*
X125757431Y-92453409D01*
G36*
X145554700Y-93263720D02*
X145587400Y-93263720D01*
X145587400Y-93568520D01*
X145554700Y-93568520D01*
X145554700Y-93588520D01*
X145275300Y-93588520D01*
X145275300Y-93568520D01*
X145242600Y-93568520D01*
X145242600Y-93263720D01*
X145275300Y-93263720D01*
X145275300Y-93243720D01*
X145554700Y-93243720D01*
X145554700Y-93263720D01*
X145554700Y-93263720D01*
G37*
X145554700Y-93263720D02*
X145587400Y-93263720D01*
X145587400Y-93568520D01*
X145554700Y-93568520D01*
X145554700Y-93588520D01*
X145275300Y-93588520D01*
X145275300Y-93568520D01*
X145242600Y-93568520D01*
X145242600Y-93263720D01*
X145275300Y-93263720D01*
X145275300Y-93243720D01*
X145554700Y-93243720D01*
X145554700Y-93263720D01*
G36*
X114842500Y-93017600D02*
X114905000Y-93017600D01*
X114905000Y-93322400D01*
X114842500Y-93322400D01*
X114842500Y-93342400D01*
X114717500Y-93342400D01*
X114717500Y-93322400D01*
X114715771Y-93322400D01*
X114715771Y-93017600D01*
X114717500Y-93017600D01*
X114717500Y-92997600D01*
X114842500Y-92997600D01*
X114842500Y-93017600D01*
X114842500Y-93017600D01*
G37*
X114842500Y-93017600D02*
X114905000Y-93017600D01*
X114905000Y-93322400D01*
X114842500Y-93322400D01*
X114842500Y-93342400D01*
X114717500Y-93342400D01*
X114717500Y-93322400D01*
X114715771Y-93322400D01*
X114715771Y-93017600D01*
X114717500Y-93017600D01*
X114717500Y-92997600D01*
X114842500Y-92997600D01*
X114842500Y-93017600D01*
G36*
X113182400Y-90017600D02*
X113202400Y-90017600D01*
X113202400Y-90322400D01*
X113182400Y-90322400D01*
X113182400Y-90342400D01*
X112877600Y-90342400D01*
X112877600Y-90322400D01*
X112857600Y-90322400D01*
X112857600Y-90017600D01*
X112877600Y-90017600D01*
X112877600Y-89997600D01*
X113182400Y-89997600D01*
X113182400Y-90017600D01*
X113182400Y-90017600D01*
G37*
X113182400Y-90017600D02*
X113202400Y-90017600D01*
X113202400Y-90322400D01*
X113182400Y-90322400D01*
X113182400Y-90342400D01*
X112877600Y-90342400D01*
X112877600Y-90322400D01*
X112857600Y-90322400D01*
X112857600Y-90017600D01*
X112877600Y-90017600D01*
X112877600Y-89997600D01*
X113182400Y-89997600D01*
X113182400Y-90017600D01*
M02*
