M48
;DRILL file {KiCad no-vcs-found-0f0cb64~58~ubuntu16.04.1} date Wed Mar 29 15:35:25 2017
;FORMAT={-:-/ absolute / inch / decimal}
FMAT,2
INCH,TZ
T1C0.025
T2C0.043
T3C0.047
T4C0.079
T5C0.130
%
G90
G05
M72
T1
X3.815Y-3.098
X3.9235Y-3.0966
X3.9303Y-3.1405
X4.0044Y-3.7705
X4.0175Y-3.2021
X4.025Y-3.3091
X4.125Y-3.313
X4.1498Y-3.799
X4.2166Y-3.2033
X4.3177Y-3.0299
X4.3356Y-3.4544
X4.3524Y-3.2142
X4.3812Y-3.2703
X4.3978Y-3.7335
X4.4108Y-3.2997
X4.4384Y-3.3273
X4.4613Y-3.3596
X4.4925Y-3.7505
X4.5513Y-3.6481
X4.5627Y-3.7707
X4.5807Y-3.4543
X4.6643Y-3.712
X4.7468Y-3.1483
X4.75Y-3.0963
X4.8367Y-3.7196
X4.8461Y-3.2021
X4.8491Y-3.3092
X4.9512Y-3.3543
X5.0425Y-3.2029
X5.571Y-3.1619
X5.575Y-3.0965
X5.6105Y-3.7707
X5.6695Y-3.2026
X5.675Y-3.313
X5.675Y-3.4096
X5.8671Y-3.2021
T2
X3.475Y-2.8
X3.475Y-4.2
X3.575Y-2.8
X3.575Y-4.2
X3.675Y-2.8
X3.675Y-4.2
X3.775Y-2.8
X3.775Y-4.2
X3.875Y-2.8
X3.875Y-4.2
X3.975Y-2.8
X3.975Y-4.2
X4.075Y-2.8
X4.075Y-4.2
X4.175Y-2.8
X4.175Y-4.2
X4.275Y-2.8
X4.275Y-4.2
X4.375Y-2.8
X4.375Y-4.2
X4.475Y-2.8
X4.475Y-4.2
X4.575Y-2.8
X4.575Y-4.2
X4.675Y-2.8
X4.675Y-4.2
X4.775Y-2.8
X4.775Y-4.2
X4.875Y-2.8
X4.875Y-4.2
X4.975Y-2.8
X4.975Y-4.2
T3
X3.8683Y-3.875
X4.0061Y-3.875
X4.1439Y-3.875
X4.2817Y-3.875
X4.6933Y-3.875
X4.8311Y-3.875
X4.9689Y-3.875
X5.1067Y-3.875
X5.5183Y-3.875
X5.6561Y-3.875
X5.7939Y-3.875
X5.9317Y-3.875
T4
X4.45Y-3.55
T5
X3.525Y-3.
X3.525Y-4.
X5.125Y-2.8
X5.125Y-4.2
T0
M30
